<svg width="30" height="27" viewBox="0 0 30 27" fill="none" xmlns="http://www.w3.org/2000/svg">
<path fill-rule="evenodd" clip-rule="evenodd" d="M14.9895 26.904L20.5095 10.3531H9.46948L14.9895 26.904Z" fill="#E24329"/>
<path fill-rule="evenodd" clip-rule="evenodd" d="M14.9895 26.9039L9.46954 10.353H1.7334L14.9895 26.9039Z" fill="#FC6D26"/>
<path fill-rule="evenodd" clip-rule="evenodd" d="M1.73345 10.3531L0.0560194 15.3828C-0.0969805 15.8415 0.0705908 16.3441 0.471162 16.6276L14.9896 26.904L1.73345 10.3531Z" fill="#FCA326"/>
<path fill-rule="evenodd" clip-rule="evenodd" d="M1.73364 10.3531H9.46979L6.14507 0.384698C5.97407 -0.128302 5.22921 -0.128163 5.05821 0.384698L1.73364 10.3531Z" fill="#E24329"/>
<path fill-rule="evenodd" clip-rule="evenodd" d="M14.9895 26.9039L20.5095 10.353H28.2456L14.9895 26.9039Z" fill="#FC6D26"/>
<path fill-rule="evenodd" clip-rule="evenodd" d="M28.2456 10.3531L29.9231 15.3828C30.0761 15.8415 29.9085 16.3441 29.5079 16.6276L14.9895 26.904L28.2456 10.3531Z" fill="#FCA326"/>
<path fill-rule="evenodd" clip-rule="evenodd" d="M28.2457 10.3531H20.5095L23.8342 0.384698C24.0052 -0.128302 24.7501 -0.128163 24.9211 0.384698L28.2457 10.3531Z" fill="#E24329"/>
</svg>
