<svg viewBox="0 0 140 45" fill="none" xmlns="http://www.w3.org/2000/svg">
  <style>
    .square-grey {
      animation: square-grey-animate 3s linear normal forwards
    }

    .square-color {
      animation: slider 3s linear normal forwards;
    }

    .square-top {
      animation: opacity-top 3s linear normal forwards;
    }

    .square-right {
      animation: opacity-right 2s linear normal forwards;
    }

    .square-left {
      animation: opacity-left 3s linear normal forwards;
    }


    .square-buttom {
      animation: opacity-buttom 3s linear normal forwards;
    }

    .text {
      animation: opacity 3s linear normal forwards;
    }

    @keyframes square-grey-animate {
      0% {opacity: 0}
      33% {opacity: 0}
      50% {opacity: 1}
      100% {opacity: 1}
    }

    @keyframes slider {
      0% {transform: translate(0px,0px)}
      16% {transform: translate(-0px,-0px)}
      33% {transform: translate(-20px,0px)}
      100% {transform: translate(-20px,0px)}
    }

    @keyframes opacity {
      0% {opacity: 0}
      33% {opacity: 0}
      50% {opacity: 1}
      88% {opacity: 1}
      100% {opacity: 1}
    }

    @keyframes opacity-buttom {
      0% {opacity: 0}
      16% {opacity: 1}
      50% {opacity: 0}
      70% {opacity: 1}
      100% {opacity: 1}
    }

    @keyframes opacity-left {
      0% {opacity: 0}
      16% {opacity: 1}
      50% {opacity: 0}
      76% {opacity: 0}
      93% {opacity: 1}
      100% {opacity: 1}
    }

    @keyframes opacity-top {
      0% {opacity: 0}
      16% {opacity: 1}
      50% {opacity: 0}
      83% {opacity: 0}
      100% {opacity: 1}
    }

    @keyframes opacity-right {
      0% {opacity: 0}
      16% {opacity: 1}
      50% {opacity: 0}
      83% {opacity: 0}
      100% {opacity: 0}
    }
  </style>

  <g class="square-grey" transform="translate(-20,0)"  opacity="0"><path d="M23.736200,35.018600C23.750200,35.766500,24.014900,37.353800,24.308300,38.025600C24.601700,38.697300,24.999900,39.275600,25.502900,39.760400C26.019900,40.245100,26.610200,40.622600,27.273900,40.892600C27.937600,41.162700,28.639700,41.297800,29.380200,41.297800L50.404400,41.297800L50.404400,44.975100L29.275400,44.975100C28.031900,44.975100,26.854700,44.746600,25.743900,44.289500C24.633100,43.832400,23.658600,43.188400,22.820200,42.357300C21.981900,41.540200,21.328700,40.581000,20.860600,39.479900C20.392500,38.378800,20,36.102400,20,34.869700L20,33.055900L23.736200,33.055900C23.736200,33.464100,23.732700,34.944300,23.736200,35.018600Z" fill="#c4c4c4"/><path d="M32.184100,3.691220L30.177700,3.691220C29.413200,3.704890,27.790600,3.963830,27.104000,4.250870C26.417300,4.537920,25.826200,4.927470,25.330600,5.419540C24.835100,5.925280,24.449300,6.502770,24.173200,7.152040C23.897100,7.801300,23.759000,8.488140,23.759000,9.212580C23.759000,11.954100,23.759000,14.010200,23.759000,15.380900C23.759000,18.580700,23.759000,23.380200,23.759000,29.779700C23.361800,29.779700,20.140000,29.779700,20,29.779700L20,9.110060C20,7.893550,20.233600,6.741980,20.700800,5.655320C21.168100,4.568660,21.826400,3.615290,22.675900,2.795170C23.511300,1.975050,24.491700,1.336050,25.617300,0.878145C26.742900,0.420245,29.069900,0.036255,30.330000,0.036255C30.462500,0.036255,32.184100,0.036255,32.184100,0.036255C32.184100,1.045810,32.184100,2.913630,32.184100,3.691220Z" fill="#c4c4c4"/><path d="M62.263900,9.956490C62.250000,9.208550,61.985300,7.621280,61.691800,6.949520C61.398400,6.277770,61.000200,5.699510,60.497200,5.214740C59.980200,4.729970,59.389900,4.352540,58.726200,4.082460C58.062500,3.812370,57.360400,3.677330,56.619900,3.677330C51.948900,3.677330,48.445700,3.677330,46.110200,3.677330C43.773700,3.677330,40.268800,3.677330,35.595700,3.677330L35.595700,0L56.724700,0C57.968200,0,59.145400,0.228532,60.256200,0.685603C61.367000,1.142670,62.341500,1.786720,63.179900,2.617760C64.018200,3.434950,64.671400,4.394090,65.139500,5.495210C65.607600,6.596340,66.000100,8.872690,66.000100,10.105400L66.000100,11.919200L62.263900,11.919200C62.263900,11.511000,62.267400,10.030800,62.263900,9.956490Z" fill="#c4c4c4"/></g><g class="square-color" transform="translate(0,0)">
  <path class="square-top" d="M62.2639 9.95649C62.25 9.20855 61.9853 7.62128 61.6918 6.94952C61.3984 6.27777 61.0002 5.69951 60.4972 5.21474C59.9802 4.72997 59.3899 4.35254 58.7262 4.08246C58.0625 3.81237 57.3604 3.67733 56.6199 3.67733C51.9489 3.67733 48.4457 3.67733 46.1102 3.67733C43.7737 3.67733 40.2688 3.67733 35.5957 3.67733V0H56.7247C57.9682 0 59.1454 0.228532 60.2562 0.685603C61.367 1.14267 62.3415 1.78672 63.1799 2.61776C64.0182 3.43495 64.6714 4.39409 65.1395 5.49521C65.6076 6.59634 66.0001 8.87269 66.0001 10.1054V11.9192H62.2639C62.2639 11.511 62.2674 10.0308 62.2639 9.95649Z" fill="#933183"/><path class="square-right" d="M55.7968 41.3451C56.5614 41.3314 58.1839 41.0725 58.8706 40.7854C59.5573 40.4984 60.1484 40.1088 60.644 39.6168C61.1395 39.111 61.5253 38.5335 61.8014 37.8843C62.0775 37.235 62.2155 36.5482 62.2155 35.8237V15.2566H65.9746V35.9262C65.9746 37.1427 65.741 38.2943 65.2738 39.381C64.8065 40.4676 64.1482 41.421 63.2987 42.2411C62.4633 43.0612 61.4829 43.7002 60.3573 44.1581C59.2317 44.616 56.9047 45 55.6446 45H53.7905V41.3451C54.2078 41.3451 55.7209 41.3485 55.7968 41.3451Z" fill="#00227B"/>
  <path class="square-buttom" d="M23.7362 35.0186C23.7502 35.7665 24.0149 37.3538 24.3083 38.0256C24.6017 38.6973 24.9999 39.2756 25.5029 39.7604C26.0199 40.2451 26.6102 40.6226 27.2739 40.8926C27.9376 41.1627 28.6397 41.2978 29.3802 41.2978H50.4044V44.9751H29.2754C28.0319 44.9751 26.8547 44.7466 25.7439 44.2895C24.6331 43.8324 23.6586 43.1884 22.8202 42.3573C21.9819 41.5402 21.3287 40.581 20.8606 39.4799C20.3925 38.3788 20 36.1024 20 34.8697V33.0559H23.7362C23.7362 33.4641 23.7327 34.9443 23.7362 35.0186Z" fill="#76B515"/>
  <path class="square-left" d="M32.1841 3.69122H30.1777C29.4132 3.70489 27.7906 3.96383 27.104 4.25087C26.4173 4.53792 25.8262 4.92747 25.3306 5.41954C24.8351 5.92528 24.4493 6.50277 24.1732 7.15204C23.8971 7.8013 23.759 8.48814 23.759 9.21258C23.759 11.9541 23.759 14.0102 23.759 15.3809C23.759 18.5807 23.759 23.3802 23.759 29.7797C23.3618 29.7797 20.14 29.7797 20 29.7797L20 9.11006C20 7.89355 20.2336 6.74198 20.7008 5.65532C21.1681 4.56866 21.8264 3.61529 22.6759 2.79517C23.5113 1.97505 24.4917 1.33605 25.6173 0.878145C26.7429 0.420245 29.0699 0.0362549 30.33 0.0362549C30.4625 0.0362549 32.1841 0.0362549 32.1841 0.0362549C32.1841 1.04581 32.1841 2.91363 32.1841 3.69122Z" fill="#FD5C02"/></g>
  <path class="text" d="M40.86 22.14C40.86 23.3 40.46 24.2667 39.66 25.04C38.8733 25.8 37.6667 26.18 36.04 26.18H33.36V32H31.54V18.06H36.04C37.6133 18.06 38.8067 18.44 39.62 19.2C40.4467 19.96 40.86 20.94 40.86 22.14ZM36.04 24.68C37.0533 24.68 37.8 24.46 38.28 24.02C38.76 23.58 39 22.9533 39 22.14C39 20.42 38.0133 19.56 36.04 19.56H33.36V24.68H36.04ZM44.942 22.82C45.262 22.1933 45.7154 21.7067 46.302 21.36C46.902 21.0133 47.6287 20.84 48.482 20.84V22.72H48.002C45.962 22.72 44.942 23.8267 44.942 26.04V32H43.122V21.04H44.942V22.82ZM55.363 32.18C54.3363 32.18 53.403 31.9467 52.563 31.48C51.7363 31.0133 51.083 30.3533 50.603 29.5C50.1363 28.6333 49.903 27.6333 49.903 26.5C49.903 25.38 50.143 24.3933 50.623 23.54C51.1163 22.6733 51.783 22.0133 52.623 21.56C53.463 21.0933 54.403 20.86 55.443 20.86C56.483 20.86 57.423 21.0933 58.263 21.56C59.103 22.0133 59.763 22.6667 60.243 23.52C60.7363 24.3733 60.983 25.3667 60.983 26.5C60.983 27.6333 60.7296 28.6333 60.223 29.5C59.7296 30.3533 59.0563 31.0133 58.203 31.48C57.3496 31.9467 56.403 32.18 55.363 32.18ZM55.363 30.58C56.0163 30.58 56.6296 30.4267 57.203 30.12C57.7763 29.8133 58.2363 29.3533 58.583 28.74C58.943 28.1267 59.123 27.38 59.123 26.5C59.123 25.62 58.9496 24.8733 58.603 24.26C58.2563 23.6467 57.803 23.1933 57.243 22.9C56.683 22.5933 56.0763 22.44 55.423 22.44C54.7563 22.44 54.143 22.5933 53.583 22.9C53.0363 23.1933 52.5963 23.6467 52.263 24.26C51.9296 24.8733 51.763 25.62 51.763 26.5C51.763 27.3933 51.923 28.1467 52.243 28.76C52.5763 29.3733 53.0163 29.8333 53.563 30.14C54.1096 30.4333 54.7096 30.58 55.363 30.58ZM64.3559 19.26C64.0093 19.26 63.7159 19.14 63.4759 18.9C63.2493 18.66 63.1359 18.3667 63.1359 18.02C63.1359 17.6733 63.2493 17.38 63.4759 17.14C63.7159 16.9 64.0093 16.78 64.3559 16.78C64.7026 16.78 64.9893 16.9 65.2159 17.14C65.4559 17.38 65.5759 17.6733 65.5759 18.02C65.5759 18.3667 65.4559 18.66 65.2159 18.9C64.9893 19.14 64.7026 19.26 64.3559 19.26ZM65.2559 34.38C65.2559 35.3533 65.0093 36.0667 64.5159 36.52C64.0226 36.9733 63.3026 37.2 62.3559 37.2H61.2959V35.66H62.0559C62.5626 35.66 62.9159 35.56 63.1159 35.36C63.3293 35.16 63.4359 34.82 63.4359 34.34V21.04H65.2559V34.38ZM78.3369 26.1C78.3369 26.4467 78.3169 26.8133 78.2769 27.2H69.5169C69.5835 28.28 69.9502 29.1267 70.6169 29.74C71.2969 30.34 72.1169 30.64 73.0769 30.64C73.8635 30.64 74.5169 30.46 75.0369 30.1C75.5702 29.7267 75.9435 29.2333 76.1569 28.62H78.1169C77.8235 29.6733 77.2369 30.5333 76.3569 31.2C75.4769 31.8533 74.3835 32.18 73.0769 32.18C72.0369 32.18 71.1035 31.9467 70.2769 31.48C69.4635 31.0133 68.8235 30.3533 68.3569 29.5C67.8902 28.6333 67.6569 27.6333 67.6569 26.5C67.6569 25.3667 67.8835 24.3733 68.3369 23.52C68.7902 22.6667 69.4235 22.0133 70.2369 21.56C71.0635 21.0933 72.0102 20.86 73.0769 20.86C74.1169 20.86 75.0369 21.0867 75.8369 21.54C76.6369 21.9933 77.2502 22.62 77.6769 23.42C78.1169 24.2067 78.3369 25.1 78.3369 26.1ZM76.4569 25.72C76.4569 25.0267 76.3035 24.4333 75.9969 23.94C75.6902 23.4333 75.2702 23.0533 74.7369 22.8C74.2169 22.5333 73.6369 22.4 72.9969 22.4C72.0769 22.4 71.2902 22.6933 70.6369 23.28C69.9969 23.8667 69.6302 24.68 69.5369 25.72H76.4569ZM80.0592 26.5C80.0592 25.3667 80.2859 24.38 80.7392 23.54C81.1926 22.6867 81.8192 22.0267 82.6192 21.56C83.4326 21.0933 84.3592 20.86 85.3992 20.86C86.7459 20.86 87.8526 21.1867 88.7192 21.84C89.5992 22.4933 90.1792 23.4 90.4592 24.56H88.4992C88.3126 23.8933 87.9459 23.3667 87.3992 22.98C86.8659 22.5933 86.1992 22.4 85.3992 22.4C84.3592 22.4 83.5192 22.76 82.8792 23.48C82.2392 24.1867 81.9192 25.1933 81.9192 26.5C81.9192 27.82 82.2392 28.84 82.8792 29.56C83.5192 30.28 84.3592 30.64 85.3992 30.64C86.1992 30.64 86.8659 30.4533 87.3992 30.08C87.9326 29.7067 88.2992 29.1733 88.4992 28.48H90.4592C90.1659 29.6 89.5792 30.5 88.6992 31.18C87.8192 31.8467 86.7192 32.18 85.3992 32.18C84.3592 32.18 83.4326 31.9467 82.6192 31.48C81.8192 31.0133 81.1926 30.3533 80.7392 29.5C80.2859 28.6467 80.0592 27.6467 80.0592 26.5ZM95.1077 22.54V29C95.1077 29.5333 95.221 29.9133 95.4477 30.14C95.6743 30.3533 96.0677 30.46 96.6277 30.46H97.9677V32H96.3277C95.3143 32 94.5543 31.7667 94.0477 31.3C93.541 30.8333 93.2877 30.0667 93.2877 29V22.54H91.8677V21.04H93.2877V18.28H95.1077V21.04H97.9677V22.54H95.1077ZM104.953 32.18C103.926 32.18 102.993 31.9467 102.153 31.48C101.326 31.0133 100.673 30.3533 100.193 29.5C99.7261 28.6333 99.4928 27.6333 99.4928 26.5C99.4928 25.38 99.7328 24.3933 100.213 23.54C100.706 22.6733 101.373 22.0133 102.213 21.56C103.053 21.0933 103.993 20.86 105.033 20.86C106.073 20.86 107.013 21.0933 107.853 21.56C108.693 22.0133 109.353 22.6667 109.833 23.52C110.326 24.3733 110.573 25.3667 110.573 26.5C110.573 27.6333 110.319 28.6333 109.813 29.5C109.319 30.3533 108.646 31.0133 107.793 31.48C106.939 31.9467 105.993 32.18 104.953 32.18ZM104.953 30.58C105.606 30.58 106.219 30.4267 106.793 30.12C107.366 29.8133 107.826 29.3533 108.173 28.74C108.533 28.1267 108.713 27.38 108.713 26.5C108.713 25.62 108.539 24.8733 108.193 24.26C107.846 23.6467 107.393 23.1933 106.833 22.9C106.273 22.5933 105.666 22.44 105.013 22.44C104.346 22.44 103.733 22.5933 103.173 22.9C102.626 23.1933 102.186 23.6467 101.853 24.26C101.519 24.8733 101.353 25.62 101.353 26.5C101.353 27.3933 101.513 28.1467 101.833 28.76C102.166 29.3733 102.606 29.8333 103.153 30.14C103.699 30.4333 104.299 30.58 104.953 30.58ZM114.786 22.82C115.106 22.1933 115.559 21.7067 116.146 21.36C116.746 21.0133 117.472 20.84 118.326 20.84V22.72H117.846C115.806 22.72 114.786 23.8267 114.786 26.04V32H112.966V21.04H114.786V22.82Z" fill="#00227B" transform="translate(-20,0)"/>
  <rect class="text" x="89.25" y="3.25" width="30.19" height="11.5" rx="4.75" fill="#6F74DD" fill-opacity="0.33" stroke="#00227B" stroke-width="0.5" transform="translate(-20,0)"/>
  <path class="text" d="M98.2122 7.26172H96.47V12H95.2981V7.26172H93.5794V6.3125H98.2122V7.26172ZM102.306 9.53516H100.056V11.0586H102.697V12H98.8841V6.3125H102.689V7.26172H100.056V8.61719H102.306V9.53516ZM106.595 10.8281H104.54L104.15 12H102.904L105.021 6.3125H106.107L108.236 12H106.99L106.595 10.8281ZM104.857 9.87891H106.279L105.564 7.75L104.857 9.87891ZM110.298 6.3125L111.759 10.4375L113.212 6.3125H114.751V12H113.575V10.4453L113.693 7.76172L112.158 12H111.353L109.822 7.76562L109.939 10.4453V12H108.767V6.3125H110.298Z" fill="#00227B" transform="translate(-20,0)"/>
</svg>
