<svg width="130" height="32" viewBox="0 0 130 32" fill="none" xmlns="http://www.w3.org/2000/svg">
<path d="M29.4008 7.08017C29.3911 6.54831 29.207 5.41958 29.0028 4.94188C28.7987 4.46419 28.5217 4.05299 28.1718 3.70826C27.8121 3.36353 27.4015 3.09514 26.9398 2.90308C26.4781 2.71102 25.9897 2.61499 25.4745 2.61499C22.2252 2.61499 19.7881 2.61499 18.1635 2.61499C16.538 2.61499 14.0999 2.61499 10.849 2.61499V0H25.5474C26.4125 0 27.2314 0.162512 28.0041 0.48754C28.7768 0.812568 29.4548 1.27056 30.038 1.86152C30.6212 2.44263 31.0756 3.12469 31.4012 3.90771C31.7268 4.69073 31.9999 6.30947 31.9999 7.18606V8.47587H29.4008C29.4008 8.18558 29.4032 7.133 29.4008 7.08017Z" fill="#933183"/>
<path d="M24.9022 29.4009C25.434 29.3911 26.5628 29.207 27.0405 29.0029C27.5181 28.7988 27.9293 28.5218 28.2741 28.1718C28.6188 27.8122 28.8872 27.4015 29.0793 26.9398C29.2713 26.4781 29.3673 25.9897 29.3673 25.4746V10.8491H31.9823V25.5475C31.9823 26.4125 31.8198 27.2314 31.4948 28.0042C31.1698 28.7769 30.7118 29.4549 30.1208 30.0381C29.5397 30.6213 28.8577 31.0757 28.0746 31.4013C27.2916 31.7269 25.6729 32 24.7963 32H23.5065V29.4009C23.7968 29.4009 24.8493 29.4033 24.9022 29.4009Z" fill="white"/>
<path d="M2.59909 24.902C2.60881 25.4339 2.79294 26.5626 2.99706 27.0403C3.20118 27.518 3.4782 27.9292 3.82811 28.274C4.18775 28.6187 4.59841 28.8871 5.06011 29.0791C5.52181 29.2712 6.01023 29.3672 6.52538 29.3672H21.1509V31.9822H6.45249C5.58741 31.9822 4.76852 31.8197 3.99578 31.4947C3.22305 31.1696 2.54509 30.7117 1.96189 30.1207C1.3787 29.5396 0.924296 28.8575 0.598678 28.0745C0.273059 27.2915 0 25.6727 0 24.7962V23.5063H2.59909C2.59909 23.7966 2.59666 24.8492 2.59909 24.902Z" fill="#76B515"/>
<path d="M8.47587 2.62881H7.08017C6.54831 2.63853 5.41958 2.82267 4.94188 3.02679C4.46419 3.23091 4.05299 3.50792 3.70826 3.85784C3.36353 4.21748 3.09514 4.62814 2.90308 5.08983C2.71102 5.55153 2.61499 6.03995 2.61499 6.55511C2.61499 8.50461 2.61499 9.96674 2.61499 10.9415C2.61499 13.2169 2.61499 16.6299 2.61499 21.1806C2.33866 21.1806 0.0973986 21.1806 0 21.1806L0 6.48221C0 5.61713 0.162512 4.79824 0.48754 4.02551C0.812568 3.25277 1.27056 2.57481 1.86152 1.99162C2.44263 1.40842 3.12469 0.95402 3.90771 0.628402C4.69073 0.302784 6.30947 0.0297241 7.18606 0.0297241C7.27826 0.0297241 8.47587 0.0297241 8.47587 0.0297241C8.47587 0.747631 8.47587 2.07586 8.47587 2.62881Z" fill="#FD5C02"/>
<path d="M18.0444 23H14.9556V11.4706H11V9H22V11.4706H18.0444V23Z" fill="white"/>
<rect x="40" y="3" width="34" height="12" rx="6" fill="#3949AB"/>
<path d="M46.7744 12C46.6222 12 46.4993 11.9611 46.4057 11.8833C46.3179 11.8056 46.274 11.6972 46.274 11.5583V6.825H44.4741C44.3219 6.825 44.2049 6.79444 44.1229 6.73333C44.041 6.66667 44 6.575 44 6.45833C44 6.33611 44.041 6.24444 44.1229 6.18333C44.2049 6.11667 44.3219 6.08333 44.4741 6.08333H49.0747C49.2269 6.08333 49.3439 6.11667 49.4259 6.18333C49.5137 6.24444 49.5576 6.33611 49.5576 6.45833C49.5576 6.575 49.5137 6.66667 49.4259 6.73333C49.3439 6.79444 49.2269 6.825 49.0747 6.825H47.2748V11.5583C47.2748 11.6917 47.228 11.8 47.1344 11.8833C47.0466 11.9611 46.9266 12 46.7744 12Z" fill="white"/>
<path d="M51.7112 11.9167C51.2956 11.9167 50.9707 11.8139 50.7366 11.6083C50.5083 11.3972 50.3942 11.1056 50.3942 10.7333V7.24167C50.3942 6.88056 50.5054 6.59722 50.7278 6.39167C50.9502 6.18611 51.2605 6.08333 51.6585 6.08333H54.389C54.5412 6.08333 54.6582 6.11667 54.7402 6.18333C54.8221 6.24444 54.8631 6.33611 54.8631 6.45833C54.8631 6.575 54.8221 6.66667 54.7402 6.73333C54.6582 6.79444 54.5412 6.825 54.389 6.825H51.799C51.6702 6.825 51.5707 6.86389 51.5004 6.94167C51.4302 7.01944 51.3951 7.125 51.3951 7.25833V8.56667H53.7217C53.8739 8.56667 53.991 8.6 54.0729 8.66667C54.1549 8.72778 54.1958 8.81944 54.1958 8.94167C54.1958 9.05833 54.1549 9.15 54.0729 9.21667C53.991 9.27778 53.8739 9.30833 53.7217 9.30833H51.3951V10.7417C51.3951 10.875 51.4302 10.9806 51.5004 11.0583C51.5707 11.1361 51.6702 11.175 51.799 11.175H54.5821C54.7343 11.175 54.8514 11.2083 54.9333 11.275C55.0153 11.3361 55.0562 11.4278 55.0562 11.55C55.0562 11.6667 55.0153 11.7583 54.9333 11.825C54.8514 11.8861 54.7343 11.9167 54.5821 11.9167H51.7112Z" fill="white"/>
<path d="M56.4922 11.9917C56.34 11.9917 56.22 11.9528 56.1322 11.875C56.0444 11.7972 56.0005 11.6889 56.0005 11.55V8.51667C56.0005 7.72778 56.2376 7.11111 56.7117 6.66667C57.1858 6.22222 57.8443 6 58.6872 6C59.2374 6 59.7144 6.10278 60.1183 6.30833C60.5221 6.50833 60.8294 6.79722 61.0401 7.175C61.2567 7.55278 61.365 8 61.365 8.51667V11.55C61.365 11.6889 61.3211 11.7972 61.2333 11.875C61.1455 11.9528 61.0255 11.9917 60.8733 11.9917C60.7211 11.9917 60.5982 11.9528 60.5046 11.875C60.4109 11.7917 60.3641 11.6833 60.3641 11.55V10.0167H57.0014V11.55C57.0014 11.6833 56.9546 11.7917 56.861 11.875C56.7673 11.9528 56.6444 11.9917 56.4922 11.9917ZM60.3641 9.275V8.49167C60.3641 7.925 60.2207 7.49444 59.9339 7.2C59.6529 6.90556 59.2374 6.75833 58.6872 6.75833C58.1311 6.75833 57.7097 6.90556 57.4229 7.2C57.1419 7.48889 57.0014 7.91944 57.0014 8.49167V9.275H60.3641Z" fill="white"/>
<path d="M62.9235 12C62.7713 12 62.6484 11.9611 62.5548 11.8833C62.467 11.8056 62.4231 11.6972 62.4231 11.5583V8.00833C62.4231 7.38056 62.6104 6.88889 62.985 6.53333C63.3654 6.17778 63.8834 6 64.539 6C64.8726 6 65.1858 6.08056 65.4784 6.24167C65.7769 6.40278 66.0198 6.625 66.2071 6.90833C66.3944 6.61944 66.6344 6.39722 66.9271 6.24167C67.2197 6.08056 67.5417 6 67.8929 6C68.5543 6 69.0693 6.17778 69.4381 6.53333C69.8127 6.88889 70 7.38056 70 8.00833V11.5583C70 11.6917 69.9532 11.8 69.8595 11.8833C69.7717 11.9611 69.6517 12 69.4996 12C69.3474 12 69.2245 11.9611 69.1308 11.8833C69.043 11.8056 68.9991 11.6972 68.9991 11.5583V8.00833C68.9991 7.58056 68.9084 7.26667 68.7269 7.06667C68.5513 6.86667 68.2616 6.76667 67.8577 6.76667C67.489 6.76667 67.2051 6.875 67.0061 7.09167C66.8071 7.30833 66.7076 7.61389 66.7076 8.00833V11.5583C66.7076 11.6972 66.6608 11.8056 66.5671 11.8833C66.4793 11.9611 66.3593 12 66.2071 12C66.055 12 65.935 11.9611 65.8472 11.8833C65.7652 11.8056 65.7243 11.6972 65.7243 11.5583V8.00833C65.7243 7.61944 65.6218 7.31667 65.417 7.1C65.2121 6.87778 64.9312 6.76667 64.5741 6.76667C64.1644 6.76667 63.8688 6.86667 63.6874 7.06667C63.5118 7.26667 63.424 7.58056 63.424 8.00833V11.5583C63.424 11.6917 63.3771 11.8 63.2835 11.8833C63.1957 11.9611 63.0757 12 62.9235 12Z" fill="white"/>
<path d="M40.813 29C40.5271 29 40.2983 28.9259 40.1268 28.7778C39.9553 28.6296 39.8695 28.4259 39.8695 28.1667V21.1944C39.8695 20.5463 40.0601 20.0417 40.4413 19.6806C40.832 19.3194 41.3704 19.1389 42.0566 19.1389H44.4724C45.9209 19.1389 47.0216 19.4306 47.7744 20.0139C48.5273 20.5972 48.9037 21.4537 48.9037 22.5833C48.9037 23.713 48.5368 24.5694 47.803 25.1528C47.0692 25.7361 45.9876 26.0278 44.5582 26.0278H41.7707V28.1667C41.7707 28.4167 41.6802 28.6204 41.4991 28.7778C41.3276 28.9259 41.0988 29 40.813 29ZM44.5439 24.5972C46.1734 24.5972 46.9882 23.9259 46.9882 22.5833C46.9882 21.2407 46.1734 20.5694 44.5439 20.5694H42.3854C42.1948 20.5694 42.0423 20.6296 41.9279 20.75C41.8231 20.8704 41.7707 21.037 41.7707 21.25V24.5972H44.5439Z" fill="white"/>
<path d="M50.3671 21.1944C50.3671 20.5463 50.5577 20.0417 50.9389 19.6806C51.3296 19.3194 51.8681 19.1389 52.5542 19.1389H55.0987C56.5186 19.1389 57.5907 19.4074 58.315 19.9444C59.0392 20.4815 59.4014 21.2824 59.4014 22.3472C59.4014 23.338 59.0964 24.1111 58.4865 24.6667C57.8861 25.2222 57.0761 25.5 56.0564 25.5L58.2292 27.5972C58.4007 27.7639 58.4865 27.9537 58.4865 28.1667C58.4865 28.3889 58.3864 28.5833 58.1863 28.75C57.9767 28.9074 57.7718 28.9861 57.5716 28.9861C57.2953 28.9861 57.0427 28.8657 56.814 28.625L53.7264 25.5556H52.2683V28.1667C52.2683 28.4259 52.1778 28.6296 51.9967 28.7778C51.8157 28.9259 51.5869 29 51.3106 29C51.0247 29 50.796 28.9259 50.6244 28.7778C50.4529 28.6296 50.3671 28.4259 50.3671 28.1667V21.1944ZM55.0415 24.125C55.6705 24.125 56.1612 24.0648 56.5138 23.9444C56.8664 23.8241 57.1142 23.6389 57.2572 23.3889C57.4096 23.1296 57.4859 22.7824 57.4859 22.3472C57.4859 21.7176 57.2857 21.2639 56.8855 20.9861C56.4948 20.7083 55.8801 20.5694 55.0415 20.5694H52.883C52.6924 20.5694 52.5399 20.6296 52.4256 20.75C52.3207 20.8704 52.2683 21.037 52.2683 21.25V24.125H55.0415Z" fill="white"/>
<path d="M65.7051 29C64.5901 29 63.6276 28.7917 62.8176 28.375C62.0171 27.9491 61.4071 27.3611 60.9878 26.6111C60.5685 25.8519 60.3589 24.9815 60.3589 24C60.3589 23.0185 60.5685 22.1528 60.9878 21.4028C61.4071 20.6435 62.0171 20.0556 62.8176 19.6389C63.6276 19.213 64.5901 19 65.7051 19C66.8201 19 67.7778 19.213 68.5783 19.6389C69.3883 20.0556 70.003 20.6435 70.4223 21.4028C70.8416 22.1528 71.0513 23.0185 71.0513 24C71.0513 24.9815 70.8416 25.8519 70.4223 26.6111C70.003 27.3611 69.3883 27.9491 68.5783 28.375C67.7778 28.7917 66.8201 29 65.7051 29ZM65.7051 27.5417C66.7915 27.5417 67.6348 27.2269 68.2352 26.5972C68.8356 25.9583 69.1358 25.0926 69.1358 24C69.1358 22.8981 68.8213 22.0324 68.1923 21.4028C67.5729 20.7731 66.6962 20.4583 65.5621 20.4583C64.5234 20.4583 63.7134 20.7824 63.132 21.4306C62.5603 22.0694 62.2744 22.9259 62.2744 24C62.2744 25.0926 62.5745 25.9583 63.1749 26.5972C63.7753 27.2269 64.6187 27.5417 65.7051 27.5417Z" fill="white"/>
<path d="M75.4924 29C74.7301 29 74.0201 28.8611 73.3625 28.5833C72.705 28.2963 72.1713 27.8981 71.7615 27.3889C71.6377 27.2315 71.5757 27.0694 71.5757 26.9028C71.5757 26.6806 71.6853 26.4769 71.9045 26.2917C72.057 26.1713 72.2333 26.1111 72.4334 26.1111C72.7193 26.1111 72.9718 26.25 73.191 26.5278C73.4292 26.8426 73.7485 27.088 74.1487 27.2639C74.5585 27.4398 75.0064 27.5278 75.4924 27.5278C76.0738 27.5278 76.5026 27.3704 76.779 27.0556C77.0553 26.7407 77.1935 26.2593 77.1935 25.6111V19.8333C77.1935 19.5741 77.2793 19.3704 77.4508 19.2222C77.6223 19.0741 77.8511 19 78.137 19C78.4228 19 78.6516 19.0787 78.8231 19.2361C79.0042 19.3843 79.0947 19.5833 79.0947 19.8333V25.5556C79.0947 26.25 78.947 26.8565 78.6516 27.375C78.3561 27.8935 77.9368 28.2963 77.3936 28.5833C76.8504 28.8611 76.2167 29 75.4924 29Z" fill="white"/>
<path d="M82.9048 28.8611C82.1805 28.8611 81.6183 28.6759 81.218 28.3056C80.8178 27.9352 80.6176 27.4167 80.6176 26.75V21.1944C80.6176 20.5463 80.8082 20.0417 81.1894 19.6806C81.5801 19.3194 82.1186 19.1389 82.8047 19.1389H87.2504C87.5362 19.1389 87.7554 19.2037 87.9079 19.3333C88.0604 19.4537 88.1366 19.6296 88.1366 19.8611C88.1366 20.0833 88.0556 20.2593 87.8936 20.3889C87.7411 20.5093 87.5267 20.5694 87.2504 20.5694H83.1335C82.9429 20.5694 82.7904 20.6296 82.6761 20.75C82.5712 20.8704 82.5188 21.037 82.5188 21.25V23.1806H86.164C86.4498 23.1806 86.669 23.2454 86.8215 23.375C86.974 23.4954 87.0502 23.6713 87.0502 23.9028C87.0502 24.125 86.9692 24.3009 86.8072 24.4306C86.6547 24.5509 86.4403 24.6111 86.164 24.6111H82.5188V26.75C82.5188 26.963 82.5712 27.1296 82.6761 27.25C82.7904 27.3704 82.9429 27.4306 83.1335 27.4306H87.5648C87.8507 27.4306 88.0699 27.4954 88.2224 27.625C88.3749 27.7454 88.4511 27.9213 88.4511 28.1528C88.4511 28.375 88.3701 28.5509 88.2081 28.6806C88.0556 28.8009 87.8412 28.8611 87.5648 28.8611H82.9048Z" fill="white"/>
<path d="M94.3758 29C93.2989 29 92.365 28.8009 91.574 28.4028C90.7831 28.0046 90.1779 27.4306 89.7586 26.6806C89.3393 25.9306 89.1296 25.0417 89.1296 24.0139C89.1296 22.9861 89.3393 22.0972 89.7586 21.3472C90.1779 20.588 90.7783 20.0093 91.5597 19.6111C92.3507 19.2037 93.2799 19 94.3472 19C95.2335 19 96.053 19.1481 96.8059 19.4444C97.5587 19.7407 98.1162 20.1343 98.4784 20.625C98.5927 20.7731 98.6499 20.9259 98.6499 21.0833C98.6499 21.3148 98.5212 21.5231 98.2639 21.7083C98.1496 21.7917 98.0066 21.8333 97.8351 21.8333C97.6921 21.8333 97.5492 21.8056 97.4062 21.75C97.2633 21.6852 97.1442 21.5972 97.0489 21.4861C96.7249 21.125 96.3484 20.8657 95.9196 20.7083C95.4908 20.5417 94.9666 20.4583 94.3472 20.4583C93.3085 20.4583 92.4984 20.7731 91.9171 21.4028C91.3358 22.0231 91.0451 22.8935 91.0451 24.0139C91.0451 25.125 91.3358 25.9907 91.9171 26.6111C92.5079 27.2315 93.3275 27.5417 94.3758 27.5417C95.5765 27.5417 96.5343 27.1991 97.249 26.5139C97.5444 26.2454 97.816 26.1111 98.0638 26.1111C98.2353 26.1111 98.3926 26.1667 98.5355 26.2778C98.7547 26.463 98.8643 26.6667 98.8643 26.8889C98.8643 27.0556 98.8024 27.2176 98.6785 27.375C98.2687 27.8843 97.6826 28.2824 96.9202 28.5694C96.1674 28.8565 95.3192 29 94.3758 29Z" fill="white"/>
<path d="M103.986 29C103.7 29 103.471 28.9259 103.3 28.7778C103.128 28.6296 103.042 28.4259 103.042 28.1667V20.5694H100.283C100.007 20.5694 99.7879 20.5093 99.6259 20.3889C99.4735 20.2593 99.3972 20.0833 99.3972 19.8611C99.3972 19.6296 99.4735 19.4537 99.6259 19.3333C99.7784 19.2037 99.9976 19.1389 100.283 19.1389H107.702C107.988 19.1389 108.207 19.2037 108.36 19.3333C108.512 19.4537 108.589 19.6296 108.589 19.8611C108.589 20.0833 108.508 20.2593 108.346 20.3889C108.193 20.5093 107.979 20.5694 107.702 20.5694H104.944V28.1667C104.944 28.4167 104.853 28.6204 104.672 28.7778C104.5 28.9259 104.272 29 103.986 29Z" fill="white"/>
<path d="M114.033 29C112.918 29 111.956 28.7917 111.146 28.375C110.345 27.9491 109.735 27.3611 109.316 26.6111C108.897 25.8519 108.687 24.9815 108.687 24C108.687 23.0185 108.897 22.1528 109.316 21.4028C109.735 20.6435 110.345 20.0556 111.146 19.6389C111.956 19.213 112.918 19 114.033 19C115.148 19 116.106 19.213 116.907 19.6389C117.717 20.0556 118.331 20.6435 118.751 21.4028C119.17 22.1528 119.379 23.0185 119.379 24C119.379 24.9815 119.17 25.8519 118.751 26.6111C118.331 27.3611 117.717 27.9491 116.907 28.375C116.106 28.7917 115.148 29 114.033 29ZM114.033 27.5417C115.12 27.5417 115.963 27.2269 116.563 26.5972C117.164 25.9583 117.464 25.0926 117.464 24C117.464 22.8981 117.15 22.0324 116.521 21.4028C115.901 20.7731 115.024 20.4583 113.89 20.4583C112.852 20.4583 112.042 20.7824 111.46 21.4306C110.888 22.0694 110.603 22.9259 110.603 24C110.603 25.0926 110.903 25.9583 111.503 26.5972C112.104 27.2269 112.947 27.5417 114.033 27.5417Z" fill="white"/>
<path d="M120.835 21.1944C120.835 20.5463 121.026 20.0417 121.407 19.6806C121.798 19.3194 122.336 19.1389 123.022 19.1389H125.567C126.987 19.1389 128.059 19.4074 128.783 19.9444C129.507 20.4815 129.87 21.2824 129.87 22.3472C129.87 23.338 129.565 24.1111 128.955 24.6667C128.354 25.2222 127.544 25.5 126.525 25.5L128.697 27.5972C128.869 27.7639 128.955 27.9537 128.955 28.1667C128.955 28.3889 128.855 28.5833 128.654 28.75C128.445 28.9074 128.24 28.9861 128.04 28.9861C127.763 28.9861 127.511 28.8657 127.282 28.625L124.195 25.5556H122.736V28.1667C122.736 28.4259 122.646 28.6296 122.465 28.7778C122.284 28.9259 122.055 29 121.779 29C121.493 29 121.264 28.9259 121.093 28.7778C120.921 28.6296 120.835 28.4259 120.835 28.1667V21.1944ZM125.51 24.125C126.139 24.125 126.629 24.0648 126.982 23.9444C127.335 23.8241 127.582 23.6389 127.725 23.3889C127.878 23.1296 127.954 22.7824 127.954 22.3472C127.954 21.7176 127.754 21.2639 127.354 20.9861C126.963 20.7083 126.348 20.5694 125.51 20.5694H123.351C123.161 20.5694 123.008 20.6296 122.894 20.75C122.789 20.8704 122.736 21.037 122.736 21.25V24.125H125.51Z" fill="white"/>
</svg>
