<svg width="104" height="50" viewBox="0 0 104 50" fill="none" xmlns="http://www.w3.org/2000/svg">
  <path d="M46.0328 11.0628C46.0176 10.2317 45.7293 8.46809 45.4097 7.72169C45.0901 6.9753 44.6564 6.33279 44.1085 5.79416C43.5455 5.25552 42.9025 4.83616 42.1796 4.53606C41.4567 4.23596 40.692 4.08592 39.8854 4.08592C34.798 4.08592 30.9823 4.08592 28.4386 4.08592C25.8937 4.08592 22.0763 4.08592 16.9864 4.08592V0H39.9996C41.354 0 42.6362 0.253925 43.846 0.761781C45.0559 1.26964 46.1174 1.98524 47.0305 2.90862C47.9436 3.81661 48.655 4.88232 49.1649 6.10579C49.6747 7.32927 50.1022 9.85854 50.1022 11.2282V13.2435H46.0328C46.0328 12.79 46.0366 11.1453 46.0328 11.0628Z" fill="#A4087D"/>
  <path d="M4.06937 38.9095C4.08459 39.7406 4.37289 41.5042 4.69248 42.2506C5.01207 42.997 5.44579 43.6395 5.99365 44.1782C6.55674 44.7168 7.19971 45.1362 7.92258 45.4362C8.64546 45.7363 9.41017 45.8864 10.2168 45.8864H33.1158V49.9723H10.1026C8.74817 49.9723 7.46604 49.7184 6.25617 49.2105C5.0463 48.7027 3.98483 47.9871 3.07172 47.0637C2.15862 46.1557 1.44716 45.09 0.937346 43.8665C0.427527 42.643 0 40.1138 0 38.7441V36.7288H4.06937C4.06937 37.1823 4.06558 38.827 4.06937 38.9095Z" fill="#76B515"/>
  <path d="M13.2706 4.09998H11.0854C10.2526 4.11517 8.4854 4.40288 7.73747 4.72182C6.98955 5.04076 6.34573 5.47359 5.806 6.02034C5.26626 6.58227 4.84604 7.22393 4.54533 7.94533C4.24462 8.66674 4.09427 9.42989 4.09427 10.2348C4.09427 13.2809 4.09427 15.5655 4.09427 17.0885C4.09427 20.6438 4.09427 25.9767 4.09427 33.0872C3.66163 33.0872 0.152496 33.0872 0 33.0872L0 10.1209C0 8.76924 0.254444 7.48972 0.763338 6.28232C1.27223 5.07492 1.9893 4.01561 2.91456 3.10437C3.82441 2.19312 4.8923 1.48312 6.11827 0.974344C7.34425 0.465565 9.87869 0.0389099 11.2512 0.0389099C11.3955 0.0389099 13.2706 0.0389099 13.2706 0.0389099C13.2706 1.16064 13.2706 3.23599 13.2706 4.09998Z" fill="#FD5C02"/>
  <path d="M14.3277 29.6024V35.6061H11.5143V19.4484H17.7082C19.517 19.4484 20.9515 19.9182 22.0116 20.8577C23.0791 21.7973 23.6129 23.0402 23.6129 24.5864C23.6129 26.1696 23.0902 27.4014 22.045 28.2818C21.0071 29.1622 19.5504 29.6024 17.6748 29.6024H14.3277ZM14.3277 27.3497H17.7082C18.709 27.3497 19.4725 27.1166 19.9989 26.6505C20.5252 26.177 20.7884 25.4964 20.7884 24.6086C20.7884 23.7356 20.5215 23.0402 19.9878 22.5223C19.454 21.9971 18.7201 21.727 17.786 21.7122H14.3277V27.3497Z" fill="#00227B"/>
  <path d="M32.1197 26.0624C31.7638 26.0032 31.3969 25.9736 31.0188 25.9736C29.7808 25.9736 28.9468 26.4471 28.5168 27.3941V35.6061H25.8146V23.5988H28.3945L28.4612 24.9415C29.1136 23.8984 30.018 23.3768 31.1745 23.3768C31.56 23.3768 31.8787 23.4286 32.1308 23.5322L32.1197 26.0624Z" fill="#00227B"/>
  <path d="M32.9203 29.4914C32.9203 28.3151 33.1538 27.2572 33.6209 26.3176C34.0879 25.3706 34.744 24.6456 35.5891 24.1425C36.4342 23.6321 37.4054 23.3768 38.5025 23.3768C40.1261 23.3768 41.4419 23.8984 42.4501 24.9415C43.4658 25.9847 44.0143 27.3682 44.0959 29.0919L44.107 29.7245C44.107 30.9082 43.8772 31.9661 43.4176 32.8983C42.9654 33.8305 42.313 34.5518 41.4605 35.0623C40.6153 35.5728 39.6368 35.828 38.5248 35.828C36.8271 35.828 35.4668 35.2657 34.4437 34.1412C33.4281 33.0093 32.9203 31.5038 32.9203 29.6246V29.4914ZM35.6225 29.7245C35.6225 30.96 35.8782 31.9291 36.3897 32.632C36.9013 33.3274 37.6129 33.6751 38.5248 33.6751C39.4366 33.6751 40.1446 33.32 40.6487 32.6098C41.1602 31.8996 41.416 30.8601 41.416 29.4914C41.416 28.2781 41.1528 27.3164 40.6265 26.6061C40.1075 25.8959 39.3996 25.5408 38.5025 25.5408C37.6204 25.5408 36.9198 25.8922 36.4009 26.595C35.8819 27.2905 35.6225 28.3336 35.6225 29.7245Z" fill="#00227B"/>
  <path d="M49.2111 23.5988V36.6714C49.2111 37.8995 48.9034 38.8354 48.2881 39.479C47.6802 40.1301 46.7869 40.4556 45.6082 40.4556C45.1115 40.4556 44.6334 40.3927 44.1737 40.2669V38.1362C44.4554 38.2028 44.7742 38.2361 45.13 38.2361C46.0271 38.2361 46.4867 37.7478 46.5089 36.7713V23.5988H49.2111ZM46.2754 20.4804C46.2754 20.0661 46.4051 19.7221 46.6646 19.4484C46.9315 19.1746 47.3096 19.0378 47.7988 19.0378C48.2881 19.0378 48.6662 19.1746 48.9331 19.4484C49.2 19.7221 49.3334 20.0661 49.3334 20.4804C49.3334 20.8873 49.2 21.2276 48.9331 21.5014C48.6662 21.7677 48.2881 21.9009 47.7988 21.9009C47.3096 21.9009 46.9315 21.7677 46.6646 21.5014C46.4051 21.2276 46.2754 20.8873 46.2754 20.4804Z" fill="#00227B"/>
  <path d="M57.4065 35.828C55.694 35.828 54.304 35.2916 53.2365 34.2189C52.1764 33.1388 51.6464 31.7035 51.6464 29.9131V29.5802C51.6464 28.3817 51.8762 27.3127 52.3358 26.3731C52.8028 25.4261 53.4552 24.69 54.2929 24.1647C55.1306 23.6395 56.0647 23.3768 57.0951 23.3768C58.7335 23.3768 59.9975 23.8984 60.8871 24.9415C61.7841 25.9847 62.2326 27.4606 62.2326 29.3694V30.4569H54.3708C54.4523 31.4483 54.7822 32.2325 55.3604 32.8095C55.9461 33.3866 56.68 33.6751 57.5622 33.6751C58.8002 33.6751 59.8084 33.1757 60.5868 32.177L62.0435 33.5642C61.5617 34.2818 60.9167 34.8403 60.1087 35.2398C59.308 35.6319 58.4073 35.828 57.4065 35.828ZM57.084 25.5408C56.3427 25.5408 55.7422 25.7997 55.2826 26.3176C54.8304 26.8355 54.5413 27.5568 54.4152 28.4816H59.5638V28.2818C59.5045 27.3793 59.2635 26.6986 58.841 26.2399C58.4184 25.7738 57.8328 25.5408 57.084 25.5408Z" fill="#00227B"/>
  <path d="M69.2826 33.6751C69.9573 33.6751 70.517 33.4791 70.9618 33.087C71.4066 32.6949 71.6438 32.2103 71.6734 31.6332H74.2199C74.1903 32.3804 73.9567 33.0796 73.5194 33.7306C73.082 34.3743 72.4889 34.8847 71.7402 35.262C70.9914 35.6393 70.1834 35.828 69.316 35.828C67.6332 35.828 66.2988 35.2842 65.3128 34.1967C64.3268 33.1092 63.8339 31.6073 63.8339 29.6912V29.4138C63.8339 27.5864 64.3231 26.1253 65.3017 25.0303C66.2803 23.928 67.6147 23.3768 69.3049 23.3768C70.7357 23.3768 71.8996 23.7948 72.7966 24.6308C73.701 25.4594 74.1754 26.5507 74.2199 27.9045H71.6734C71.6438 27.2165 71.4066 26.6505 70.9618 26.2066C70.5244 25.7627 69.9647 25.5408 69.2826 25.5408C68.4079 25.5408 67.7333 25.8589 67.2588 26.4952C66.7844 27.124 66.5434 28.0821 66.536 29.3694V29.8022C66.536 31.1042 66.7695 32.0771 67.2366 32.7208C67.711 33.357 68.3931 33.6751 69.2826 33.6751Z" fill="#00227B"/>
  <path d="M79.6465 20.6802V23.5988H81.7704V25.5963H79.6465V32.2991C79.6465 32.7577 79.7354 33.0907 79.9134 33.2978C80.0987 33.4976 80.4249 33.5974 80.8919 33.5974C81.2033 33.5974 81.5183 33.5605 81.8371 33.4865V35.5728C81.2218 35.7429 80.6287 35.828 80.0579 35.828C77.9822 35.828 76.9443 34.685 76.9443 32.3989V25.5963H74.965V23.5988H76.9443V20.6802H79.6465Z" fill="#00227B"/>
  <path d="M83.0047 29.4914C83.0047 28.3151 83.2382 27.2572 83.7053 26.3176C84.1723 25.3706 84.8284 24.6456 85.6735 24.1425C86.5186 23.6321 87.4898 23.3768 88.5869 23.3768C90.2105 23.3768 91.5263 23.8984 92.5345 24.9415C93.5502 25.9847 94.0987 27.3682 94.1803 29.0919L94.1914 29.7245C94.1914 30.9082 93.9616 31.9661 93.502 32.8983C93.0498 33.8305 92.3974 34.5518 91.5449 35.0623C90.6997 35.5728 89.7212 35.828 88.6092 35.828C86.9115 35.828 85.5512 35.2657 84.5281 34.1412C83.5125 33.0093 83.0047 31.5038 83.0047 29.6246V29.4914ZM85.7069 29.7245C85.7069 30.96 85.9626 31.9291 86.4741 32.632C86.9857 33.3274 87.6973 33.6751 88.6092 33.6751C89.521 33.6751 90.229 33.32 90.7331 32.6098C91.2446 31.8996 91.5004 30.8601 91.5004 29.4914C91.5004 28.2781 91.2372 27.3164 90.7109 26.6061C90.1919 25.8959 89.4839 25.5408 88.5869 25.5408C87.7048 25.5408 87.0042 25.8922 86.4853 26.595C85.9663 27.2905 85.7069 28.3336 85.7069 29.7245Z" fill="#00227B"/>
  <path d="M102.776 26.0624C102.42 26.0032 102.053 25.9736 101.675 25.9736C100.437 25.9736 99.6031 26.4471 99.1732 27.3941V35.6061H96.471V23.5988H99.0508L99.1176 24.9415C99.7699 23.8984 100.674 23.3768 101.831 23.3768C102.216 23.3768 102.535 23.4286 102.787 23.5322L102.776 26.0624Z" fill="#00227B"/>
  <path d="M84.8632 11.4036H82.6756V17.4242H81.4661V11.4036H79.2977V10.4226H84.8632V11.4036Z" fill="#00227B"/>
  <path d="M87.5376 17.5204C86.7955 17.5204 86.1932 17.288 85.7306 16.8231C85.2712 16.3551 85.0415 15.7331 85.0415 14.9573V14.813C85.0415 14.2937 85.1411 13.8304 85.3403 13.4233C85.5427 13.0129 85.8254 12.6939 86.1884 12.4663C86.5514 12.2387 86.9561 12.1249 87.4027 12.1249C88.1126 12.1249 88.6603 12.3509 89.0458 12.8029C89.4345 13.255 89.6289 13.8946 89.6289 14.7217V15.1929H86.2221C86.2574 15.6225 86.4004 15.9624 86.6509 16.2124C86.9047 16.4625 87.2228 16.5875 87.605 16.5875C88.1415 16.5875 88.5784 16.3711 88.9157 15.9383L89.547 16.5394C89.3382 16.8504 89.0587 17.0924 88.7085 17.2655C88.3616 17.4355 87.9713 17.5204 87.5376 17.5204ZM87.3978 13.0626C87.0766 13.0626 86.8164 13.1748 86.6172 13.3992C86.4213 13.6237 86.296 13.9362 86.2414 14.337H88.4724V14.2504C88.4467 13.8593 88.3423 13.5643 88.1592 13.3656C87.9761 13.1636 87.7223 13.0626 87.3978 13.0626Z" fill="#00227B"/>
  <path d="M93.6573 17.4242C93.6059 17.3249 93.5609 17.163 93.5224 16.9385C93.1497 17.3265 92.6935 17.5204 92.1539 17.5204C91.6302 17.5204 91.203 17.3713 90.8721 17.0732C90.5412 16.775 90.3758 16.4064 90.3758 15.9672C90.3758 15.4125 90.5814 14.9878 90.9926 14.6928C91.407 14.3947 91.9981 14.2456 92.7658 14.2456H93.4838V13.9042C93.4838 13.6349 93.4083 13.4201 93.2573 13.2598C93.1063 13.0963 92.8767 13.0145 92.5683 13.0145C92.3016 13.0145 92.0832 13.0819 91.9129 13.2165C91.7427 13.3479 91.6575 13.5163 91.6575 13.7214H90.4866C90.4866 13.4361 90.5814 13.17 90.7709 12.9232C90.9604 12.6731 91.2174 12.4776 91.5419 12.3365C91.8696 12.1954 92.2342 12.1249 92.6357 12.1249C93.2461 12.1249 93.7328 12.2788 94.0958 12.5866C94.4588 12.8911 94.6451 13.3207 94.6547 13.8753V16.222C94.6547 16.6901 94.7206 17.0636 94.8523 17.3425V17.4242H93.6573ZM92.3707 16.5827C92.602 16.5827 92.8188 16.5266 93.0212 16.4144C93.2268 16.3022 93.381 16.1515 93.4838 15.9624V14.9813H92.8526C92.4189 14.9813 92.0928 15.0567 91.8744 15.2074C91.6559 15.358 91.5467 15.5712 91.5467 15.8469C91.5467 16.0714 91.6206 16.2509 91.7684 16.3855C91.9193 16.517 92.1201 16.5827 92.3707 16.5827Z" fill="#00227B"/>
  <path d="M96.9822 12.2211L97.0159 12.7645C97.3821 12.3381 97.8832 12.1249 98.5193 12.1249C99.2164 12.1249 99.6935 12.391 99.9504 12.9232C100.33 12.391 100.863 12.1249 101.55 12.1249C102.125 12.1249 102.553 12.2836 102.832 12.601C103.115 12.9184 103.259 13.3864 103.266 14.0052V17.4242H102.095V14.0388C102.095 13.7086 102.022 13.4666 101.878 13.3127C101.733 13.1588 101.494 13.0819 101.16 13.0819C100.893 13.0819 100.675 13.154 100.505 13.2983C100.338 13.4393 100.22 13.6253 100.153 13.8561L100.158 17.4242H98.9867V14.0003C98.9707 13.388 98.6574 13.0819 98.0471 13.0819C97.5781 13.0819 97.2456 13.2726 97.0496 13.6541V17.4242H95.8787V12.2211H96.9822Z" fill="#00227B"/>
</svg>
