<svg width="115" height="70" viewBox="0 0 115 70" fill="none" xmlns="http://www.w3.org/2000/svg">
<path d="M51.7284 21.8746C51.7137 21.0609 51.4362 19.334 51.1286 18.6032C50.821 17.8723 50.4035 17.2432 49.8762 16.7158C49.3342 16.1884 48.7153 15.7778 48.0195 15.484C47.3237 15.1901 46.5876 15.0432 45.8112 15.0432C40.9143 15.0432 37.2416 15.0432 34.7931 15.0432C32.3435 15.0432 28.669 15.0432 23.7698 15.0432V11.0425H45.9211C47.2248 11.0425 48.4589 11.2911 49.6235 11.7884C50.7881 12.2856 51.8098 12.9863 52.6887 13.8905C53.5676 14.7795 54.2524 15.823 54.7431 17.021C55.2339 18.2189 55.6454 20.6955 55.6454 22.0366V24.0099H51.7284C51.7284 23.5658 51.7321 21.9554 51.7284 21.8746Z" fill="#933183"/>
<path d="M11.3364 49.1407C11.3511 49.9544 11.6286 51.6813 11.9362 52.4121C12.2438 53.1429 12.6613 53.772 13.1886 54.2994C13.7306 54.8268 14.3495 55.2375 15.0453 55.5313C15.7411 55.8251 16.4772 55.9721 17.2536 55.9721H39.295V59.9728H17.1437C15.84 59.9728 14.6059 59.7242 13.4413 59.2269C12.2767 58.7296 11.255 58.0289 10.3761 57.1248C9.49721 56.2358 8.8124 55.1923 8.32167 53.9943C7.83095 52.7963 7.41943 50.3198 7.41943 48.9787V47.0054H11.3364C11.3364 47.4495 11.3327 49.0599 11.3364 49.1407Z" fill="#76B515"/>
<path d="M20.193 15.0584H18.0896C17.2881 15.0733 15.587 15.355 14.8671 15.6673C14.1472 15.9796 13.5275 16.4034 13.008 16.9387C12.4885 17.489 12.084 18.1172 11.7945 18.8236C11.5051 19.53 11.3604 20.2772 11.3604 21.0654C11.3604 24.0479 11.3604 26.2849 11.3604 27.7762C11.3604 31.2573 11.3604 36.479 11.3604 43.4412C10.9439 43.4412 7.56622 43.4412 7.41943 43.4412L7.41943 20.9538C7.41943 19.6303 7.66435 18.3775 8.15418 17.1953C8.64402 16.013 9.33423 14.9758 10.2248 14.0836C11.1006 13.1913 12.1285 12.4961 13.3086 11.998C14.4886 11.4998 16.9282 11.082 18.2492 11.082C18.3882 11.082 20.193 11.082 20.193 11.082C20.193 12.1804 20.193 14.2125 20.193 15.0584Z" fill="#FD5C02"/>
<path d="M20.2692 39.7661V46.7924H17.3118V27.8824H23.8229C25.7244 27.8824 27.2324 28.4322 28.3468 29.5318C29.469 30.6314 30.0301 32.0861 30.0301 33.8957C30.0301 35.7486 29.4807 37.1902 28.3819 38.2206C27.2908 39.2509 25.7595 39.7661 23.7878 39.7661H20.2692ZM20.2692 37.1296H23.8229C24.875 37.1296 25.6777 36.8569 26.231 36.3114C26.7843 35.7572 27.0609 34.9607 27.0609 33.9217C27.0609 32.9 26.7804 32.0861 26.2193 31.48C25.6582 30.8652 24.8867 30.5492 23.9047 30.5319H20.2692V37.1296Z" fill="white"/>
<path d="M38.9727 35.623C38.5986 35.5538 38.2128 35.5191 37.8154 35.5191C36.514 35.5191 35.6372 36.0733 35.1852 37.1816V46.7924H32.3446V32.7398H35.0566L35.1268 34.3113C35.8126 33.0904 36.7633 32.48 37.9791 32.48C38.3843 32.48 38.7194 32.5406 38.9844 32.6618L38.9727 35.623Z" fill="white"/>
<path d="M39.8143 39.6362C39.8143 38.2595 40.0598 37.0214 40.5508 35.9218C41.0417 34.8135 41.7314 33.9649 42.6198 33.3762C43.5083 32.7787 44.5291 32.48 45.6825 32.48C47.3892 32.48 48.7725 33.0904 49.8323 34.3113C50.9 35.5321 51.4767 37.1512 51.5624 39.1687L51.5741 39.909C51.5741 41.2943 51.3325 42.5325 50.8493 43.6234C50.374 44.7144 49.6882 45.5586 48.792 46.156C47.9036 46.7535 46.8749 47.0522 45.7059 47.0522C43.9213 47.0522 42.4913 46.3941 41.4158 45.0781C40.3482 43.7533 39.8143 41.9913 39.8143 39.7921V39.6362ZM42.6549 39.909C42.6549 41.3549 42.9238 42.4892 43.4615 43.3117C43.9992 44.1256 44.7474 44.5326 45.7059 44.5326C46.6645 44.5326 47.4087 44.117 47.9386 43.2858C48.4763 42.4545 48.7452 41.238 48.7452 39.6362C48.7452 38.2162 48.4686 37.0906 47.9152 36.2594C47.3697 35.4282 46.6255 35.0126 45.6825 35.0126C44.7551 35.0126 44.0187 35.4239 43.4732 36.2464C42.9277 37.0603 42.6549 38.2812 42.6549 39.909Z" fill="white"/>
<path d="M56.9396 32.7398V48.0392C56.9396 49.4765 56.6162 50.5718 55.9694 51.3251C55.3304 52.0871 54.3913 52.468 53.1522 52.468C52.6301 52.468 52.1274 52.3944 51.6442 52.2472V49.7536C51.9404 49.8315 52.2755 49.8705 52.6496 49.8705C53.5925 49.8705 54.0757 49.299 54.0991 48.1561V32.7398H56.9396ZM53.8536 29.0902C53.8536 28.6054 53.99 28.2028 54.2627 27.8824C54.5433 27.562 54.9407 27.4018 55.4551 27.4018C55.9694 27.4018 56.3669 27.562 56.6474 27.8824C56.928 28.2028 57.0682 28.6054 57.0682 29.0902C57.0682 29.5665 56.928 29.9647 56.6474 30.2851C56.3669 30.5968 55.9694 30.7527 55.4551 30.7527C54.9407 30.7527 54.5433 30.5968 54.2627 30.2851C53.99 29.9647 53.8536 29.5665 53.8536 29.0902Z" fill="white"/>
<path d="M65.5549 47.0522C63.7547 47.0522 62.2935 46.4244 61.1713 45.169C60.0569 43.9048 59.4997 42.2251 59.4997 40.1298V39.7401C59.4997 38.3375 59.7413 37.0863 60.2244 35.9867C60.7154 34.8784 61.4012 34.0169 62.2818 33.4021C63.1624 32.7874 64.1444 32.48 65.2276 32.48C66.9499 32.48 68.2786 33.0904 69.2138 34.3113C70.1567 35.5321 70.6282 37.2595 70.6282 39.4934V40.7661H62.3636C62.4494 41.9264 62.7962 42.8442 63.404 43.5195C64.0197 44.1949 64.7912 44.5326 65.7186 44.5326C67.02 44.5326 68.0799 43.9481 68.8982 42.7792L70.4295 44.4027C69.9229 45.2426 69.2449 45.8963 68.3955 46.3638C67.5538 46.8227 66.607 47.0522 65.5549 47.0522ZM65.2159 35.0126C64.4366 35.0126 63.8054 35.3157 63.3222 35.9218C62.8468 36.5278 62.5429 37.372 62.4104 38.4543H67.8227V38.2206C67.7604 37.1642 67.5071 36.3677 67.0629 35.8308C66.6187 35.2854 66.003 35.0126 65.2159 35.0126Z" fill="white"/>
<path d="M78.0395 44.5326C78.7486 44.5326 79.337 44.3031 79.8046 43.8442C80.2722 43.3853 80.5216 42.8182 80.5527 42.1428H83.2297C83.1985 43.0173 82.953 43.8356 82.4932 44.5975C82.0334 45.3508 81.41 45.9482 80.6229 46.3898C79.8358 46.8314 78.9863 47.0522 78.0745 47.0522C76.3055 47.0522 74.9027 46.4158 73.8662 45.143C72.8298 43.8702 72.3115 42.1125 72.3115 39.87V39.5453C72.3115 37.4067 72.8259 35.6966 73.8546 34.4152C74.8832 33.1251 76.286 32.48 78.0628 32.48C79.5669 32.48 80.7904 32.9692 81.7334 33.9476C82.6841 34.9174 83.1829 36.1945 83.2297 37.779H80.5527C80.5216 36.9738 80.2722 36.3114 79.8046 35.7919C79.3448 35.2724 78.7564 35.0126 78.0395 35.0126C77.1199 35.0126 76.4107 35.3849 75.9119 36.1296C75.4132 36.8655 75.1599 37.9868 75.1521 39.4934V39.9999C75.1521 41.5238 75.3976 42.6623 75.8886 43.4156C76.3873 44.1603 77.1043 44.5326 78.0395 44.5326Z" fill="white"/>
<path d="M88.9342 29.324V32.7398H91.1669V35.0776H88.9342V42.9221C88.9342 43.4589 89.0277 43.8486 89.2147 44.091C89.4096 44.3248 89.7525 44.4417 90.2434 44.4417C90.5707 44.4417 90.902 44.3984 91.2371 44.3118V46.7535C90.5902 46.9526 89.9668 47.0522 89.3667 47.0522C87.1846 47.0522 86.0936 45.7144 86.0936 43.039V35.0776H84.0129V32.7398H86.0936V29.324H88.9342Z" fill="white"/>
<path d="M92.4645 39.6362C92.4645 38.2595 92.7099 37.0214 93.2009 35.9218C93.6919 34.8135 94.3816 33.9649 95.27 33.3762C96.1584 32.7787 97.1793 32.48 98.3327 32.48C100.039 32.48 101.423 33.0904 102.482 34.3113C103.55 35.5321 104.127 37.1512 104.213 39.1687L104.224 39.909C104.224 41.2943 103.983 42.5325 103.499 43.6234C103.024 44.7144 102.338 45.5586 101.442 46.156C100.554 46.7535 99.525 47.0522 98.356 47.0522C96.5714 47.0522 95.1414 46.3941 94.0659 45.0781C92.9983 43.7533 92.4645 41.9913 92.4645 39.7921V39.6362ZM95.305 39.909C95.305 41.3549 95.5739 42.4892 96.1116 43.3117C96.6494 44.1256 97.3975 44.5326 98.356 44.5326C99.3146 44.5326 100.059 44.117 100.589 43.2858C101.126 42.4545 101.395 41.238 101.395 39.6362C101.395 38.2162 101.119 37.0906 100.565 36.2594C100.02 35.4282 99.2756 35.0126 98.3327 35.0126C97.4053 35.0126 96.6688 35.4239 96.1233 36.2464C95.5778 37.0603 95.305 38.2812 95.305 39.909Z" fill="white"/>
<path d="M113.249 35.623C112.875 35.5538 112.489 35.5191 112.091 35.5191C110.79 35.5191 109.913 36.0733 109.461 37.1816V46.7924H106.621V32.7398H109.333L109.403 34.3113C110.089 33.0904 111.039 32.48 112.255 32.48C112.66 32.48 112.995 32.5406 113.26 32.6618L113.249 35.623Z" fill="white"/>
<path d="M94.4182 18.4672H92.1185V25.5134H90.847V18.4672H88.5675V17.3191H94.4182V18.4672Z" fill="white"/>
<path d="M97.2296 25.626C96.4495 25.626 95.8163 25.354 95.33 24.8099C94.8471 24.2622 94.6056 23.5343 94.6056 22.6263V22.4574C94.6056 21.8496 94.7103 21.3075 94.9197 20.831C95.1324 20.3507 95.4296 19.9774 95.8112 19.711C96.1928 19.4446 96.6183 19.3114 97.0877 19.3114C97.834 19.3114 98.4098 19.5759 98.8151 20.1049C99.2237 20.634 99.428 21.3825 99.428 22.3505V22.9021H95.8467C95.8838 23.4048 96.0341 23.8025 96.2975 24.0952C96.5643 24.3878 96.8986 24.5342 97.3005 24.5342C97.8644 24.5342 98.3237 24.2809 98.6783 23.7744L99.3419 24.4779C99.1224 24.8418 98.8286 25.1251 98.4605 25.3277C98.0958 25.5266 97.6854 25.626 97.2296 25.626ZM97.0827 20.4089C96.745 20.4089 96.4714 20.5402 96.262 20.8028C96.056 21.0655 95.9243 21.4313 95.8669 21.9003H98.2123V21.799C98.1852 21.3412 98.0755 20.996 97.883 20.7634C97.6905 20.527 97.4237 20.4089 97.0827 20.4089Z" fill="white"/>
<path d="M103.663 25.5134C103.609 25.3971 103.561 25.2077 103.521 24.945C103.129 25.399 102.65 25.626 102.082 25.626C101.532 25.626 101.083 25.4515 100.735 25.1026C100.387 24.7537 100.213 24.3222 100.213 23.8082C100.213 23.1591 100.429 22.6619 100.862 22.3167C101.297 21.9678 101.919 21.7933 102.726 21.7933H103.48V21.3938C103.48 21.0786 103.401 20.8272 103.242 20.6396C103.084 20.4483 102.842 20.3526 102.518 20.3526C102.238 20.3526 102.008 20.4314 101.829 20.589C101.65 20.7428 101.561 20.9398 101.561 21.1799H100.33C100.33 20.846 100.429 20.5345 100.629 20.2456C100.828 19.953 101.098 19.7241 101.439 19.559C101.783 19.3939 102.167 19.3114 102.589 19.3114C103.23 19.3114 103.742 19.4915 104.124 19.8517C104.505 20.2081 104.701 20.7109 104.711 21.36V24.1064C104.711 24.6542 104.781 25.0913 104.919 25.4178V25.5134H103.663ZM102.31 24.5285C102.553 24.5285 102.781 24.4629 102.994 24.3316C103.21 24.2002 103.372 24.0239 103.48 23.8025V22.6544H102.817C102.361 22.6544 102.018 22.7426 101.789 22.9189C101.559 23.0953 101.444 23.3448 101.444 23.6675C101.444 23.9301 101.522 24.1402 101.677 24.2978C101.836 24.4516 102.047 24.5285 102.31 24.5285Z" fill="white"/>
<path d="M107.158 19.424L107.193 20.0599C107.578 19.5609 108.105 19.3114 108.774 19.3114C109.507 19.3114 110.008 19.6228 110.278 20.2456C110.677 19.6228 111.237 19.3114 111.96 19.3114C112.565 19.3114 113.014 19.4971 113.307 19.8686C113.605 20.24 113.757 20.7878 113.763 21.5119V25.5134H112.532V21.5513C112.532 21.1649 112.456 20.8816 112.305 20.7015C112.153 20.5214 111.901 20.4314 111.55 20.4314C111.269 20.4314 111.04 20.5158 110.861 20.6846C110.685 20.8497 110.562 21.0673 110.491 21.3375L110.496 25.5134H109.265V21.5063C109.248 20.7897 108.919 20.4314 108.277 20.4314C107.784 20.4314 107.435 20.6546 107.229 21.1011V25.5134H105.998V19.424H107.158Z" fill="white"/>
</svg>
