<svg width="101" height="58" viewBox="0 0 101 58" fill="none" xmlns="http://www.w3.org/2000/svg">
  <path d="M41.281 17.5904C41.2674 16.856 41.0088 15.2974 40.7222 14.6378C40.4356 13.9782 40.0467 13.4104 39.5554 12.9344C39.0504 12.4584 38.4738 12.0878 37.8256 11.8226C37.1773 11.5574 36.4915 11.4248 35.7682 11.4248C31.2059 11.4248 27.7841 11.4248 25.503 11.4248C23.2208 11.4248 19.7974 11.4248 15.233 11.4248V7.81396H35.8706C37.0852 7.81396 38.235 8.03836 39.3199 8.48717C40.4049 8.93597 41.3568 9.56837 42.1757 10.3844C42.9945 11.1868 43.6325 12.1286 44.0897 13.2098C44.5469 14.291 44.9303 16.5262 44.9303 17.7366V19.5176H41.281C41.281 19.1167 41.2844 17.6633 41.281 17.5904Z" fill="#933183"/>
  <path d="M3.6493 42.1991C3.66295 42.9335 3.92149 44.4921 4.20808 45.1517C4.49468 45.8113 4.88363 46.3791 5.37494 46.8551C5.8799 47.3311 6.45649 47.7017 7.10475 47.9669C7.753 48.2321 8.43878 48.3647 9.1621 48.3647H29.6973V51.9755H9.05974C7.84511 51.9755 6.69533 51.7511 5.61036 51.3023C4.52538 50.8535 3.57348 50.2211 2.75464 49.4051C1.93579 48.6027 1.29778 47.6609 0.840585 46.5797C0.383394 45.4985 0 43.2633 0 42.0529V40.2719H3.6493C3.6493 40.6727 3.64589 42.1262 3.6493 42.1991Z" fill="#76B515"/>
  <path d="M11.9007 11.4394H9.94105C9.19428 11.4528 7.60946 11.7071 6.93875 11.9889C6.26803 12.2708 5.69068 12.6533 5.20666 13.1364C4.72263 13.633 4.3458 14.2001 4.07613 14.8376C3.80646 15.4751 3.67163 16.1495 3.67163 16.8609C3.67163 19.5528 3.67163 21.5717 3.67163 22.9176C3.67163 26.0595 3.67163 30.7723 3.67163 37.056C3.28364 37.056 0.136754 37.056 0 37.056L0 16.7602C0 15.5657 0.228178 14.435 0.68454 13.368C1.1409 12.301 1.78395 11.3648 2.6137 10.5595C3.42962 9.75425 4.38728 9.12681 5.48669 8.67719C6.58611 8.22757 8.85893 7.85052 10.0897 7.85052C10.2192 7.85052 11.9007 7.85052 11.9007 7.85052C11.9007 8.84182 11.9007 10.6759 11.9007 11.4394Z" fill="#FD5C02"/>
  <path d="M20.3749 29.5535C20.3749 30.6925 19.9842 31.6417 19.2028 32.401C18.4344 33.1473 17.2558 33.5204 15.667 33.5204H13.0493V39.2352H11.2716V25.5473H15.667C17.2037 25.5473 18.3693 25.9204 19.1637 26.6667C19.9711 27.4129 20.3749 28.3752 20.3749 29.5535ZM15.667 32.0476C16.6567 32.0476 17.386 31.8315 17.8549 31.3995C18.3237 30.9675 18.5581 30.3521 18.5581 29.5535C18.5581 27.8646 17.5944 27.0202 15.667 27.0202H13.0493V32.0476H15.667Z" fill="white"/>
  <path d="M24.362 30.2212C24.6745 29.6059 25.1173 29.128 25.6903 28.7876C26.2764 28.4472 26.9862 28.277 27.8196 28.277V30.123H27.3508C25.3582 30.123 24.362 31.2097 24.362 33.383V39.2352H22.5843V28.4734H24.362V30.2212Z" fill="white"/>
  <path d="M34.5406 39.4119C33.5378 39.4119 32.6261 39.1828 31.8057 38.7246C30.9982 38.2663 30.3601 37.6183 29.8913 36.7804C29.4354 35.9294 29.2075 34.9475 29.2075 33.8346C29.2075 32.7349 29.4419 31.7661 29.9108 30.9282C30.3926 30.0772 31.0438 29.4291 31.8643 28.984C32.6847 28.5258 33.6029 28.2967 34.6187 28.2967C35.6345 28.2967 36.5527 28.5258 37.3731 28.984C38.1936 29.4291 38.8382 30.0706 39.3071 30.9085C39.7889 31.7464 40.0299 32.7218 40.0299 33.8346C40.0299 34.9475 39.7824 35.9294 39.2875 36.7804C38.8057 37.6183 38.148 38.2663 37.3145 38.7246C36.481 39.1828 35.5564 39.4119 34.5406 39.4119ZM34.5406 37.8408C35.1787 37.8408 35.7778 37.6903 36.3378 37.3892C36.8978 37.088 37.3471 36.6364 37.6857 36.0341C38.0373 35.4319 38.2131 34.6987 38.2131 33.8346C38.2131 32.9706 38.0438 32.2374 37.7052 31.6352C37.3666 31.0329 36.9238 30.5878 36.3768 30.2998C35.8299 29.9986 35.2373 29.8481 34.5992 29.8481C33.948 29.8481 33.3489 29.9986 32.8019 30.2998C32.268 30.5878 31.8382 31.0329 31.5126 31.6352C31.1871 32.2374 31.0243 32.9706 31.0243 33.8346C31.0243 34.7118 31.1806 35.4515 31.4931 36.0538C31.8187 36.656 32.2485 37.1077 32.7824 37.4088C33.3164 37.6968 33.9024 37.8408 34.5406 37.8408Z" fill="white"/>
  <path d="M56.9802 33.4419C56.9802 33.7823 56.9607 34.1423 56.9216 34.522H48.3653C48.4304 35.5824 48.7886 36.4138 49.4397 37.016C50.1039 37.6052 50.9048 37.8998 51.8425 37.8998C52.6109 37.8998 53.249 37.723 53.7569 37.3695C54.2779 37.0029 54.6425 36.5185 54.8509 35.9163H56.7653C56.4788 36.9506 55.9058 37.795 55.0462 38.4496C54.1867 39.0911 53.1188 39.4119 51.8425 39.4119C50.8267 39.4119 49.9151 39.1828 49.1076 38.7246C48.3132 38.2663 47.6881 37.6183 47.2323 36.7804C46.7765 35.9294 46.5486 34.9475 46.5486 33.8346C46.5486 32.7218 46.77 31.7464 47.2127 30.9085C47.6555 30.0706 48.2741 29.4291 49.0686 28.984C49.876 28.5258 50.8007 28.2967 51.8425 28.2967C52.8583 28.2967 53.7569 28.5192 54.5383 28.9644C55.3197 29.4095 55.9188 30.0248 56.3355 30.8104C56.7653 31.5828 56.9802 32.46 56.9802 33.4419ZM55.1439 33.0687C55.1439 32.388 54.9941 31.8054 54.6946 31.3209C54.3951 30.8234 53.9848 30.4503 53.4639 30.2016C52.956 29.9397 52.3895 29.8088 51.7644 29.8088C50.8658 29.8088 50.0974 30.0968 49.4593 30.6729C48.8341 31.2489 48.476 32.0476 48.3848 33.0687H55.1439Z" fill="white"/>
  <path d="M58.6625 33.8346C58.6625 32.7218 58.8839 31.753 59.3267 30.9282C59.7695 30.0903 60.3815 29.4422 61.1629 28.984C61.9574 28.5258 62.8625 28.2967 63.8783 28.2967C65.1936 28.2967 66.2746 28.6174 67.1211 29.2589C67.9806 29.9004 68.5471 30.7907 68.8206 31.9297H66.9062C66.7239 31.2751 66.3657 30.758 65.8318 30.3783C65.3108 29.9986 64.6597 29.8088 63.8783 29.8088C62.8625 29.8088 62.042 30.1623 61.4169 30.8693C60.7918 31.5631 60.4792 32.5516 60.4792 33.8346C60.4792 35.1308 60.7918 36.1323 61.4169 36.8393C62.042 37.5463 62.8625 37.8998 63.8783 37.8998C64.6597 37.8998 65.3108 37.7165 65.8318 37.3499C66.3527 36.9833 66.7109 36.4596 66.9062 35.7788H68.8206C68.5341 36.8786 67.9611 37.7623 67.1015 38.43C66.242 39.0846 65.1676 39.4119 63.8783 39.4119C62.8625 39.4119 61.9574 39.1828 61.1629 38.7246C60.3815 38.2663 59.7695 37.6183 59.3267 36.7804C58.8839 35.9425 58.6625 34.9606 58.6625 33.8346Z" fill="white"/>
  <path d="M73.361 29.9463V36.2894C73.361 36.8131 73.4717 37.1862 73.693 37.4088C73.9144 37.6183 74.2986 37.723 74.8456 37.723H76.1544V39.2352H74.5526C73.5628 39.2352 72.8205 39.006 72.3256 38.5478C71.8307 38.0896 71.5833 37.3368 71.5833 36.2894V29.9463H70.1963V28.4734H71.5833V25.7633H73.361V28.4734H76.1544V29.9463H73.361Z" fill="white"/>
  <path d="M92.5814 30.2212C92.894 29.6059 93.3368 29.128 93.9098 28.7876C94.4959 28.4472 95.2056 28.277 96.0391 28.277V30.123H95.5703C93.5777 30.123 92.5814 31.2097 92.5814 33.383V39.2352H90.8038V28.4734H92.5814V30.2212Z" fill="white"/>
  <path d="M44.7065 34.023L44.706 31.8042C44.4179 31.3933 44.118 30.8646 43.5664 30.6941C42.8499 30.4725 41.8891 30.6751 41.8329 30.6705C41.83 30.7059 41.829 30.7416 41.829 30.7778L41.8298 32.8892C41.8298 32.8892 42.5253 33.4663 43.2546 33.6846C43.8219 33.8543 44.4097 33.5997 44.7065 34.023V34.023Z" fill="#F9F8F9"/>
  <path d="M44.7078 38.1323L44.707 35.9133C44.4095 35.4888 43.8194 34.6941 43.2508 34.5244C42.523 34.3074 41.8303 34.7796 41.8303 34.7796L41.8308 36.9983C41.8308 36.9983 42.5536 37.5776 43.2982 37.8066C43.8522 37.9771 44.4184 37.7196 44.7078 38.1323V38.1323Z" fill="#F9F8F9"/>
  <path d="M44.7088 42.2414L44.7083 40.0227C44.4328 39.6296 43.9063 38.8442 43.3784 38.6729C42.6067 38.4226 41.8316 38.8884 41.8316 38.8884L41.8321 41.1077C41.8321 41.1077 42.4847 41.6816 43.1885 41.883C43.7763 42.0512 44.4 41.8011 44.7088 42.2414V42.2414Z" fill="#F9F8F9"/>
  <path d="M43.456 47.8487C43.4586 47.846 43.4607 47.8434 43.4634 47.8408C44.1403 47.0926 44.5858 46.1314 44.6873 45.0711C44.3624 44.4881 43.9394 43.5171 43.5174 43.1803C42.7653 42.5799 42.0165 42.8526 41.8324 42.7968L41.8332 44.5741C41.9836 44.6959 42.1696 45.3689 42.5856 46.2287C42.8173 46.7075 43.3013 47.0635 43.456 47.8487V47.8487Z" fill="#F9F8F9"/>
  <path d="M38.6265 46.0976C38.2743 45.801 38.028 45.3822 37.9533 44.9077C37.5825 45.182 36.3412 45.2965 36.3412 45.2965C36.3412 45.2965 35.5777 45.8467 35.2344 45.9135C35.4561 46.699 35.8723 47.4037 36.4272 47.9722C36.6581 47.8687 37.9605 47.4654 37.9605 47.4654C37.9605 47.4654 38.4194 46.5379 38.6265 46.0976Z" fill="#F9F8F9"/>
  <path d="M44.7058 31.8043L44.7056 30.7786C44.7051 29.9845 44.061 29.3404 43.2668 29.3399C42.5086 29.3396 41.8874 29.9263 41.8328 30.6706C41.9322 30.6787 44.0436 30.8594 44.7058 31.8043V31.8043Z" fill="#DC4955"/>
  <path d="M44.7069 35.9134L44.7064 34.023C44.0279 33.0555 41.8297 32.8892 41.8297 32.8892L41.8302 34.7796C41.8302 34.7796 44.0287 34.9456 44.7069 35.9134V35.9134Z" fill="#DC4955"/>
  <path d="M44.7082 40.0226L44.7077 38.1323C44.0292 37.1648 41.8307 36.9983 41.8307 36.9983L41.8315 38.8884C41.8315 38.8884 44.03 39.0549 44.7082 40.0226V40.0226Z" fill="#DC4955"/>
  <path d="M41.1563 49.2626C41.1563 49.2626 41.5378 48.309 41.4923 47.5176C41.4631 47.0105 41.104 46.7244 40.8646 46.2906C40.5761 46.4595 40.2402 46.5563 39.8819 46.5563C39.8001 46.5563 39.7196 46.5513 39.6404 46.5414C39.6593 46.9611 39.2303 47.2265 39.0257 47.7051C38.7267 48.4046 38.6089 49.2618 38.6089 49.2618C39.0149 49.3735 39.4424 49.4328 39.883 49.4328C40.3236 49.4328 40.7505 49.3735 41.1563 49.2626V49.2626Z" fill="#F9F8F9"/>
  <path d="M37.9533 44.9077C37.9378 44.8089 37.9297 44.7074 37.9297 44.6041L37.9294 43.8438C37.9291 43.0494 37.285 42.4053 36.4907 42.405C35.6963 42.4048 35.0524 43.0486 35.0529 43.8427L35.0532 44.603C35.0532 45.0509 35.1146 45.4847 35.2294 45.8965C35.231 45.9022 35.2326 45.908 35.2344 45.9135C35.9 45.784 37.1877 45.474 37.9533 44.9077V44.9077Z" fill="#DC4955"/>
  <path d="M38.6089 49.2617C38.6089 49.2617 39.6868 47.5744 39.6404 46.5413C39.2575 46.4936 38.9082 46.3347 38.6265 46.0976C38.1356 47.1414 36.8266 47.7931 36.4272 47.9722L36.4301 47.9751C37.0212 48.5809 37.7697 49.032 38.6089 49.2617V49.2617Z" fill="#DC4955"/>
  <path d="M43.4559 47.8488C43.0235 45.6539 42.0673 44.7638 41.8331 44.5742L41.8331 44.6051C41.8334 45.3235 41.4439 45.9521 40.8646 46.2907C41.4775 47.4013 41.1562 49.2626 41.1562 49.2626C42.0537 49.0176 42.8475 48.5191 43.4559 47.8488V47.8488Z" fill="#DC4955"/>
  <path d="M44.6873 45.0711C44.7022 44.9182 44.7096 44.763 44.7096 44.6061L44.7091 42.2416L44.7088 42.2414C44.0303 41.2739 41.8321 41.1076 41.8321 41.1076L41.8323 42.7968C42.1198 42.8839 43.783 43.4488 44.6873 45.0711Z" fill="#DC4955"/>
  <path d="M42.5756 32.9957L42.58 30.7778C42.1746 30.6996 41.8693 30.6734 41.8329 30.6705C41.83 30.7059 41.8289 30.7416 41.8289 30.7778L41.8297 32.8892C41.8297 32.8892 42.1457 32.9131 42.5756 32.9957Z" fill="#EFEDEF"/>
  <path d="M42.5726 37.104L42.5726 36.998L42.5721 34.8853C42.1446 34.8034 41.8302 34.7796 41.8302 34.7796L41.8307 36.9983C41.8307 36.9983 42.1451 37.0222 42.5726 37.104V37.104Z" fill="#EFEDEF"/>
  <path d="M42.574 41.2134L42.5734 38.9941C42.1457 38.9121 41.8315 38.8884 41.8315 38.8884L41.832 41.1077C41.832 41.1077 42.1462 41.1313 42.574 41.2134V41.2134Z" fill="#EFEDEF"/>
  <path d="M42.4782 45.3163C42.5414 45.0868 42.5747 44.8479 42.5747 44.6045L42.5739 43.1015C42.2154 42.9208 41.9353 42.828 41.8322 42.7968L41.833 44.5741C41.9387 44.6599 42.1921 44.8886 42.4782 45.3163V45.3163Z" fill="#EFEDEF"/>
  <path d="M38.2123 46.7173C38.3715 46.5356 38.5116 46.3352 38.6165 46.1186C38.6199 46.1115 38.623 46.1047 38.6264 46.0976C38.2742 45.801 38.028 45.3822 37.9532 44.9077C37.9472 44.9122 37.9414 44.9164 37.9351 44.9206C37.7421 45.0612 37.5171 45.1855 37.2776 45.2953C37.3988 45.7527 37.638 46.1681 37.9781 46.5083C38.0324 46.5626 38.0899 46.6153 38.1486 46.6651C38.1696 46.683 38.1911 46.7003 38.2123 46.7173V46.7173Z" fill="#EFEDEF"/>
  <path d="M42.5792 29.5145C42.1617 29.7422 41.8695 30.1707 41.8328 30.6706C41.8693 30.6735 42.1745 30.6997 42.58 30.7778L42.5802 30.6617L42.5792 29.5145Z" fill="#D82F3C"/>
  <path d="M42.5721 34.8853L42.5721 34.7793L42.5727 34.4919L42.5748 33.3889L42.5755 32.9957C42.1457 32.9131 41.8297 32.8893 41.8297 32.8893L41.8302 34.7796C41.8302 34.7796 42.1447 34.8035 42.5721 34.8853V34.8853Z" fill="#D82F3C"/>
  <path d="M42.5734 38.9941V38.6269L42.5726 37.4874V37.104C42.1452 37.0221 41.8307 36.9983 41.8307 36.9983L41.8315 38.8884C41.8315 38.8884 42.1457 38.912 42.5734 38.9941Z" fill="#D82F3C"/>
  <path d="M41.1232 46.9945C41.0655 46.7443 40.9821 46.5036 40.8646 46.2906C40.5761 46.4595 40.2401 46.5563 39.8819 46.5563C39.8001 46.5563 39.7196 46.5513 39.6404 46.5413C39.6409 46.5513 39.6411 46.561 39.6411 46.571C39.6464 46.786 39.6052 47.0276 39.536 47.2757C39.5397 47.2762 39.5438 47.2767 39.5475 47.2772C39.6569 47.2911 39.7691 47.298 39.8819 47.298C40.3152 47.298 40.7418 47.1938 41.1232 46.9945V46.9945Z" fill="#EFEDEF"/>
  <path d="M37.9532 44.9077C37.9377 44.8088 37.9296 44.7073 37.9296 44.604L37.9293 43.8437C37.9291 43.3446 37.6749 42.9048 37.2886 42.647L37.1879 44.604C37.1877 44.7438 37.1989 44.8846 37.2204 45.0231C37.2275 45.0685 37.2357 45.1138 37.2454 45.1587C37.2551 45.2046 37.2656 45.2502 37.2776 45.2953C37.5171 45.1854 37.7421 45.0611 37.9351 44.9206C37.9414 44.9164 37.9472 44.9122 37.9532 44.9077V44.9077Z" fill="#D82F3C"/>
  <path d="M39.5359 47.2757C39.6052 47.0276 39.6463 46.7861 39.6411 46.571C39.6411 46.5611 39.6408 46.5514 39.6403 46.5414C39.2574 46.4937 38.9081 46.3347 38.6264 46.0977C38.623 46.1047 38.6199 46.1116 38.6164 46.1186C38.5115 46.3353 38.3715 46.5356 38.2123 46.7174C38.2401 46.7394 38.2682 46.7606 38.2965 46.7811C38.6015 47.0038 38.9474 47.1587 39.3143 47.2377C39.3872 47.2534 39.4614 47.2663 39.5359 47.2757V47.2757Z" fill="#D82F3C"/>
  <path d="M42.3432 45.6942C42.3972 45.572 42.4426 45.4459 42.4783 45.3163C42.1921 44.8886 41.9388 44.6599 41.8331 44.5741L41.8331 44.6051C41.8334 45.3234 41.4439 45.952 40.8646 46.2906C40.9821 46.5036 41.0655 46.7443 41.1232 46.9945C41.1625 46.9746 41.2011 46.9533 41.2391 46.931C41.2519 46.9234 41.2648 46.9158 41.2774 46.908C41.7542 46.619 42.1229 46.1909 42.3432 45.6942V45.6942Z" fill="#D82F3C"/>
  <path d="M42.574 43.1016L42.574 42.7968L42.574 42.7926L42.5737 41.6201L42.574 41.2133C42.1463 41.1312 41.8321 41.1076 41.8321 41.1076L41.8323 42.7968C41.9354 42.828 42.2155 42.9209 42.574 43.1016V43.1016Z" fill="#D82F3C"/>
  <path d="M44.6591 26.1976C44.6591 26.9619 44.0396 27.5814 43.2753 27.5814C42.5111 27.5814 41.8915 26.9619 41.8915 26.1976C41.8915 25.4334 42.5111 24.8138 43.2753 24.8138C44.0396 24.8138 44.6591 25.4334 44.6591 26.1976Z" fill="white"/>
  <g clip-path="url(#clip0)">
    <path d="M84.4755 24.2957H83.1396L82.5458 25.6242L84.4755 25.1814V24.2957Z" fill="#ECE6F2"/>
    <path d="M81.8037 24.2957V25.1814L83.1396 25.6242V24.2957H81.8037Z" fill="#FFF5F5"/>
    <path d="M85.3661 28.582H83.1396L82.5458 26.5099H85.3661V28.582Z" fill="#FF884D"/>
    <path d="M80.9131 26.5099H83.1396V28.582H80.9131V26.5099Z" fill="#FFBB33"/>
    <path d="M84.4755 25.1814H83.1396L82.5458 26.51H84.4755V25.1814Z" fill="#D7CFE6"/>
    <path d="M81.8037 25.1814H83.1396V26.51H81.8037V25.1814Z" fill="#ECE6F2"/>
    <path d="M80.0224 26.0671H83.1395V26.9528H80.0224V26.0671Z" fill="#FFDD99"/>
    <path d="M83.1396 26.0671H86.2567V26.9528H83.1396V26.0671Z" fill="#FFBB33"/>
    <path d="M83.1396 27.8385L82.5458 33.6547L83.1396 39.4119C86.348 39.4119 88.9583 36.816 88.9583 33.6252C88.9583 30.4344 86.348 27.8385 83.1396 27.8385V27.8385Z" fill="#CC295F"/>
    <path d="M77.3209 33.6252C77.3209 36.816 79.9312 39.4119 83.1396 39.4119V27.8385C79.9312 27.8385 77.3209 30.4344 77.3209 33.6252Z" fill="#FF4D4D"/>
    <path d="M86.6029 34.1674L85.4907 34.4638L84.8555 34.0991C84.8978 33.9482 84.9208 33.7894 84.9208 33.6252C84.9208 33.4611 84.8978 33.3022 84.8555 33.1513L85.4907 32.7866L86.6029 33.083L86.8334 32.2275L85.9731 31.9982L86.2037 31.1427L85.3434 30.9134L85.0454 32.0195L84.4095 32.3846C84.1862 32.1586 83.9027 31.9914 83.5849 31.9098V31.181L84.3991 30.3712L83.7694 29.7449L83.1396 30.3713L82.8427 32.1638L83.1396 32.7395C83.6306 32.7395 84.0302 33.1368 84.0302 33.6252C84.0302 34.1136 83.6306 34.5109 83.1396 34.5109L82.8427 35.0128L83.1396 36.8791L83.7694 37.5054L84.3991 36.8791L83.5849 36.0694V35.3406C83.9027 35.2589 84.1862 35.0918 84.4095 34.8657L85.0454 35.2308L85.3434 36.3369L86.2037 36.1077L85.9731 35.2521L86.8334 35.0229L86.6029 34.1674Z" fill="#ECE6F2"/>
    <path d="M82.249 33.6253C82.249 33.1369 82.6485 32.7396 83.1396 32.7396V30.3713L82.5098 29.7451L81.8801 30.3713L82.6943 31.1811V31.9099C82.3765 31.9916 82.093 32.1587 81.8696 32.3848L81.2338 32.0197L80.9358 30.9136L80.0755 31.1428L80.306 31.9984L79.4457 32.2276L79.6763 33.0832L80.7885 32.7868L81.4236 33.1514C81.3814 33.3024 81.3584 33.4612 81.3584 33.6253C81.3584 33.7895 81.3814 33.9483 81.4236 34.0993L80.7885 34.4639L79.6763 34.1675L79.4457 35.0231L80.306 35.2523L80.0755 36.1079L80.9358 36.3371L81.2338 35.231L81.8696 34.8659C82.093 35.092 82.3764 35.2591 82.6943 35.3407V36.0696L81.8801 36.8793L82.5098 37.5056L83.1396 36.8792V34.511C82.6485 34.511 82.249 34.1137 82.249 33.6253V33.6253Z" fill="#FFF5F5"/>
  </g>
  <rect x="65.3663" y="11.0097" width="31.7554" height="11.2829" rx="4.75" fill="#6F74DD" fill-opacity="0.33" stroke="white" stroke-width="0.5"/>
  <path d="M75.0042 14.621H73.2316V19.4419H72.0393V14.621H70.2906V13.6552H75.0042V14.621Z" fill="white"/>
  <path d="M79.1694 16.9341H76.8801V18.4841H79.5668V19.4419H75.6878V13.6552H79.5588V14.621H76.8801V16.0001H79.1694V16.9341Z" fill="white"/>
  <path d="M83.5332 18.2496H81.4427L81.0453 19.4419H79.7774L81.9316 13.6552H83.0364L85.2025 19.4419H83.9346L83.5332 18.2496ZM81.7646 17.2838H83.2113L82.484 15.1178L81.7646 17.2838Z" fill="white"/>
  <path d="M87.3009 13.6552L88.7874 17.8522L90.2658 13.6552H91.8317V19.4419H90.6354V17.8601L90.7547 15.1297L89.1927 19.4419H88.374L86.8161 15.1337L86.9353 17.8601V19.4419H85.743V13.6552H87.3009Z" fill="white"/>
  <g clip-path="url(#clip1)">
    <path d="M88.58 7.77112L88.9771 6.16036C89.6596 3.39144 92.4576 1.70012 95.2265 2.38268L97.1298 2.85185C97.6224 2.97329 97.9234 3.47112 97.8019 3.96378C97.6805 4.45642 97.1826 4.75736 96.69 4.63592L95.8004 4.41664C95.5543 4.35597 95.3056 4.50631 95.245 4.75242L95.2412 4.76779C95.1805 5.0139 95.3308 5.26261 95.5769 5.32327C97.0668 5.69054 97.9768 7.19604 97.6096 8.68589L97.3049 9.92194L88.58 7.77112Z" fill="#D84F48"/>
    <path d="M97.7926 3.48865L96.2321 3.10398C93.6498 2.46742 91.0403 4.04484 90.4037 6.62714L90.0334 8.12938L88.58 7.7711L88.977 6.16034C89.6596 3.39148 92.4578 1.70003 95.2266 2.38258L97.1298 2.85173C97.4602 2.93318 97.7044 3.18375 97.7926 3.48865Z" fill="#BF3936"/>
    <path d="M96.4631 12.7362L88.0175 10.6542C87.4646 10.5179 87.1238 9.95408 87.26 9.40119L87.4667 8.56297C87.603 8.01011 88.1668 7.66925 88.7197 7.80554L97.1653 9.88747C97.7182 10.0238 98.0591 10.5876 97.9228 11.1405L97.7162 11.9787C97.5798 12.5316 97.016 12.8724 96.4631 12.7362Z" fill="#F1F2F2"/>
    <path d="M89.4359 11.0038L88.0174 10.6541C87.4646 10.5179 87.1238 9.95406 87.2601 9.40123L87.4667 8.56293C87.603 8.01011 88.1668 7.6693 88.7196 7.80557L90.1381 8.15526C89.9989 8.12094 89.8569 8.20679 89.8226 8.346L89.2452 10.6883C89.2109 10.8275 89.2967 10.9695 89.4359 11.0038Z" fill="#DDDDDD"/>
    <path d="M97.5796 5.45702C98.4729 5.67723 99.3757 5.13156 99.5959 4.23821C99.8161 3.34486 99.2704 2.44214 98.3771 2.22192C97.4837 2.0017 96.581 2.54738 96.3608 3.44073C96.1406 4.33408 96.6862 5.2368 97.5796 5.45702Z" fill="#F1F2F2"/>
    <path d="M99.1467 5.02727C98.7481 5.41871 98.162 5.60054 97.5797 5.45699C96.6862 5.23675 96.1405 4.33402 96.3607 3.44078C96.514 2.81885 96.9982 2.36526 97.58 2.22174C97.3668 2.43065 97.2075 2.69978 97.1309 3.01075C96.9107 3.90401 97.4564 4.80671 98.3498 5.02696C98.6209 5.09379 98.8931 5.09004 99.1467 5.02727Z" fill="#DDDDDD"/>
  </g>
  <defs>
    <clipPath id="clip0">
      <rect width="15.1163" height="15.1163" fill="white" transform="translate(75.5814 24.2957)"/>
    </clipPath>
    <clipPath id="clip1">
      <rect width="10.7691" height="10.7691" fill="white" transform="translate(89.5775) rotate(13.8479)"/>
    </clipPath>
  </defs>
</svg>
