<svg width="93" height="45" viewBox="0 0 93 45" fill="none" xmlns="http://www.w3.org/2000/svg">
<path d="M41.1639 9.95649C41.1503 9.20855 40.8925 7.62128 40.6067 6.94952C40.3209 6.27777 39.9331 5.69951 39.4432 5.21474C38.9396 4.72997 38.3647 4.35254 37.7183 4.08246C37.0718 3.81237 36.388 3.67733 35.6667 3.67733C31.1174 3.67733 27.7053 3.67733 25.4306 3.67733C23.1549 3.67733 19.7412 3.67733 15.1897 3.67733V0H35.7688C36.98 0 38.1265 0.228532 39.2084 0.685603C40.2903 1.14267 41.2395 1.78672 42.056 2.61776C42.8726 3.43495 43.5088 4.39409 43.9647 5.49521C44.4206 6.59634 44.8029 8.87269 44.8029 10.1054V11.9192H41.1639C41.1639 11.511 41.1673 10.0308 41.1639 9.95649Z" fill="#A4087D"/>
<path d="M3.63896 35.0185C3.65257 35.7665 3.91038 37.3538 4.19616 38.0255C4.48195 38.6973 4.86979 39.2755 5.35971 39.7603C5.86323 40.2451 6.4382 40.6225 7.08462 40.8926C7.73104 41.1627 8.41487 41.2977 9.13614 41.2977H29.6132V44.9751H9.03407C7.82289 44.9751 6.67636 44.7465 5.59446 44.2894C4.51256 43.8324 3.56336 43.1883 2.74683 42.3573C1.9303 41.5401 1.2941 40.581 0.838203 39.4798C0.382308 38.3787 0 36.1023 0 34.8696V33.0558H3.63896C3.63896 33.4641 3.63556 34.9443 3.63896 35.0185Z" fill="#76B515"/>
<path d="M11.867 3.69H9.91288C9.16822 3.70367 7.5879 3.96261 6.91909 4.24965C6.25027 4.5367 5.67455 4.92625 5.1919 5.41832C4.70925 5.92406 4.33348 6.50155 4.06458 7.15082C3.79567 7.80008 3.66122 8.48692 3.66122 9.21136C3.66122 11.9528 3.66122 14.009 3.66122 15.3797C3.66122 18.5794 3.66122 23.379 3.66122 29.7785C3.27434 29.7785 0.136367 29.7785 0 29.7785L0 9.10884C0 7.89233 0.227531 6.74076 0.682601 5.6541C1.13767 4.56744 1.77889 3.61407 2.60629 2.79395C3.4199 1.97383 4.37484 1.33483 5.47115 0.876925C6.56745 0.419024 8.83383 0.0350342 10.0611 0.0350342C10.1902 0.0350342 11.867 0.0350342 11.867 0.0350342C11.867 1.04459 11.867 2.91241 11.867 3.69Z" fill="#FD5C02"/>
<path d="M12.8122 26.6422V32.0454H10.2964V17.5035H15.8351C17.4526 17.5035 18.7354 17.9263 19.6834 18.772C20.638 19.6176 21.1153 20.7362 21.1153 22.1278C21.1153 23.5527 20.6479 24.6613 19.7132 25.4536C18.7851 26.246 17.4825 26.6422 15.8053 26.6422H12.8122ZM12.8122 24.6147H15.8351C16.73 24.6147 17.4129 24.4049 17.8835 23.9855C18.3542 23.5593 18.5895 22.9468 18.5895 22.1478C18.5895 21.3621 18.3509 20.7362 17.8736 20.2701C17.3963 19.7973 16.74 19.5543 15.9047 19.541H12.8122V24.6147Z" fill="white"/>
<path d="M28.7223 23.4561C28.4041 23.4029 28.076 23.3762 27.7379 23.3762C26.6308 23.3762 25.885 23.8024 25.5005 24.6546V32.0454H23.0842V21.2389H25.3911L25.4508 22.4474C26.0342 21.5086 26.8429 21.0391 27.8771 21.0391C28.2218 21.0391 28.5069 21.0857 28.7322 21.179L28.7223 23.4561Z" fill="white"/>
<path d="M29.4383 26.5423C29.4383 25.4836 29.6471 24.5315 30.0647 23.6858C30.4824 22.8336 31.069 22.181 31.8248 21.7283C32.5805 21.2688 33.4489 21.0391 34.4301 21.0391C35.8819 21.0391 37.0585 21.5086 37.9601 22.4474C38.8683 23.3862 39.3589 24.6313 39.4318 26.1827L39.4418 26.752C39.4418 27.8174 39.2362 28.7695 38.8252 29.6085C38.4209 30.4474 37.8375 31.0966 37.0751 31.556C36.3194 32.0155 35.4443 32.2452 34.45 32.2452C32.9319 32.2452 31.7154 31.7392 30.8006 30.7271C29.8924 29.7083 29.4383 28.3534 29.4383 26.6621V26.5423ZM31.8546 26.752C31.8546 27.864 32.0833 28.7362 32.5407 29.3688C32.9982 29.9947 33.6346 30.3076 34.45 30.3076C35.2653 30.3076 35.8984 29.988 36.3492 29.3488C36.8066 28.7096 37.0353 27.7741 37.0353 26.5423C37.0353 25.4503 36.8 24.5847 36.3293 23.9455C35.8653 23.3063 35.2322 22.9867 34.4301 22.9867C33.6412 22.9867 33.0147 23.303 32.5507 23.9355C32.0866 24.5614 31.8546 25.5002 31.8546 26.752Z" fill="white"/>
<path d="M44.006 21.2389V33.0042C44.006 34.1095 43.7309 34.9518 43.1806 35.5311C42.637 36.117 41.8382 36.41 40.7842 36.41C40.34 36.41 39.9124 36.3534 39.5014 36.2402V34.3226C39.7533 34.3825 40.0384 34.4125 40.3566 34.4125C41.1587 34.4125 41.5697 33.973 41.5896 33.0941V21.2389H44.006ZM41.3808 18.4324C41.3808 18.0595 41.4968 17.7499 41.7288 17.5035C41.9675 17.2572 42.3056 17.134 42.7431 17.134C43.1806 17.134 43.5187 17.2572 43.7574 17.5035C43.996 17.7499 44.1154 18.0595 44.1154 18.4324C44.1154 18.7986 43.996 19.1049 43.7574 19.3512C43.5187 19.5909 43.1806 19.7108 42.7431 19.7108C42.3056 19.7108 41.9675 19.5909 41.7288 19.3512C41.4968 19.1049 41.3808 18.7986 41.3808 18.4324Z" fill="white"/>
<path d="M51.3346 32.2452C49.8032 32.2452 48.5602 31.7625 47.6056 30.797C46.6577 29.8249 46.1837 28.5331 46.1837 26.9218V26.6222C46.1837 25.5435 46.3892 24.5814 46.8002 23.7358C47.2178 22.8835 47.8012 22.221 48.5503 21.7483C49.2994 21.2755 50.1347 21.0391 51.0561 21.0391C52.5212 21.0391 53.6515 21.5086 54.447 22.4474C55.2491 23.3862 55.6502 24.7146 55.6502 26.4324V27.4112H48.6199C48.6928 28.3034 48.9878 29.0092 49.5049 29.5286C50.0286 30.0479 50.6849 30.3076 51.4738 30.3076C52.5809 30.3076 53.4824 29.8582 54.1785 28.9593L55.4812 30.2077C55.0503 30.8536 54.4735 31.3563 53.7509 31.7158C53.035 32.0687 52.2295 32.2452 51.3346 32.2452ZM51.0462 22.9867C50.3833 22.9867 49.8463 23.2198 49.4353 23.6858C49.0309 24.1519 48.7724 24.8011 48.6597 25.6334H53.2637V25.4536C53.2106 24.6413 52.9952 24.0287 52.6173 23.6159C52.2395 23.1965 51.7158 22.9867 51.0462 22.9867Z" fill="white"/>
<path d="M61.9546 30.3076C62.5578 30.3076 63.0584 30.1312 63.4561 29.7783C63.8539 29.4254 64.066 28.9892 64.0925 28.4699H66.3696C66.3431 29.1424 66.1343 29.7716 65.7432 30.3575C65.3521 30.9368 64.8217 31.3962 64.1522 31.7358C63.4826 32.0754 62.76 32.2452 61.9844 32.2452C60.4796 32.2452 59.2863 31.7558 58.4046 30.777C57.523 29.7982 57.0821 28.4466 57.0821 26.7221V26.4724C57.0821 24.8278 57.5196 23.5127 58.3947 22.5273C59.2698 21.5352 60.463 21.0391 61.9745 21.0391C63.2539 21.0391 64.2947 21.4153 65.0968 22.1677C65.9056 22.9135 66.3299 23.8956 66.3696 25.1141H64.0925C64.066 24.4948 63.8539 23.9855 63.4561 23.586C63.065 23.1865 62.5645 22.9867 61.9546 22.9867C61.1723 22.9867 60.5691 23.273 60.1448 23.8456C59.7205 24.4116 59.5051 25.2739 59.4985 26.4324V26.8219C59.4985 27.9938 59.7073 28.8694 60.1249 29.4487C60.5492 30.0213 61.1591 30.3076 61.9546 30.3076Z" fill="white"/>
<path d="M71.2222 18.6122V21.2389H73.1215V23.0366H71.2222V29.0691C71.2222 29.482 71.3018 29.7816 71.4609 29.968C71.6266 30.1478 71.9183 30.2377 72.3359 30.2377C72.6144 30.2377 72.8961 30.2044 73.1812 30.1378V32.0155C72.6309 32.1686 72.1006 32.2452 71.5902 32.2452C69.734 32.2452 68.8059 31.2165 68.8059 29.159V23.0366H67.0359V21.2389H68.8059V18.6122H71.2222Z" fill="white"/>
<path d="M74.2253 26.5423C74.2253 25.4836 74.4341 24.5315 74.8517 23.6858C75.2694 22.8336 75.8561 22.181 76.6118 21.7283C77.3675 21.2688 78.236 21.0391 79.2171 21.0391C80.6689 21.0391 81.8456 21.5086 82.7471 22.4474C83.6553 23.3862 84.1459 24.6313 84.2188 26.1827L84.2288 26.752C84.2288 27.8174 84.0233 28.7695 83.6123 29.6085C83.2079 30.4474 82.6245 31.0966 81.8621 31.556C81.1064 32.0155 80.2313 32.2452 79.237 32.2452C77.7189 32.2452 76.5024 31.7392 75.5876 30.7271C74.6794 29.7083 74.2253 28.3534 74.2253 26.6621V26.5423ZM76.6416 26.752C76.6416 27.864 76.8703 28.7362 77.3277 29.3688C77.7852 29.9947 78.4216 30.3076 79.237 30.3076C80.0524 30.3076 80.6854 29.988 81.1362 29.3488C81.5937 28.7096 81.8224 27.7741 81.8224 26.5423C81.8224 25.4503 81.587 24.5847 81.1163 23.9455C80.6523 23.3063 80.0192 22.9867 79.2171 22.9867C78.4282 22.9867 77.8017 23.303 77.3377 23.9355C76.8736 24.5614 76.6416 25.5002 76.6416 26.752Z" fill="white"/>
<path d="M91.9054 23.4561C91.5872 23.4029 91.2591 23.3762 90.921 23.3762C89.8139 23.3762 89.0681 23.8024 88.6836 24.6546V32.0454H86.2673V21.2389H88.5742L88.6339 22.4474C89.2173 21.5086 90.026 21.0391 91.0602 21.0391C91.4049 21.0391 91.69 21.0857 91.9153 21.179L91.9054 23.4561Z" fill="white"/>
<path d="M75.8872 10.2632H73.9309V15.6818H72.8494V10.2632H70.9103V9.38031H75.8872V10.2632Z" fill="white"/>
<path d="M78.2787 15.7684C77.6151 15.7684 77.0765 15.5592 76.6628 15.1408C76.252 14.7196 76.0467 14.1598 76.0467 13.4616V13.3317C76.0467 12.8643 76.1357 12.4474 76.3138 12.0809C76.4948 11.7116 76.7476 11.4245 77.0722 11.2197C77.3968 11.0148 77.7588 10.9124 78.1581 10.9124C78.7929 10.9124 79.2827 11.1158 79.6274 11.5226C79.975 11.9295 80.1488 12.5051 80.1488 13.2495V13.6736H77.1024C77.134 14.0603 77.2618 14.3661 77.4859 14.5912C77.7128 14.8162 77.9972 14.9287 78.339 14.9287C78.8188 14.9287 79.2095 14.734 79.5111 14.3445L80.0756 14.8855C79.8888 15.1653 79.6389 15.3832 79.3258 15.539C79.0155 15.6919 78.6665 15.7684 78.2787 15.7684ZM78.1538 11.7564C77.8665 11.7564 77.6338 11.8573 77.4557 12.0593C77.2805 12.2613 77.1684 12.5426 77.1196 12.9033H79.1147V12.8254C79.0917 12.4733 78.9983 12.2079 78.8346 12.029C78.6708 11.8472 78.4439 11.7564 78.1538 11.7564Z" fill="white"/>
<path d="M83.7511 15.6818C83.7052 15.5924 83.665 15.4466 83.6305 15.2447C83.2973 15.5938 82.8893 15.7684 82.4067 15.7684C81.9385 15.7684 81.5564 15.6342 81.2605 15.3659C80.9647 15.0975 80.8167 14.7657 80.8167 14.3704C80.8167 13.8713 81.0006 13.489 81.3683 13.2235C81.7388 12.9552 82.2674 12.821 82.954 12.821H83.596V12.5137C83.596 12.2714 83.5285 12.0781 83.3935 11.9338C83.2585 11.7866 83.0531 11.7131 82.7773 11.7131C82.5389 11.7131 82.3435 11.7737 82.1913 11.8948C82.039 12.0131 81.9629 12.1646 81.9629 12.3493H80.9158C80.9158 12.0925 81.0006 11.853 81.17 11.6308C81.3395 11.4058 81.5693 11.2298 81.8595 11.1028C82.1525 10.9759 82.4785 10.9124 82.8376 10.9124C83.3834 10.9124 83.8186 11.0509 84.1433 11.3279C84.4679 11.602 84.6345 11.9886 84.6431 12.4878V14.5998C84.6431 15.0211 84.702 15.3572 84.8198 15.6082V15.6818H83.7511ZM82.6006 14.9244C82.8075 14.9244 83.0014 14.8739 83.1823 14.7729C83.3662 14.6719 83.5041 14.5363 83.596 14.3661V13.4832H83.0315C82.6437 13.4832 82.3521 13.551 82.1568 13.6866C81.9615 13.8222 81.8638 14.0141 81.8638 14.2622C81.8638 14.4642 81.9299 14.6258 82.062 14.747C82.197 14.8653 82.3766 14.9244 82.6006 14.9244Z" fill="white"/>
<path d="M86.7243 10.999L86.7545 11.488C87.082 11.1043 87.5301 10.9124 88.0989 10.9124C88.7223 10.9124 89.1489 11.1519 89.3787 11.6308C89.7177 11.1519 90.1945 10.9124 90.8093 10.9124C91.3235 10.9124 91.7055 11.0552 91.9555 11.3409C92.2082 11.6265 92.3375 12.0478 92.3433 12.6046V15.6818H91.2962V12.6349C91.2962 12.3377 91.2315 12.1199 91.1023 11.9814C90.973 11.8429 90.759 11.7737 90.4602 11.7737C90.2218 11.7737 90.0265 11.8386 89.8742 11.9684C89.7248 12.0954 89.62 12.2627 89.5597 12.4705L89.564 15.6818H88.5169V12.6003C88.5025 12.0492 88.2224 11.7737 87.6766 11.7737C87.2572 11.7737 86.9599 11.9453 86.7847 12.2887V15.6818H85.7376V10.999H86.7243Z" fill="white"/>
</svg>
