<svg width="30" height="30" viewBox="0 0 30 30" fill="none" xmlns="http://www.w3.org/2000/svg">
  <style>
    [data-doing] {
      animation: spinner 7s linear infinite normal forwards}

    @keyframes spinner {
      0% {transform: translate(15px,15px) rotate(0deg)}
      100% {transform: translate(15px,15px) rotate(360deg)} }
  </style>
  <g data-doing transform="translate(15,15) rotate(0)">
<path transform="translate(-15,-15)" d="M17.8319 28.9904C17.956 29.361 18.346 29.5732 18.7256 29.4761C20.0676 29.1309 21.3558 28.5989 22.5573 27.8935C22.9055 27.6888 23.0281 27.2449 22.8353 26.8908C22.5977 26.4544 22.4721 25.9598 22.4721 25.4606C22.4721 23.8123 23.8126 22.4718 25.461 22.4718C25.9616 22.4718 26.4548 22.5973 26.8911 22.835C27.2453 23.0277 27.6892 22.9052 27.8939 22.557C28.5993 21.357 29.1313 20.0673 29.4765 18.7253C29.5736 18.3458 29.3614 17.9572 28.9908 17.8317C27.7729 17.4222 26.9554 16.2835 26.9554 14.9998C26.9554 13.7161 27.7744 12.5774 28.9908 12.1679C29.3614 12.0439 29.5736 11.6538 29.4765 11.2742C29.1313 9.93227 28.5993 8.64409 27.8939 7.44259C27.6892 7.09439 27.2453 6.97185 26.8911 7.16463C26.4548 7.40224 25.9601 7.52777 25.461 7.52777C23.8126 7.52777 22.4721 6.18729 22.4721 4.53896C22.4721 4.03834 22.5977 3.54518 22.8353 3.10882C23.0281 2.75464 22.9055 2.3108 22.5573 2.10607C21.3573 1.40071 20.0676 0.868704 18.7256 0.523497C18.3475 0.426361 17.9575 0.638566 17.8319 1.00918C17.4225 2.22712 16.2837 3.04456 15 3.04456C13.7163 3.04456 12.5775 2.22562 12.1681 1.00918C12.044 0.638566 11.654 0.426361 11.2744 0.523497C9.9324 0.868704 8.64421 1.40071 7.44269 2.10607C7.09449 2.3108 6.97194 2.75464 7.16472 3.10882C7.40234 3.54518 7.52787 4.03983 7.52787 4.53896C7.52787 6.18729 6.18737 7.52777 4.53902 7.52777C4.03839 7.52777 3.54373 7.40224 3.10885 7.16463C2.75467 6.97185 2.31083 7.09439 2.10609 7.44259C1.40073 8.6426 0.868709 9.93227 0.523497 11.2742C0.42636 11.6538 0.638568 12.0424 1.00919 12.1679C2.22714 12.5774 3.04459 13.7161 3.04459 14.9998C3.04459 16.2835 2.22565 17.4222 1.00919 17.8317C0.638568 17.9557 0.42636 18.3458 0.523497 18.7253C0.868709 20.0673 1.40073 21.3555 2.10609 22.557C2.31083 22.9052 2.75467 23.0277 3.10885 22.835C3.54523 22.5973 4.03988 22.4718 4.53902 22.4718C6.18737 22.4718 7.52787 23.8123 7.52787 25.4606C7.52787 25.9613 7.40234 26.4544 7.16472 26.8908C6.97194 27.2449 7.09449 27.6888 7.44269 27.8935C8.64271 28.5989 9.9324 29.1309 11.2744 29.4761C11.3367 29.4924 11.3989 29.4999 11.4597 29.5L11.4612 29.5C11.7747 29.4997 12.0635 29.2995 12.1681 28.9904C12.5775 27.7725 13.7163 26.955 15 26.955C16.2837 26.955 17.4225 27.774 17.8319 28.9904ZM11.6167 15C11.6167 13.136 13.136 11.6167 15 11.6167C16.864 11.6167 18.3833 13.136 18.3833 15C18.3833 16.864 16.864 18.3833 15 18.3833C13.136 18.3833 11.6167 16.864 11.6167 15Z" fill="#6F74DD"/>
  </g>
</svg>
