<svg width="30" height="30" viewBox="0 0 30 30" fill="none" xmlns="http://www.w3.org/2000/svg">
  <path
    d="M22.6935 10.875C22.4865 10.5165 22.0275 10.3935 21.669 10.6005L14.289 14.862L8.53648 10.8345C8.19748 10.5975 7.72948 10.68 7.49248 11.019C7.25548 11.358 7.33798 11.826 7.67698 12.063L13.821 16.365C13.8225 16.3665 13.824 16.3665 13.8255 16.368C13.8375 16.377 13.851 16.3845 13.863 16.392C13.8675 16.395 13.8705 16.3965 13.875 16.3995C13.887 16.407 13.9005 16.413 13.9125 16.4205C13.917 16.422 13.92 16.425 13.9245 16.4265C13.9395 16.434 13.9545 16.44 13.9695 16.446C13.98 16.4505 13.989 16.4535 13.9995 16.4565C14.0055 16.458 14.0115 16.461 14.0175 16.4625C14.028 16.4655 14.0385 16.4685 14.0505 16.4715C14.0565 16.473 14.0625 16.4745 14.067 16.476C14.0775 16.479 14.088 16.4805 14.1 16.4835C14.106 16.485 14.112 16.4865 14.118 16.4865C14.1285 16.488 14.139 16.4895 14.1495 16.491C14.157 16.4925 14.1645 16.4925 14.172 16.494C14.181 16.4955 14.19 16.4955 14.199 16.497C14.2125 16.4985 14.226 16.4985 14.2395 16.4985C14.2425 16.4985 14.2455 16.4985 14.2485 16.4985H14.25C14.2785 16.4985 14.3055 16.497 14.334 16.494H14.3385C14.3655 16.491 14.3925 16.4865 14.4195 16.479C14.4225 16.479 14.424 16.4775 14.427 16.4775C14.4525 16.4715 14.478 16.464 14.5035 16.455C14.508 16.4535 14.511 16.452 14.5155 16.4505C14.5395 16.4415 14.562 16.431 14.586 16.4205C14.5905 16.4175 14.595 16.416 14.601 16.413C14.61 16.4085 14.6175 16.404 14.6265 16.3995L22.4205 11.8995C22.779 11.6925 22.902 11.2335 22.695 10.875H22.6935Z"
    fill="black"/>
  <path
    d="M24.48 25.6695C27.0735 22.9965 28.5 19.4835 28.5 15.75C28.5 12.195 27.207 8.83801 24.843 6.2175L25.875 5.1855L26.844 6.15451C26.991 6.30151 27.183 6.37351 27.375 6.37351C27.567 6.37351 27.759 6.3 27.906 6.15451C28.1985 5.86201 28.1985 5.3865 27.906 5.094L24.906 2.094C24.6135 1.8015 24.138 1.8015 23.8455 2.094C23.553 2.3865 23.553 2.862 23.8455 3.1545L24.8145 4.1235L23.7825 5.1555C21.162 2.7915 17.805 1.4985 14.25 1.4985C10.695 1.4985 7.338 2.7915 4.7175 5.1555L3.6855 4.1235L4.6545 3.1545C4.947 2.862 4.947 2.3865 4.6545 2.094C4.362 1.8015 3.8865 1.8015 3.594 2.094L0.594 5.094C0.3015 5.3865 0.3015 5.86201 0.594 6.15451C0.741 6.30151 0.933 6.37351 1.125 6.37351C1.317 6.37351 1.509 6.3 1.656 6.15451L2.625 5.1855L3.657 6.2175C1.293 8.83801 0 12.195 0 15.75C0 19.4835 1.4265 22.9965 4.02 25.6695L0.969 28.7205C0.6765 29.013 0.6765 29.4885 0.969 29.781C1.116 29.928 1.308 30 1.5 30C1.692 30 1.884 29.9265 2.031 29.781L5.121 26.691C7.6785 28.833 10.875 30 14.2515 30C17.628 30 20.8245 28.833 23.382 26.691L26.4705 29.7795C26.6175 29.9265 26.8095 29.9985 27.0015 29.9985C27.1935 29.9985 27.3855 29.925 27.5325 29.7795C27.825 29.487 27.825 29.0115 27.5325 28.719L24.4815 25.668L24.48 25.6695ZM15 28.4775V27.75C15 27.336 14.664 27 14.25 27C13.836 27 13.5 27.336 13.5 27.75V28.4775C7.065 28.1025 1.8975 22.935 1.5225 16.5H2.25C2.664 16.5 3 16.164 3 15.75C3 15.336 2.664 15 2.25 15H1.5225C1.8975 8.56501 7.065 3.3975 13.5 3.0225V3.75C13.5 4.164 13.836 4.5 14.25 4.5C14.664 4.5 15 4.164 15 3.75V3.0225C21.435 3.3975 26.6025 8.56501 26.9775 15H26.25C25.836 15 25.5 15.336 25.5 15.75C25.5 16.164 25.836 16.5 26.25 16.5H26.9775C26.6025 22.935 21.435 28.1025 15 28.4775Z"
    fill="black"/>
</svg>
