<svg width="30" height="30" viewBox="0 0 30 30" fill="none" xmlns="http://www.w3.org/2000/svg">
<path d="M26.25 5.66611H12.75C12.336 5.66611 12 5.33011 12 4.91611C12 4.50211 12.336 4.16611 12.75 4.16611H26.25C26.664 4.16611 27 4.50211 27 4.91611C27 5.33011 26.664 5.66611 26.25 5.66611Z" fill="#343434"/>
<path d="M26.25 14.6661H12.75C12.336 14.6661 12 14.3301 12 13.9161C12 13.5021 12.336 13.1661 12.75 13.1661H26.25C26.664 13.1661 27 13.5021 27 13.9161C27 14.3301 26.664 14.6661 26.25 14.6661Z" fill="#343434"/>
<path d="M26.25 23.6661H12.75C12.336 23.6661 12 23.3301 12 22.9161C12 22.5021 12.336 22.1661 12.75 22.1661H26.25C26.664 22.1661 27 22.5021 27 22.9161C27 23.3301 26.664 23.6661 26.25 23.6661Z" fill="#343434"/>
<path d="M19.5 8.66611H12.75C12.336 8.66611 12 8.33011 12 7.91611C12 7.50211 12.336 7.16611 12.75 7.16611H19.5C19.914 7.16611 20.25 7.50211 20.25 7.91611C20.25 8.33011 19.914 8.66611 19.5 8.66611Z" fill="#343434"/>
<path d="M19.5 17.6661H12.75C12.336 17.6661 12 17.3301 12 16.9161C12 16.5021 12.336 16.1661 12.75 16.1661H19.5C19.914 16.1661 20.25 16.5021 20.25 16.9161C20.25 17.3301 19.914 17.6661 19.5 17.6661Z" fill="#343434"/>
<path d="M19.5 26.6661H12.75C12.336 26.6661 12 26.3301 12 25.9161C12 25.5021 12.336 25.1661 12.75 25.1661H19.5C19.914 25.1661 20.25 25.5021 20.25 25.9161C20.25 26.3301 19.914 26.6661 19.5 26.6661Z" fill="#343434"/>
<path fill-rule="evenodd" clip-rule="evenodd" d="M4.75 22.1661C3.7835 22.1661 3 22.9496 3 23.9161V25.9161C3 26.8826 3.7835 27.6661 4.75 27.6661H6.75C7.7165 27.6661 8.5 26.8826 8.5 25.9161V23.9161C8.5 22.9496 7.7165 22.1661 6.75 22.1661H4.75ZM4.75 23.6661C4.61193 23.6661 4.5 23.778 4.5 23.9161V25.9161C4.5 26.0542 4.61193 26.1661 4.75 26.1661H6.75C6.88807 26.1661 7 26.0542 7 25.9161V23.9161C7 23.778 6.88807 23.6661 6.75 23.6661H4.75Z" fill="#343434"/>
<path fill-rule="evenodd" clip-rule="evenodd" d="M8.79199 3.12604C9.13663 3.35581 9.22976 3.82146 9 4.16611L5.87412 8.33221C5.64435 8.67686 5.1787 8.76999 4.83405 8.54022L3.33405 7.54022C2.98941 7.31046 2.89628 6.84481 3.12604 6.50016C3.35581 6.15551 3.82146 6.06238 4.1661 6.29215L5.04207 6.87612L7.75192 3.33406C7.98169 2.98941 8.44734 2.89628 8.79199 3.12604Z" fill="#343434"/>
<path fill-rule="evenodd" clip-rule="evenodd" d="M8.79199 12.2922C9.13663 12.5219 9.22976 12.9876 9 13.3322L5.87412 17.4983C5.64435 17.843 5.1787 17.9361 4.83405 17.7063L3.33405 16.7063C2.98941 16.4766 2.89628 16.0109 3.12604 15.6663C3.35581 15.3216 3.82146 15.2285 4.1661 15.4583L5.04207 16.0422L7.75192 12.5002C7.98169 12.1555 8.44734 12.0624 8.79199 12.2922Z" fill="#343434"/>
</svg>
