<svg width="30" height="30" viewBox="0 0 30 30" fill="none" xmlns="http://www.w3.org/2000/svg">
<path fill-rule="evenodd" clip-rule="evenodd" d="M5.75 5.90549C7.04392 5.57245 8 4.39788 8 3C8 1.34315 6.65685 0 5 0C3.34315 0 2 1.34315 2 3C2 4.39788 2.95608 5.57245 4.25 5.90549V24.0945C2.95608 24.4275 2 25.6021 2 27C2 28.6569 3.34315 30 5 30C6.65685 30 8 28.6569 8 27C8 25.6021 7.04392 24.4275 5.75 24.0945V5.90549ZM5 4.5C5.82843 4.5 6.5 3.82843 6.5 3C6.5 2.17157 5.82843 1.5 5 1.5C4.17157 1.5 3.5 2.17157 3.5 3C3.5 3.82843 4.17157 4.5 5 4.5ZM5 28.5C5.82843 28.5 6.5 27.8284 6.5 27C6.5 26.1716 5.82843 25.5 5 25.5C4.17157 25.5 3.5 26.1716 3.5 27C3.5 27.8284 4.17157 28.5 5 28.5Z" fill="#343434"/>
<path fill-rule="evenodd" clip-rule="evenodd" d="M29 27C29 28.6569 27.6569 30 26 30C24.3431 30 23 28.6569 23 27C23 25.6021 23.9561 24.4275 25.25 24.0945V17C25.25 10.7868 20.2132 5.75 14 5.75H11.8107L15.5303 9.46967C15.8232 9.76256 15.8232 10.2374 15.5303 10.5303C15.2374 10.8232 14.7626 10.8232 14.4697 10.5303L9.46967 5.53033C9.31882 5.37948 9.23935 5.17153 9.25115 4.95852C9.26295 4.74552 9.3649 4.54761 9.53148 4.41435L14.5315 0.414345C14.8549 0.155588 15.3269 0.208029 15.5857 0.531476C15.8444 0.854922 15.792 1.32689 15.4685 1.58565L12.1381 4.25H14C21.0416 4.25 26.75 9.95837 26.75 17V24.0945C28.0439 24.4275 29 25.6021 29 27ZM27.5 27C27.5 27.8284 26.8284 28.5 26 28.5C25.1716 28.5 24.5 27.8284 24.5 27C24.5 26.1716 25.1716 25.5 26 25.5C26.8284 25.5 27.5 26.1716 27.5 27Z" fill="#343434"/>
</svg>
