<svg width="30" height="30" viewBox="0 0 30 30" fill="none" xmlns="http://www.w3.org/2000/svg">
<path d="M23.3363 10.375C23.1293 10.0165 22.6703 9.89352 22.3118 10.1005L14.9318 14.362L9.17926 10.3345C8.84026 10.0975 8.37226 10.18 8.13526 10.519C7.89826 10.858 7.98076 11.326 8.31976 11.563L14.4638 15.865C14.4653 15.8665 14.4668 15.8665 14.4683 15.868C14.4803 15.877 14.4938 15.8845 14.5058 15.892C14.5103 15.895 14.5133 15.8965 14.5178 15.8995C14.5298 15.907 14.5433 15.913 14.5553 15.9205C14.5598 15.922 14.5628 15.925 14.5673 15.9265C14.5823 15.934 14.5973 15.94 14.6123 15.946C14.6228 15.9505 14.6318 15.9535 14.6423 15.9565C14.6483 15.958 14.6543 15.961 14.6603 15.9625C14.6708 15.9655 14.6813 15.9685 14.6933 15.9715C14.6993 15.973 14.7053 15.9745 14.7098 15.976C14.7203 15.979 14.7308 15.9805 14.7428 15.9835C14.7488 15.985 14.7548 15.9865 14.7608 15.9865C14.7713 15.988 14.7818 15.9895 14.7923 15.991C14.7998 15.9925 14.8073 15.9925 14.8148 15.994C14.8238 15.9955 14.8328 15.9955 14.8418 15.997C14.8553 15.9985 14.8688 15.9985 14.8823 15.9985C14.8853 15.9985 14.8883 15.9985 14.8913 15.9985H14.8928C14.9213 15.9985 14.9483 15.997 14.9768 15.994H14.9813C15.0083 15.991 15.0353 15.9865 15.0623 15.979C15.0653 15.979 15.0668 15.9775 15.0698 15.9775C15.0953 15.9715 15.1208 15.964 15.1463 15.955C15.1508 15.9535 15.1538 15.952 15.1583 15.9505C15.1823 15.9415 15.2048 15.931 15.2288 15.9205C15.2333 15.9175 15.2378 15.916 15.2438 15.913C15.2528 15.9085 15.2603 15.904 15.2693 15.8995L23.0633 11.3995C23.4218 11.1925 23.5448 10.7335 23.3378 10.375H23.3363Z" fill="#343434"/>
<path fill-rule="evenodd" clip-rule="evenodd" d="M5.52297 0.242783C5.23008 -0.0501101 4.7552 -0.05011 4.46231 0.242783L0.21967 4.48542C-0.0732232 4.77832 -0.0732232 5.25319 0.21967 5.54608C0.512563 5.83898 0.987437 5.83898 1.28033 5.54608L2.87132 3.95509L4.57337 5.65714C2.35144 8.13514 1 11.4097 1 15C1 18.8569 2.55962 22.3495 5.08259 24.8815L1.1875 28.7162C0.894606 29.009 0.894606 29.4839 1.1875 29.7768C1.48039 30.0697 1.95527 30.0697 2.24816 29.7768L6.19844 25.8879C8.6031 27.8342 11.6654 29 15 29C18.3423 29 21.411 27.8288 23.8182 25.8744L27.7822 29.7768C28.0751 30.0697 28.5499 30.0697 28.8428 29.7768C29.1357 29.4839 29.1357 29.009 28.8428 28.7162L24.9324 24.8665C27.4466 22.3356 29 18.8492 29 15C29 11.4097 27.6486 8.13514 25.4266 5.65714L27.1287 3.95509L28.7197 5.54608C29.0126 5.83898 29.4874 5.83898 29.7803 5.54608C30.0732 5.25319 30.0732 4.77832 29.7803 4.48542L25.5377 0.242783C25.2448 -0.05011 24.7699 -0.0501101 24.477 0.242783C24.1841 0.535676 24.1841 1.01055 24.477 1.30344L26.068 2.89443L24.3672 4.59525C21.8863 2.36032 18.602 1 15 1C11.398 1 8.11368 2.36032 5.6328 4.59525L3.93198 2.89443L5.52297 1.30344C5.81586 1.01055 5.81586 0.535676 5.52297 0.242783ZM14.25 2.52213C7.94375 2.89532 2.89532 7.94375 2.52213 14.25H4.25C4.66421 14.25 5 14.5858 5 15C5 15.4142 4.66421 15.75 4.25 15.75H2.52213C2.89532 22.0563 7.94375 27.1047 14.25 27.4779V25.75C14.25 25.3358 14.5858 25 15 25C15.4142 25 15.75 25.3358 15.75 25.75V27.4779C22.0563 27.1047 27.1047 22.0563 27.4779 15.75H25.75C25.3358 15.75 25 15.4142 25 15C25 14.5858 25.3358 14.25 25.75 14.25H27.4779C27.1047 7.94375 22.0563 2.89532 15.75 2.52213V4.25C15.75 4.66421 15.4142 5 15 5C14.5858 5 14.25 4.66421 14.25 4.25V2.52213Z" fill="#343434"/>
</svg>
