<svg width="30" height="30" viewBox="0 0 30 30" fill="none" xmlns="http://www.w3.org/2000/svg">
<path d="M8.57829 24.9633C8.84205 24.6439 8.79696 24.1712 8.47758 23.9074C7.77014 23.3231 7.14241 22.6458 6.61321 21.8943C6.14259 21.226 5.75001 20.4992 5.44849 19.7272C5.29781 19.3413 4.86288 19.1507 4.47705 19.3014C4.09121 19.4521 3.90058 19.887 4.05126 20.2728C4.39725 21.1588 4.84751 21.9922 5.38679 22.758C5.99312 23.619 6.71214 24.3948 7.52242 25.064C7.84179 25.3277 8.31452 25.2826 8.57829 24.9633ZM21.4217 24.9633C21.6855 25.2826 22.1582 25.3277 22.4776 25.064C23.2879 24.3948 24.0069 23.619 24.6132 22.758C25.1525 21.9922 25.6027 21.1588 25.9487 20.2728C26.0994 19.887 25.9088 19.4521 25.5229 19.3014C25.1371 19.1507 24.7022 19.3413 24.5515 19.7272C24.25 20.4992 23.8574 21.226 23.3868 21.8943C22.8576 22.6458 22.2299 23.3231 21.5224 23.9074C21.203 24.1712 21.158 24.6439 21.4217 24.9633ZM10.3014 6.02271C10.4521 6.40854 10.887 6.59917 11.2728 6.4485C12.427 5.99776 13.6837 5.75 15 5.75C16.3163 5.75 17.573 5.99776 18.7272 6.4485C19.113 6.59917 19.5479 6.40854 19.6986 6.02271C19.8493 5.63688 19.6587 5.20194 19.2728 5.05126C17.9475 4.5337 16.506 4.25 15 4.25C13.494 4.25 12.0524 4.5337 10.7272 5.05126C10.3413 5.20194 10.1507 5.63688 10.3014 6.02271Z" fill="#343434"/>
<path d="M5.14292 5.25H5.35708L5.37388 5.25019C6.43043 5.27386 7.40093 5.76066 8.04085 6.57318L8.04664 6.58073C8.49755 7.16845 8.7312 7.91127 8.72066 8.66091C8.77303 8.77248 8.80833 8.87691 8.83382 8.9598C8.90143 9.16728 8.94302 9.40224 8.94302 9.63509C8.94302 9.96552 8.86895 10.3085 8.72414 10.5985C8.65595 10.7544 8.57031 10.8998 8.46965 11.0325C8.68604 11.123 8.89001 11.2138 9.06189 11.2984L9.06818 11.3016C9.72094 11.6306 10.1989 12.2606 10.3229 12.9968C10.4394 13.6926 10.4749 14.6994 10.4867 15.0358C10.4881 15.0757 10.4893 15.1061 10.4902 15.1255L10.4998 15.5032L10.5 15.5222C10.5 15.8189 10.397 16.1323 10.1666 16.3726C9.92057 16.6391 9.58989 16.7488 9.28661 16.7488H1.21339C0.910108 16.7488 0.579429 16.6391 0.333437 16.3726C0.103015 16.1323 0 15.8189 0 15.5222L0.000242412 15.5032L0.00984704 15.1255C0.0106834 15.1061 0.0118729 15.0757 0.0132769 15.0358C0.0251318 14.6995 0.0606193 13.6926 0.177117 12.9968C0.301109 12.2606 0.77906 11.6306 1.43182 11.3016L1.43811 11.2984C1.60999 11.2138 1.81396 11.123 2.03035 11.0325C1.92969 10.8998 1.84405 10.7544 1.77586 10.5985C1.63105 10.3085 1.55698 9.96552 1.55698 9.63509C1.55698 9.40224 1.59857 9.16728 1.66618 8.9598C1.69167 8.87691 1.72697 8.77248 1.77934 8.66091C1.7688 7.91127 2.00245 7.16845 2.45336 6.58073L2.45915 6.57318C3.09907 5.76066 4.06957 5.27386 5.12612 5.25019L5.14292 5.25ZM8.9928 15.2488L8.99249 15.2402C8.97866 14.8646 8.94032 13.8232 8.84355 13.2449C8.80081 12.9917 8.63466 12.7639 8.39922 12.6441C8.03788 12.4665 7.45547 12.2338 6.94726 12.0508C6.73077 11.9728 6.56204 11.7998 6.48955 11.5814C6.41707 11.363 6.44884 11.1235 6.57575 10.9315C6.61572 10.8711 6.66019 10.7852 6.70575 10.678C6.77643 10.5117 6.90475 10.3765 7.06713 10.2973C7.18935 10.2377 7.29331 10.1319 7.35343 9.98901C7.36146 9.96992 7.37028 9.95118 7.37986 9.93282C7.41083 9.87349 7.44302 9.76101 7.44302 9.63509C7.44302 9.57216 7.43017 9.4927 7.40678 9.42195L7.40153 9.40545C7.38769 9.36007 7.37638 9.32904 7.3666 9.30662C7.35815 9.28726 7.35287 9.27929 7.35287 9.27929C7.2481 9.13391 7.19884 8.95582 7.21402 8.77726C7.25449 8.30121 7.11781 7.83642 6.85939 7.49751C6.49989 7.04333 5.95489 6.76584 5.34804 6.75H5.15196C4.54511 6.76584 4.00011 7.04333 3.64061 7.49751C3.38219 7.83642 3.24551 8.30121 3.28598 8.77726C3.30116 8.95582 3.2519 9.13391 3.14713 9.27929C3.14713 9.27929 3.14185 9.28726 3.1334 9.30662C3.12362 9.32904 3.11231 9.36007 3.09847 9.40545L3.09322 9.42195C3.06983 9.4927 3.05698 9.57216 3.05698 9.63509C3.05698 9.76101 3.08917 9.87349 3.12014 9.93282C3.12972 9.95118 3.13854 9.96992 3.14657 9.98901C3.20669 10.1319 3.31065 10.2377 3.43287 10.2973C3.59525 10.3765 3.72357 10.5117 3.79425 10.678C3.83981 10.7852 3.88428 10.8711 3.92425 10.9315C4.05116 11.1235 4.08293 11.363 4.01045 11.5814C3.93796 11.7998 3.76923 11.9728 3.55274 12.0508C3.04453 12.2338 2.46212 12.4665 2.10078 12.6441C1.86534 12.7639 1.69919 12.9917 1.65645 13.2449C1.55968 13.8232 1.52134 14.8646 1.50751 15.2402L1.5072 15.2488H8.9928Z" fill="#343434"/>
<path d="M14.8929 18.5012H15.1071L15.1239 18.5014C16.1804 18.525 17.1509 19.0118 17.7908 19.8244L17.7966 19.8319C18.2475 20.4196 18.4812 21.1624 18.4707 21.9121C18.523 22.0237 18.5583 22.1281 18.5838 22.211C18.6514 22.4185 18.693 22.6534 18.693 22.8863C18.693 23.2167 18.619 23.5597 18.4741 23.8496C18.406 24.0056 18.3203 24.151 18.2196 24.2836C18.436 24.3742 18.64 24.4649 18.8119 24.5496L18.8182 24.5527C19.4709 24.8818 19.9489 25.5117 20.0729 26.248C20.1894 26.9437 20.2249 27.9506 20.2367 28.287C20.2381 28.3268 20.2393 28.3573 20.2402 28.3767L20.2498 28.7544L20.25 28.7734C20.25 29.0701 20.147 29.3835 19.9166 29.6238C19.6706 29.8903 19.3399 30 19.0366 30H10.9634C10.6601 30 10.3294 29.8903 10.0834 29.6238C9.85301 29.3835 9.75 29.0701 9.75 28.7734L9.75024 28.7544L9.75985 28.3767C9.76068 28.3573 9.76187 28.3268 9.76328 28.287C9.77513 27.9506 9.81062 26.9437 9.92712 26.248C10.0511 25.5117 10.5291 24.8818 11.1818 24.5527L11.1881 24.5496C11.36 24.4649 11.564 24.3742 11.7804 24.2836C11.6797 24.151 11.594 24.0056 11.5259 23.8496C11.381 23.5597 11.307 23.2167 11.307 22.8863C11.307 22.6534 11.3486 22.4185 11.4162 22.211C11.4417 22.1281 11.477 22.0237 11.5293 21.9121C11.5188 21.1624 11.7525 20.4196 12.2034 19.8319L12.2092 19.8244C12.8491 19.0118 13.8196 18.525 14.8761 18.5014L14.8929 18.5012ZM18.7428 28.5L18.7425 28.4914C18.7287 28.1158 18.6903 27.0744 18.5935 26.4961C18.5508 26.2429 18.3847 26.0151 18.1492 25.8953C17.7879 25.7177 17.2055 25.485 16.6973 25.302C16.4808 25.224 16.312 25.051 16.2396 24.8326C16.1671 24.6142 16.1988 24.3746 16.3257 24.1827C16.3657 24.1222 16.4102 24.0364 16.4558 23.9292C16.5264 23.7629 16.6548 23.6277 16.8171 23.5485C16.9393 23.4889 17.0433 23.3831 17.1034 23.2402C17.1115 23.2211 17.1203 23.2024 17.1299 23.184C17.1608 23.1247 17.193 23.0122 17.193 22.8863C17.193 22.8233 17.1802 22.7439 17.1568 22.6731L17.1515 22.6566C17.1377 22.6112 17.1264 22.5802 17.1166 22.5578C17.1082 22.5384 17.1029 22.5305 17.1029 22.5305C16.9981 22.3851 16.9488 22.207 16.964 22.0284C17.0045 21.5524 16.8678 21.0876 16.6094 20.7487C16.2499 20.2945 15.7049 20.017 15.098 20.0012H14.902C14.2951 20.017 13.7501 20.2945 13.3906 20.7487C13.1322 21.0876 12.9955 21.5524 13.036 22.0284C13.0512 22.207 13.0019 22.3851 12.8971 22.5305C12.8971 22.5305 12.8918 22.5384 12.8834 22.5578C12.8736 22.5802 12.8623 22.6112 12.8485 22.6566L12.8432 22.6731C12.8198 22.7439 12.807 22.8233 12.807 22.8863C12.807 23.0122 12.8392 23.1247 12.8701 23.184C12.8797 23.2024 12.8885 23.2211 12.8966 23.2402C12.9567 23.3831 13.0607 23.4889 13.1829 23.5485C13.3453 23.6277 13.4736 23.7629 13.5442 23.9292C13.5898 24.0364 13.6343 24.1222 13.6743 24.1827C13.8012 24.3746 13.8329 24.6142 13.7604 24.8326C13.688 25.051 13.5192 25.224 13.3027 25.302C12.7945 25.485 12.2121 25.7177 11.8508 25.8953C11.6153 26.0151 11.4492 26.2429 11.4065 26.4961C11.3097 27.0744 11.2713 28.1158 11.2575 28.4914L11.2572 28.5H18.7428Z" fill="#343434"/>
<path d="M24.8571 5.25H24.6429L24.6261 5.25019C23.5696 5.27386 22.5991 5.76066 21.9592 6.57318L21.9534 6.58073C21.5025 7.16845 21.2688 7.91127 21.2793 8.66091C21.227 8.77248 21.1917 8.87691 21.1662 8.9598C21.0986 9.16728 21.057 9.40224 21.057 9.63509C21.057 9.96552 21.131 10.3085 21.2759 10.5985C21.344 10.7544 21.4297 10.8998 21.5304 11.0325C21.314 11.123 21.11 11.2138 20.9381 11.2984L20.9318 11.3016C20.2791 11.6306 19.8011 12.2606 19.6771 12.9968C19.5606 13.6926 19.5251 14.6994 19.5133 15.0358C19.5119 15.0757 19.5107 15.1061 19.5098 15.1255L19.5002 15.5032L19.5 15.5222C19.5 15.8189 19.603 16.1323 19.8334 16.3726C20.0794 16.6391 20.4101 16.7488 20.7134 16.7488H28.7866C29.0899 16.7488 29.4206 16.6391 29.6666 16.3726C29.897 16.1323 30 15.8189 30 15.5222L29.9998 15.5032L29.9902 15.1255C29.9893 15.1061 29.9881 15.0757 29.9867 15.0358C29.9749 14.6995 29.9394 13.6926 29.8229 12.9968C29.6989 12.2606 29.2209 11.6306 28.5682 11.3016L28.5619 11.2984C28.39 11.2138 28.186 11.123 27.9696 11.0325C28.0703 10.8998 28.156 10.7544 28.2241 10.5985C28.369 10.3085 28.443 9.96552 28.443 9.63509C28.443 9.40224 28.4014 9.16728 28.3338 8.9598C28.3083 8.87691 28.273 8.77248 28.2207 8.66091C28.2312 7.91127 27.9975 7.16845 27.5466 6.58073L27.5408 6.57318C26.9009 5.76066 25.9304 5.27386 24.8739 5.25019L24.8571 5.25ZM21.0072 15.2488L21.0075 15.2402C21.0213 14.8646 21.0597 13.8232 21.1565 13.2449C21.1992 12.9917 21.3653 12.7639 21.6008 12.6441C21.9621 12.4665 22.5445 12.2338 23.0527 12.0508C23.2692 11.9728 23.438 11.7998 23.5104 11.5814C23.5829 11.363 23.5512 11.1235 23.4243 10.9315C23.3843 10.8711 23.3398 10.7852 23.2942 10.678C23.2236 10.5117 23.0952 10.3765 22.9329 10.2973C22.8107 10.2377 22.7067 10.1319 22.6466 9.98901C22.6385 9.96992 22.6297 9.95118 22.6201 9.93282C22.5892 9.87349 22.557 9.76101 22.557 9.63509C22.557 9.57216 22.5698 9.4927 22.5932 9.42195L22.5985 9.40545C22.6123 9.36007 22.6236 9.32904 22.6334 9.30662C22.6418 9.28726 22.6471 9.27929 22.6471 9.27929C22.7519 9.13391 22.8012 8.95582 22.786 8.77726C22.7455 8.30121 22.8822 7.83642 23.1406 7.49751C23.5001 7.04333 24.0451 6.76584 24.652 6.75H24.848C25.4549 6.76584 25.9999 7.04333 26.3594 7.49751C26.6178 7.83642 26.7545 8.30121 26.714 8.77726C26.6988 8.95582 26.7481 9.13391 26.8529 9.27929C26.8529 9.27929 26.8582 9.28726 26.8666 9.30662C26.8764 9.32904 26.8877 9.36007 26.9015 9.40545L26.9068 9.42195C26.9302 9.4927 26.943 9.57216 26.943 9.63509C26.943 9.76101 26.9108 9.87349 26.8799 9.93282C26.8703 9.95118 26.8615 9.96992 26.8534 9.98901C26.7933 10.1319 26.6893 10.2377 26.5671 10.2973C26.4047 10.3765 26.2764 10.5117 26.2058 10.678C26.1602 10.7852 26.1157 10.8711 26.0757 10.9315C25.9488 11.1235 25.9171 11.363 25.9896 11.5814C26.062 11.7998 26.2308 11.9728 26.4473 12.0508C26.9555 12.2338 27.5379 12.4665 27.8992 12.6441C28.1347 12.7639 28.3008 12.9917 28.3435 13.2449C28.4403 13.8232 28.4787 14.8646 28.4925 15.2402L28.4928 15.2488H21.0072Z" fill="#343434"/>
</svg>
