<svg width="30" height="30" viewBox="0 0 30 30" fill="none" xmlns="http://www.w3.org/2000/svg">
  <path d="M29.7699 2.21967C30.0628 2.51256 30.0628 2.98744 29.7699 3.28033L13.5774 19.4728C13.4368 19.6135 13.246 19.6925 13.0471 19.6925C12.8482 19.6925 12.6574 19.6135 12.5168 19.4728L6.70928 13.6653C6.41639 13.3724 6.41639 12.8976 6.70928 12.6047C7.00218 12.3118 7.47705 12.3118 7.76994 12.6047L13.0471 17.8818L28.7093 2.21967C29.0022 1.92678 29.4771 1.92678 29.7699 2.21967Z" fill="#343434"/>
  <path d="M22 2C23.2164 2 24.306 2.54296 25.0396 3.39974L23.9738 4.46553C23.5164 3.87795 22.8023 3.5 22 3.5H4C2.61929 3.5 1.5 4.61929 1.5 6V24C1.5 25.3807 2.61929 26.5 4 26.5H22C23.3807 26.5 24.5 25.3807 24.5 24V11.0607L26 9.56067V24C26 26.2091 24.2091 28 22 28H4C1.79086 28 0 26.2091 0 24V6C0 3.79086 1.79086 2 4 2H22Z" fill="#343434"/>
</svg>

