<svg width="30" height="30" viewBox="0 0 30 30" fill="none" xmlns="http://www.w3.org/2000/svg">
  <path d="M18.0398 28.5C19.8279 27.472 21.3106 25.9703 22.3154 24.1673H25.0683C27.7832 24.1673 29.991 21.9599 29.991 19.2446C29.991 16.5292 27.7832 14.3219 25.0683 14.3219H23.7408V11.7266C23.7408 11.1306 23.2577 10.6475 22.6617 10.6475H2.15806C1.56205 10.6475 1.07894 11.1306 1.07894 11.7266V18.6691C1.07894 22.8695 3.37611 26.5431 6.78002 28.5H1.33078C0.916566 28.5 0.58078 28.8358 0.58078 29.25C0.58078 29.6642 0.916566 30 1.33078 30H12.3788C12.3892 30 12.3996 30 12.4099 30C12.4203 30 12.4306 30 12.441 30H23.2013C23.6155 30 23.9513 29.6642 23.9513 29.25C23.9513 28.8358 23.6155 28.5 23.2013 28.5H18.0398ZM2.57894 12.1475H22.2408V18.6691C22.2408 24.0792 17.8451 28.4843 12.4389 28.5H12.381C6.97476 28.4843 2.57894 24.0792 2.57894 18.6691V12.1475ZM23.7408 18.6691V15.8219H25.0683C26.9548 15.8219 28.491 17.3577 28.491 19.2446C28.491 21.1314 26.9549 22.6673 25.0683 22.6673H23.0126C23.4832 21.4234 23.7408 20.0758 23.7408 18.6691Z" fill="#343434"/>
  <path d="M12.2661 6.74999C11.8518 6.74999 11.5161 6.41421 11.5161 5.99999V0.75C11.5161 0.335786 11.8518 -4.93945e-09 12.2661 0C12.6803 4.93945e-09 13.0161 0.335786 13.0161 0.75V5.99999C13.0161 6.41421 12.6803 6.74999 12.2661 6.74999Z" fill="#343434"/>
  <path d="M16.75 8.74999C16.3358 8.74999 16 8.41421 16 7.99999V2.75C16 2.33579 16.3358 2 16.75 2C17.1642 2 17.5 2.33579 17.5 2.75V7.99999C17.5 8.41421 17.1642 8.74999 16.75 8.74999Z" fill="#343434"/>
  <path d="M7.75 8.74999C7.33579 8.74999 7 8.4142 7 7.99999V2.74999C7 2.33578 7.33579 1.99999 7.75 1.99999C8.16421 1.99999 8.5 2.33578 8.5 2.74999V7.99999C8.5 8.4142 8.16421 8.74999 7.75 8.74999Z" fill="#343434"/>
</svg>
