<svg width="30" height="30" viewBox="0 0 30 30" fill="none" xmlns="http://www.w3.org/2000/svg">
  <path d="M28 26H12.75C12.336 26 12 25.664 12 25.25C12 24.836 12.336 24.5 12.75 24.5H28C28.414 24.5 28.75 24.836 28.75 25.25C28.75 25.664 28.414 26 28 26Z" fill="#343434"/>
  <path d="M19.5 29H12.75C12.336 29 12 28.664 12 28.25C12 27.836 12.336 27.5 12.75 27.5H19.5C19.914 27.5 20.25 27.836 20.25 28.25C20.25 28.664 19.914 29 19.5 29Z" fill="#343434"/>
  <path d="M2.75 24.5C1.7835 24.5 1 25.2835 1 26.25V28.25C1 29.2165 1.7835 30 2.75 30H4.75C5.7165 30 6.5 29.2165 6.5 28.25V26.25C6.5 25.2835 5.7165 24.5 4.75 24.5H2.75ZM2.75 26H4.75C4.88807 26 5 26.1119 5 26.25V28.25C5 28.3881 4.88807 28.5 4.75 28.5H2.75C2.61193 28.5 2.5 28.3881 2.5 28.25V26.25C2.5 26.1119 2.61193 26 2.75 26Z" fill="#343434"/>
  <path d="M28 2.66611H12.75C12.336 2.66611 12 2.3301 12 1.9161C12 1.5021 12.336 1.1661 12.75 1.1661H28C28.414 1.1661 28.75 1.5021 28.75 1.9161C28.75 2.3301 28.414 2.66611 28 2.66611Z" fill="#343434"/>
  <path d="M19.5 5.6661H12.75C12.336 5.6661 12 5.3301 12 4.9161C12 4.5021 12.336 4.1661 12.75 4.1661H19.5C19.914 4.1661 20.25 4.5021 20.25 4.9161C20.25 5.3301 19.914 5.6661 19.5 5.6661Z" fill="#343434"/>
  <path d="M6.79199 0.126042C6.44734 -0.103722 5.98169 -0.010592 5.75192 0.334055L3.04207 3.87612L2.1661 3.29215C1.82146 3.06238 1.35581 3.15551 1.12604 3.50016C0.896278 3.84481 0.989408 4.31046 1.33405 4.54022L2.83405 5.54022C3.1787 5.76998 3.64435 5.67685 3.87412 5.33221L7 1.1661C7.22976 0.821458 7.13663 0.355806 6.79199 0.126042Z" fill="#343434"/>
  <path d="M28 14.6661H12.75C12.336 14.6661 12 14.3301 12 13.9161C12 13.5021 12.336 13.1661 12.75 13.1661H28C28.414 13.1661 28.75 13.5021 28.75 13.9161C28.75 14.3301 28.414 14.6661 28 14.6661Z" fill="#343434"/>
  <path d="M19.5 17.6661H12.75C12.336 17.6661 12 17.3301 12 16.9161C12 16.5021 12.336 16.1661 12.75 16.1661H19.5C19.914 16.1661 20.25 16.5021 20.25 16.9161C20.25 17.3301 19.914 17.6661 19.5 17.6661Z" fill="#343434"/>
  <path d="M6.79199 12.126C6.44734 11.8963 5.98169 11.9894 5.75192 12.3341L3.04207 15.8761L2.1661 15.2921C1.82146 15.0624 1.35581 15.1555 1.12604 15.5002C0.896278 15.8448 0.989408 16.3105 1.33405 16.5402L2.83405 17.5402C3.1787 17.77 3.64435 17.6769 3.87412 17.3322L7 13.1661C7.22976 12.8215 7.13663 12.3558 6.79199 12.126Z" fill="#343434"/>
</svg>

