<svg width="30" height="30" viewBox="0 0 30 30" fill="none" xmlns="http://www.w3.org/2000/svg">
  <path d="M27.75 12.5H25.5V8.75C25.5 7.5095 24.4905 6.5 23.25 6.5H19.5V0.75C19.5 0.336 19.164 0 18.75 0H3.75C3.336 0 3 0.336 3 0.75V6.575C1.29 6.923 0 8.438 0 10.25V27.75C0 28.9905 1.0095 30 2.25 30H27.75C28.9905 30 30 28.9905 30 27.75V14.75C30 13.5095 28.9905 12.5 27.75 12.5ZM4.5 1.5H18V9.5H4.5V1.5ZM3 8.129V10.25C3 10.664 3.336 11 3.75 11H21.75C22.164 11 22.5 10.664 22.5 10.25C22.5 9.836 22.164 9.5 21.75 9.5H19.5V8H23.25C23.664 8 24 8.336 24 8.75V12.5H3.75C2.5095 12.5 1.5 11.4905 1.5 10.25C1.5 9.272 2.127 8.438 3 8.129ZM28.5 27.75C28.5 28.164 28.164 28.5 27.75 28.5H2.25C1.836 28.5 1.5 28.164 1.5 27.75V13.2485C2.127 13.721 2.907 14 3.75 14H27.75C28.164 14 28.5 14.336 28.5 14.75V27.75Z" fill="#343434"/>
  <path d="M25.75 27H19.75C19.336 27 19 26.664 19 26.25C19 25.836 19.336 25.5 19.75 25.5H25.75C26.164 25.5 26.5 25.836 26.5 26.25C26.5 26.664 26.164 27 25.75 27Z" fill="#343434"/>
  <path d="M12.75 20.5H7.5V19H12.75C13.164 19 13.5 18.664 13.5 18.25C13.5 17.836 13.164 17.5 12.75 17.5H10.5V16.75C10.5 16.336 10.164 16 9.75 16C9.336 16 9 16.336 9 16.75V17.5H6.75C6.336 17.5 6 17.836 6 18.25V21.25C6 21.664 6.336 22 6.75 22H12V23.5H6.75C6.336 23.5 6 23.836 6 24.25C6 24.664 6.336 25 6.75 25H9V25.75C9 26.164 9.336 26.5 9.75 26.5C10.164 26.5 10.5 26.164 10.5 25.75V25H12.75C13.164 25 13.5 24.664 13.5 24.25V21.25C13.5 20.836 13.164 20.5 12.75 20.5Z" fill="#343434"/>
</svg>
