<svg width="30" height="30" viewBox="0 0 30 30" fill="none" xmlns="http://www.w3.org/2000/svg">
<path d="M24.4584 8.62842L27.1433 5.94359C28.5011 4.58573 28.5011 2.37633 27.1433 1.01848C26.193 0.0682055 24.7619 -0.251014 23.4974 0.205022C22.4744 0.573988 21.3331 0.761019 20.1052 0.761019H18.0758C17.5903 0.761019 17.1968 1.15456 17.1968 1.64001C17.1968 2.12547 17.5903 2.51901 18.0758 2.51901H20.1052C21.537 2.51901 22.879 2.29688 24.0938 1.85872C24.7205 1.63272 25.4294 1.79086 25.9002 2.26155C26.5726 2.93397 26.5726 4.0281 25.9002 4.70052L23.2154 7.38535L19.9004 4.0704L16.3903 7.58052C12.5356 6.48845 8.21949 7.45876 5.18521 10.493C0.722759 14.9555 0.722759 22.1906 5.18521 26.6531C9.64766 31.1156 16.8828 31.1156 21.3453 26.6531C24.3774 23.6211 25.3485 19.3091 24.2602 15.4564L27.7733 11.9433L24.4584 8.62842ZM20.1022 25.41C16.3262 29.186 10.2042 29.186 6.42828 25.41C2.65231 21.6341 2.65231 15.512 6.42828 11.7361C10.2042 7.96021 16.3262 7.96015 20.1022 11.7361C23.8782 15.5121 23.8782 21.6341 20.1022 25.41ZM24.0441 13.1864L18.6573 7.79972L19.9004 6.55665L25.2872 11.9434L24.0441 13.1864Z" fill="#343434"/>
<path d="M16.25 18H11V16.5H16.25C16.664 16.5 17 16.164 17 15.75C17 15.336 16.664 15 16.25 15H14V14.25C14 13.836 13.664 13.5 13.25 13.5C12.836 13.5 12.5 13.836 12.5 14.25V15H10.25C9.836 15 9.5 15.336 9.5 15.75V18.75C9.5 19.164 9.836 19.5 10.25 19.5H15.5V21H10.25C9.836 21 9.5 21.336 9.5 21.75C9.5 22.164 9.836 22.5 10.25 22.5H12.5V23.25C12.5 23.664 12.836 24 13.25 24C13.664 24 14 23.664 14 23.25V22.5H16.25C16.664 22.5 17 22.164 17 21.75V18.75C17 18.336 16.664 18 16.25 18Z" fill="#343434"/>
</svg>
