<svg width="30" height="30" viewBox="0 0 30 30" xmlns="http://www.w3.org/2000/svg">
<path d="M9.66797 19.4531C9.1998 19.4531 8.78906 19.015 8.78906 18.5156C8.78906 18.1473 9.02139 17.8153 9.36715 17.6893C9.81832 17.5249 10.3441 17.7478 10.8089 18.3013C11.1212 18.673 11.6755 18.7212 12.0472 18.409C12.4189 18.0969 12.4672 17.5424 12.155 17.1708C11.6798 16.605 11.1268 16.2161 10.5469 16.0209V15C10.5469 14.5146 10.1534 14.1211 9.66797 14.1211C9.18258 14.1211 8.78906 14.5146 8.78906 15V16.0296C8.78121 16.0324 8.77336 16.0348 8.76557 16.0376C7.72822 16.4155 7.03125 17.4113 7.03125 18.5156C7.03125 19.2161 7.30061 19.8836 7.78969 20.3953C8.29254 20.9213 8.95963 21.2109 9.66797 21.2109C10.1526 21.2109 10.5469 21.6052 10.5469 22.0898C10.5469 22.4439 10.3362 22.7618 10.0102 22.8999C9.61664 23.0665 9.14566 22.9243 8.7177 22.5097C8.369 22.172 7.81271 22.1808 7.47486 22.5294C7.13713 22.878 7.14592 23.4344 7.49455 23.7721C7.89135 24.1566 8.3325 24.4282 8.78906 24.5815V25.6055C8.78906 26.0909 9.18258 26.4844 9.66797 26.4844C10.1534 26.4844 10.5469 26.0909 10.5469 25.6055V24.5759C11.6188 24.1948 12.3047 23.1946 12.3047 22.0898C12.3047 20.636 11.1219 19.4531 9.66797 19.4531Z"/>
<path d="M27.1289 1.10414C25.5105 0.392109 23.388 0 21.1523 0C16.5772 0 12.3633 1.67994 12.3633 4.39453C12.3633 5.07369 12.3633 10.3543 12.3633 10.989C11.4966 10.7366 10.5915 10.6055 9.66797 10.6055C7.09148 10.6055 4.66371 11.6236 2.83184 13.4723C1.0057 15.3153 0 17.7514 0 20.332C0 25.6629 4.33705 30 9.66797 30C11.4469 30 13.1572 29.5219 14.6519 28.6267C16.2866 29.5037 18.616 30 21.1523 30C23.388 30 25.5105 29.6079 27.1289 28.8959C28.9804 28.0813 30 26.9128 30 25.6055C30 25.0581 30 4.95328 30 4.39453C30 3.08719 28.9804 1.91865 27.1289 1.10414ZM9.66797 28.2422C5.30631 28.2422 1.75781 24.6937 1.75781 20.332C1.75781 15.938 5.30631 12.3633 9.66797 12.3633C14.0619 12.3633 17.6367 15.938 17.6367 20.332C17.6367 24.6937 14.0619 28.2422 9.66797 28.2422ZM28.2422 25.6055C28.2422 26.6805 25.4803 28.2422 21.1523 28.2422C19.3112 28.2422 17.5719 27.9471 16.2521 27.4301C16.3453 27.3445 16.4374 27.2576 16.5277 27.1682C17.3191 26.3839 17.9578 25.4903 18.4301 24.5228C19.3033 24.6574 20.2155 24.7266 21.1523 24.7266C23.4635 24.7266 26.3295 24.2773 28.2422 23.0262V25.6055ZM28.2422 20.332C28.2422 21.4071 25.4803 22.9688 21.1523 22.9688C20.4353 22.9688 19.7364 22.9239 19.0628 22.8371C19.2812 22.0295 19.3945 21.1891 19.3945 20.332C19.3945 19.987 19.3757 19.6446 19.3397 19.3056C19.9318 19.3642 20.5377 19.3945 21.1523 19.3945C23.4636 19.3945 26.3294 18.9452 28.2422 17.6942V20.332ZM28.2422 15C28.2422 16.0751 25.4803 17.6367 21.1523 17.6367C20.4042 17.6367 19.6723 17.5878 18.9683 17.4927C18.5122 16.0131 17.6984 14.6512 16.5708 13.5108C17.9297 13.9076 19.5081 14.1211 21.1523 14.1211C23.4636 14.1211 26.3294 13.6718 28.2422 12.4208V15ZM28.2422 9.72656C28.2422 10.8016 25.4803 12.3633 21.1523 12.3633C19.1597 12.3633 17.3001 12.0245 15.916 11.4093C14.8088 10.9173 14.1211 10.2725 14.1211 9.72656V7.10127C16.0239 8.3485 18.8655 8.78906 21.1523 8.78906C23.4636 8.78906 26.3294 8.33977 28.2422 7.08873V9.72656ZM21.1523 7.03125C16.8588 7.03125 14.1211 5.49287 14.1211 4.39453C14.1211 3.29279 16.8666 1.75781 21.1523 1.75781C25.4803 1.75781 28.2422 3.31945 28.2422 4.39453C28.2422 5.46961 25.4803 7.03125 21.1523 7.03125Z"/>
</svg>
