<svg width="30" height="31" viewBox="0 0 30 31" fill="none" xmlns="http://www.w3.org/2000/svg">
  <path d="M6.14727 0.998505H23.8527C24.2573 0.998505 24.5853 1.3315 24.5883 1.744C24.5912 2.3695 24.5721 4.633 24.525 5.5H28.2644C28.4939 5.5 28.7086 5.608 28.8484 5.794C28.9881 5.98 29.0337 6.22 28.9749 6.445C28.9425 6.5695 28.1526 9.5275 26.9213 12.538C25.3297 16.432 23.7762 18.5335 22.1919 18.9295C21.427 21.2815 20.3884 23.557 19.0086 24.973C18.3333 25.6646 16.6505 26.1243 15.8421 26.3452L15.7859 26.3605C16.442 27.7855 18.5011 28.933 19.7676 29.578C20.0722 29.734 20.2325 30.082 20.1545 30.421C20.0766 30.76 19.7794 30.9985 19.4381 30.9985H10.5619C10.2206 30.9985 9.92343 30.76 9.84547 30.421C9.7675 30.082 9.92785 29.734 10.2324 29.578C11.4989 28.933 13.558 27.7855 14.2141 26.3605L14.1579 26.3452C13.3495 26.1243 11.6667 25.6646 10.9914 24.973C9.61157 23.557 8.57301 21.2815 7.80807 18.9295C6.22376 18.5335 4.67034 16.432 3.07867 12.538C1.84741 9.5275 1.05746 6.5695 1.0251 6.445C0.966256 6.22 1.01186 5.98 1.15161 5.794C1.29136 5.608 1.50613 5.5 1.73561 5.5H5.475C5.42793 4.633 5.4088 2.3695 5.41175 1.744C5.41469 1.3315 5.74273 0.998505 6.14727 0.998505ZM17.1816 29.5C16.9623 29.2789 16.5936 29.0433 16.2048 28.795C15.7671 28.5155 15.304 28.2197 15 27.9099C14.696 28.2197 14.2329 28.5155 13.7952 28.795C13.4064 29.0433 13.0377 29.2789 12.8184 29.5H17.1816ZM15 24.9903C15.8471 24.9291 17.3214 24.5765 17.9642 23.917C19.1778 22.672 20.156 20.5465 20.9209 18.0745C20.9283 18.04 20.9386 18.007 20.9518 17.9755C22.367 13.351 23.0407 6.0445 23.1099 2.5H6.89014C6.95928 6.0445 7.63302 13.351 9.04816 17.9755C9.0614 18.007 9.0717 18.04 9.07905 18.0745C9.844 20.5465 10.8222 22.672 12.0358 23.917C12.6786 24.5765 14.1529 24.9291 15 24.9903ZM6.47825 15.946C6.72244 16.297 6.9637 16.594 7.19612 16.8295C6.98429 16.0225 6.80335 15.2335 6.65036 14.497C6.09431 11.8225 5.75744 9.193 5.57797 7H2.71533C3.04484 8.113 3.65679 10.054 4.44233 11.974C5.13225 13.6615 5.81775 14.998 6.47825 15.946ZM23.5217 15.946C24.1822 14.998 24.8678 13.6615 25.5577 11.974C26.3432 10.054 26.9552 8.113 27.2847 7H24.422C24.2426 9.193 23.9057 11.8225 23.3496 14.497C23.1966 15.2335 23.0157 16.0225 22.8039 16.8295C23.0363 16.594 23.2776 16.297 23.5217 15.946Z" fill="#343434"/>
  <path d="M17.75 11.5H12.5V10H17.75C18.164 10 18.5 9.664 18.5 9.25C18.5 8.836 18.164 8.5 17.75 8.5H15.5V7.75C15.5 7.336 15.164 7 14.75 7C14.336 7 14 7.336 14 7.75V8.5H11.75C11.336 8.5 11 8.836 11 9.25V12.25C11 12.664 11.336 13 11.75 13H17V14.5H11.75C11.336 14.5 11 14.836 11 15.25C11 15.664 11.336 16 11.75 16H14V16.75C14 17.164 14.336 17.5 14.75 17.5C15.164 17.5 15.5 17.164 15.5 16.75V16H17.75C18.164 16 18.5 15.664 18.5 15.25V12.25C18.5 11.836 18.164 11.5 17.75 11.5Z" fill="#343434"/>
</svg>
