<svg width="30" height="30" viewBox="0 0 30 30" fill="none" xmlns="http://www.w3.org/2000/svg">
<path fill-rule="evenodd" clip-rule="evenodd" d="M6.14727 1.5H23.8527C24.2573 1.5 24.5853 1.833 24.5883 2.2455C24.5912 2.871 24.5721 3.633 24.525 4.5H28.2644C28.4939 4.5 28.7086 4.608 28.8484 4.794C28.9881 4.98 29.0337 5.22 28.9749 5.445C28.9425 5.5695 28.1526 8.5275 26.9213 11.538C25.3297 15.432 23.7762 17.5335 22.1919 17.9295C21.427 20.2815 20.3884 22.557 19.0086 23.973C18.3333 24.6646 16.6505 25.1243 15.8421 25.3452L15.7859 25.3605C16.442 26.7855 18.5011 27.933 19.7676 28.578C20.0722 28.734 20.2325 29.082 20.1545 29.421C20.0766 29.76 19.7794 29.9985 19.4381 29.9985H10.5619C10.2206 29.9985 9.92343 29.76 9.84547 29.421C9.7675 29.082 9.92785 28.734 10.2324 28.578C11.4989 27.933 13.558 26.7855 14.2141 25.3605L14.1579 25.3452C13.3495 25.1243 11.6667 24.6646 10.9914 23.973C9.61157 22.557 8.57301 20.2815 7.80807 17.9295C6.22376 17.5335 4.67034 15.432 3.07867 11.538C1.84741 8.5275 1.05746 5.5695 1.0251 5.445C0.966256 5.22 1.01186 4.98 1.15161 4.794C1.29136 4.608 1.50613 4.5 1.73561 4.5H5.475C5.42793 3.633 5.4088 2.871 5.41175 2.2455C5.41469 1.833 5.74273 1.5 6.14727 1.5ZM17.1816 28.5C16.9623 28.2789 16.5936 28.0433 16.2048 27.795C15.7671 27.5155 15.304 27.2197 15 26.9099C14.696 27.2197 14.2329 27.5155 13.7952 27.795C13.4064 28.0433 13.0377 28.2789 12.8184 28.5H17.1816ZM15 23.9903C15.8471 23.9291 17.3214 23.5765 17.9642 22.917C19.1778 21.672 20.156 19.5465 20.9209 17.0745C20.9283 17.04 20.9386 17.007 20.9518 16.9755C22.367 12.351 23.0407 6.546 23.1099 3.0015H6.89014C6.95928 6.546 7.63302 12.351 9.04816 16.9755C9.0614 17.007 9.0717 17.04 9.07905 17.0745C9.844 19.5465 10.8222 21.672 12.0358 22.917C12.6786 23.5765 14.1529 23.9291 15 23.9903ZM6.47825 14.946C5.81775 13.998 5.13225 12.6615 4.44233 10.974C3.65679 9.054 3.04484 7.113 2.71533 6H5.57797C5.75744 8.193 6.09431 10.8225 6.65036 13.497C6.80335 14.2335 6.98429 15.0225 7.19612 15.8295C6.9637 15.594 6.72244 15.297 6.47825 14.946ZM23.5217 14.946C24.1822 13.998 24.8678 12.6615 25.5577 10.974C26.3432 9.054 26.9552 7.113 27.2847 6H24.422C24.2426 8.193 23.9057 10.8225 23.3496 13.497C23.1966 14.2335 23.0157 15.0225 22.8039 15.8295C23.0363 15.594 23.2776 15.297 23.5217 14.946Z" fill="#343434"/>
<path d="M17.75 10.5H12.5V9H17.75C18.164 9 18.5 8.664 18.5 8.25C18.5 7.836 18.164 7.5 17.75 7.5H15.5V6.75C15.5 6.336 15.164 6 14.75 6C14.336 6 14 6.336 14 6.75V7.5H11.75C11.336 7.5 11 7.836 11 8.25V11.25C11 11.664 11.336 12 11.75 12H17V13.5H11.75C11.336 13.5 11 13.836 11 14.25C11 14.664 11.336 15 11.75 15H14V15.75C14 16.164 14.336 16.5 14.75 16.5C15.164 16.5 15.5 16.164 15.5 15.75V15H17.75C18.164 15 18.5 14.664 18.5 14.25V11.25C18.5 10.836 18.164 10.5 17.75 10.5Z" fill="#343434"/>
</svg>
