<svg width="30" height="30" viewBox="0 0 30 30" fill="none" xmlns="http://www.w3.org/2000/svg">
<path d="M28.4913 23.5C28.4606 23.5662 28.3473 23.7487 27.9534 24.0281C27.3808 24.4343 26.4548 24.8615 25.1756 25.2452C22.6362 26.0071 19.0382 26.5 15 26.5C10.9618 26.5 7.36379 26.0071 4.82442 25.2452C3.54519 24.8615 2.61923 24.4343 2.04657 24.0281C1.65266 23.7487 1.53943 23.5662 1.50873 23.5C1.53943 23.4338 1.65266 23.2513 2.04657 22.9719C2.61923 22.5657 3.54519 22.1385 4.82442 21.7548C7.36379 20.993 10.9618 20.5 15 20.5C19.0382 20.5 22.6362 20.993 25.1756 21.7548C26.4548 22.1385 27.3808 22.5657 27.9534 22.9719C28.3473 23.2513 28.4606 23.4338 28.4913 23.5ZM15 28C23.2843 28 30 25.9853 30 23.5C30 21.0147 23.2843 19 15 19C6.71573 19 0 21.0147 0 23.5C0 25.9853 6.71573 28 15 28Z" fill="#343434"/>
<path d="M14.6018 1.36443C14.8207 1.22729 15.0948 1.21245 15.3272 1.32514L26.3272 6.65847C26.5858 6.78385 26.75 7.04596 26.75 7.33333C26.75 7.62071 26.5858 7.88282 26.3272 8.00819L15.75 13.1365V24C15.75 24.4142 15.4142 24.75 15 24.75C14.5858 24.75 14.25 24.4142 14.25 24V2C14.25 1.74169 14.3829 1.50157 14.6018 1.36443ZM15.75 11.4695L24.2809 7.33333L15.75 3.19714V11.4695Z" fill="#343434"/>
</svg>
