<svg width="30" height="30" viewBox="0 0 30 30" fill="none" xmlns="http://www.w3.org/2000/svg">
<path fill-rule="evenodd" clip-rule="evenodd" d="M14.3498 0.290249C13.4095 0.697212 12.58 1.26969 11.9115 1.97296C11.589 2.31235 11.2996 2.59 11.2684 2.59C11.2372 2.59 11.0378 2.39199 10.8253 2.1499L10.4391 1.70979L9.75546 2.32544C8.04504 3.86584 7.30891 4.76824 6.61668 6.17302C5.86721 7.69394 5.7686 8.21619 5.78027 10.6001L5.79027 12.6228L5.48656 12.7507C4.92552 12.9872 4.42505 13.4249 4.21236 13.8652C4.01976 14.2641 4.00781 14.3871 4.05152 15.5213C4.0868 16.4364 4.1706 17.0519 4.38264 17.9532C4.93052 20.2815 5.14006 20.7207 5.9561 21.2507C6.14907 21.376 6.18148 21.4911 6.24426 22.2718C6.32009 23.2161 6.50371 23.7818 7.00122 24.6037C7.90439 26.0958 10.2337 28.6407 11.1327 29.1174C13.2184 30.2235 16.542 30.2537 18.7136 29.1861C19.2584 28.9184 19.5577 28.6703 20.4279 27.7654C22.6835 25.42 23.7482 23.6901 23.7482 22.3707C23.7482 21.6759 23.8344 21.2487 23.9746 21.2487C24.0354 21.2487 24.2562 21.102 24.465 20.9228C24.9021 20.5477 25.1228 19.9752 25.6095 17.9532C25.9429 16.5682 26.0691 14.8034 25.8837 14.1192C25.7554 13.6455 25.2274 13.0934 24.6361 12.8149L24.2303 12.6236L24.1883 10.3684C24.1528 8.46089 24.1166 8.0038 23.9533 7.40282C23.5517 5.92443 23.092 5.26822 21.3483 3.68529C20.6567 3.05739 19.7959 2.26157 19.4355 1.91699C19.0752 1.57241 18.7305 1.29039 18.6696 1.29039C18.419 1.29039 17.3606 1.84662 17.0142 2.16029C16.8096 2.34558 16.6001 2.49717 16.5485 2.49717C16.4224 2.49717 15.8277 1.82973 15.6644 1.50483C15.5923 1.36131 15.5043 1.11866 15.4688 0.965488C15.2939 0.209208 15.213 -0.00847591 15.1101 0.000250036C15.0485 0.00544847 14.7063 0.135966 14.3498 0.290249ZM15.3221 5.66144C15.3221 5.71704 15.006 6.13803 14.6196 6.59716C14.2332 7.05629 13.934 7.44896 13.9547 7.46966C13.9754 7.49045 14.302 7.44822 14.6804 7.376C15.0587 7.30368 16.6115 7.02937 18.1307 6.76639C21.2587 6.22491 20.9792 6.20022 21.5011 7.06437C22.1499 8.13868 22.3408 9.7968 22.141 12.6248L22.0649 13.7017L19.6889 13.6924C17.3772 13.6834 17.2953 13.6894 16.6647 13.9152C16.1092 14.1141 15.8643 14.1462 14.9517 14.1402C14.0725 14.1342 13.79 14.0956 13.3313 13.9185C12.854 13.7342 12.5605 13.6983 11.2479 13.6633C10.4076 13.6409 9.35489 13.6591 8.90849 13.7039C8.46209 13.7486 8.05884 13.7615 8.01227 13.7328C7.96578 13.7039 7.87745 12.8988 7.81606 11.9436C7.68661 9.92973 7.76985 8.95344 8.17366 7.74676L8.42376 6.99939L11.6646 6.33176C13.447 5.96453 14.9679 5.64566 15.0443 5.6231C15.2837 5.55237 15.3221 5.55766 15.3221 5.66144ZM12.8077 14.7086C13.5359 14.9253 13.6951 15.1024 13.6951 15.6961C13.6951 16.318 13.3507 17.0711 12.8117 17.6279C12.2897 18.1672 11.9691 18.2781 10.9328 18.2781C9.99083 18.2781 9.65925 18.1959 9.31721 17.8774C8.82173 17.4161 8.10643 15.5701 8.23079 15.0735C8.29635 14.8117 8.68478 14.6678 9.61379 14.5612C10.5008 14.4592 12.2401 14.5395 12.8077 14.7086ZM20.1833 14.5634C21.3307 14.6688 21.6939 14.7886 21.7684 15.0864C21.8455 15.3941 21.4187 16.7218 21.0432 17.3423C20.5676 18.1284 20.3807 18.2261 19.279 18.2642C18.1225 18.3042 17.7679 18.2035 17.2335 17.6828C16.6448 17.1092 16.3077 16.4142 16.3002 15.7585C16.2932 15.1344 16.4393 14.9279 17.0134 14.7513C17.8314 14.4996 18.8383 14.4399 20.1833 14.5634ZM6.72686 15.1898C6.87103 15.5773 6.94983 15.6729 7.14437 15.6964C7.35956 15.7224 7.41845 15.8251 7.72004 16.7C8.22422 18.1633 8.41441 18.4592 9.05775 18.7815C9.70323 19.1048 10.95 19.2724 11.9221 19.1666C12.4237 19.1119 12.6285 19.0383 12.9406 18.8005C13.4605 18.4043 14.1571 17.3735 14.4004 16.6407C14.6212 15.9754 14.8396 15.7835 15.1924 15.9447C15.3124 15.9996 15.4362 16.1595 15.4691 16.3024C15.5579 16.6879 16.2192 17.8976 16.5884 18.35C16.7665 18.5681 17.0856 18.8397 17.2977 18.9534C17.6431 19.1385 17.8088 19.159 18.887 19.1504C19.9044 19.1421 20.1766 19.1077 20.6463 18.9274C21.5595 18.5769 21.7303 18.3251 22.4559 16.2591C22.6239 15.7807 22.6961 15.6789 22.8673 15.6789C23.0302 15.6789 23.11 15.5841 23.2386 15.238C23.3286 14.9954 23.4314 14.7644 23.4671 14.7244C23.5549 14.6261 23.8147 14.7343 23.8761 14.8945C23.9612 15.1168 23.615 17.7802 23.3949 18.597C23.3056 18.928 23.1415 19.0043 23.0742 18.7461C23.0313 18.5819 22.9506 18.5566 22.4687 18.5566H21.9126L21.8616 18.9047C21.8335 19.0962 21.7649 19.9421 21.7091 20.7845C21.6532 21.627 21.5882 22.447 21.5645 22.6068C21.4797 23.1817 19.9848 25.2085 18.6949 26.4974C17.9794 27.2124 17.5838 27.4201 16.4795 27.6606C15.6715 27.8366 14.2084 27.8157 13.3313 27.6157C12.1261 27.3411 11.7996 27.121 10.6546 25.8113C9.67425 24.6899 9.0384 23.8489 8.67636 23.1951C8.40681 22.7083 8.39098 22.6171 8.29209 20.9702C8.23542 20.0256 8.16523 19.0962 8.13616 18.9047L8.08338 18.5566H7.5392C7.08734 18.5566 6.97798 18.5886 6.89455 18.7449C6.83927 18.8484 6.76149 18.913 6.72177 18.8884C6.59121 18.8074 6.225 16.8048 6.10694 15.5258C6.05296 14.9407 6.06583 14.8504 6.2162 14.763C6.47047 14.6151 6.53223 14.6667 6.72686 15.1898ZM13.5628 20.0739C13.5628 20.3723 14.3953 20.7845 14.998 20.7845C15.6007 20.7845 16.4332 20.3723 16.4332 20.0739C16.4332 19.9747 16.1385 19.9491 14.998 19.9491C13.8575 19.9491 13.5628 19.9747 13.5628 20.0739ZM13.4702 22.5662C13.1392 22.6637 12.5784 22.8196 12.2239 22.9127C10.9622 23.2446 11.2951 23.2909 14.9385 23.2909C17.1402 23.2909 18.3874 23.2575 18.4244 23.1974C18.4561 23.146 18.4273 23.0884 18.3604 23.0693C16.329 22.4912 15.9771 22.4207 15.0443 22.4052C14.3216 22.3933 13.9175 22.4346 13.4702 22.5662ZM13.5902 24.7298C13.6307 24.8681 14.4152 25.2401 14.7973 25.3022C15.3043 25.3847 16.4331 24.9638 16.4332 24.6922C16.4333 24.6618 15.7875 24.6369 14.9981 24.6369C14.0848 24.6369 13.5728 24.6707 13.5902 24.7298Z" fill="#343434"/>
</svg>
