<svg width="30" height="30" viewBox="0 0 30 30" fill="none" xmlns="http://www.w3.org/2000/svg">
  <path d="M10.1212 4.18841C9.96175 4.38094 9.7281 4.50001 9.47815 4.50001C8.86013 4.50001 8.48776 3.83028 8.87323 3.34721C10.5164 1.28797 12.8603 5.72205e-06 15.462 5.72205e-06C18.0637 5.72205e-06 20.4076 1.28797 22.0508 3.34721C22.4362 3.83028 22.0639 4.50001 21.4458 4.50001C21.1959 4.50001 20.9622 4.38094 20.8028 4.18841C19.4094 2.5054 17.4842 1.50001 15.462 1.50001C13.4398 1.50001 11.5146 2.5054 10.1212 4.18841Z" fill="#343434"/>
  <path d="M20.8028 16.8116C20.9622 16.6191 21.1959 16.5 21.4458 16.5C22.0639 16.5 22.4362 17.1697 22.0508 17.6528C20.4076 19.712 18.0637 21 15.462 21C12.8603 21 10.5164 19.712 8.87323 17.6528C8.48776 17.1697 8.86013 16.5 9.47815 16.5C9.7281 16.5 9.96175 16.6191 10.1212 16.8116C11.5146 18.4946 13.4398 19.5 15.462 19.5C17.4842 19.5 19.4094 18.4946 20.8028 16.8116Z" fill="#343434"/>
  <path d="M8.46201 11C9.01429 11 9.46201 10.5523 9.46201 10C9.46201 9.44771 9.01429 9 8.46201 9C7.90972 9 7.46201 9.44771 7.46201 10C7.46201 10.5523 7.90972 11 8.46201 11Z" fill="#343434"/>
  <path d="M4.46201 9C4.46201 7.34315 5.80515 6 7.46201 6H23.462C25.1189 6 26.462 7.34315 26.462 9V12C26.462 13.6569 25.1189 15 23.462 15H7.46201C5.80515 15 4.46201 13.6569 4.46201 12V9ZM7.46201 7.5C6.63358 7.5 5.96201 8.17157 5.96201 9V12C5.96201 12.8284 6.63358 13.5 7.46201 13.5H23.462C24.2904 13.5 24.962 12.8284 24.962 12V9C24.962 8.17157 24.2904 7.5 23.462 7.5H7.46201Z" fill="#343434"/>
  <path d="M10.1439 21.103C9.97484 20.9619 9.7475 20.9123 9.53996 20.9859C5.33775 22.4772 2.46201 25.5061 2.46201 29C2.46201 29.338 2.48892 29.6717 2.54135 30H28.3827C28.4351 29.6717 28.462 29.338 28.462 29C28.462 25.5061 25.5863 22.4772 21.3841 20.9859C21.1765 20.9123 20.9492 20.9619 20.7801 21.103C20.3542 21.4586 20.4607 22.246 20.9822 22.4355C22.0365 22.8186 22.9859 23.3054 23.8006 23.8693C25.6911 25.1782 26.7588 26.8183 26.9357 28.5H3.98829C4.16519 26.8183 5.23287 25.1782 7.12343 23.8693C7.93807 23.3054 8.8875 22.8186 9.94182 22.4355C10.4633 22.246 10.5698 21.4586 10.1439 21.103Z" fill="#343434"/>
</svg>
