<svg width="30" height="30" viewBox="0 0 30 30" fill="none" xmlns="http://www.w3.org/2000/svg">
  <path d="M14.011 19C13.5968 19 13.261 19.3358 13.261 19.75C13.261 20.1642 13.5968 20.5 14.011 20.5H16.011C16.4252 20.5 16.761 20.1642 16.761 19.75C16.761 19.3358 16.4252 19 16.011 19H14.011Z" fill="#343434"/>
  <path d="M12.511 22.5415C12.0968 22.5415 11.761 22.8773 11.761 23.2915C11.761 23.7058 12.0968 24.0415 12.511 24.0415H17.4126C17.8268 24.0415 18.1626 23.7058 18.1626 23.2915C18.1626 22.8773 17.8268 22.5415 17.4126 22.5415H12.511Z" fill="#343434"/>
  <path d="M15.3736 0.873437L14.996 0L14.2316 0.573434C13.942 0.790728 13.3479 1.29244 12.7649 1.78472L12.5311 1.98209C12.1978 2.26322 11.8761 2.53357 11.6147 2.74741C11.5145 2.82939 11.4251 2.90143 11.3488 2.96159C11.2411 2.86778 11.1317 2.7463 11.0592 2.65194L10.5902 2.04192L9.98973 2.52561C9.57125 2.86271 8.77553 3.72987 8.02601 4.7176C7.27712 5.70449 6.48494 6.92732 6.15098 7.99245C6.05384 8.30228 6.01103 8.70914 5.99003 9.10822C5.96812 9.52446 5.96739 9.99821 5.97817 10.4747C5.99363 11.1577 6.03326 11.8658 6.07323 12.4512C5.44921 12.7063 4.74308 13.2684 4.24337 14.2867C3.94757 14.8895 3.95537 15.6433 4.05289 16.3191C4.15452 17.0234 4.37488 17.7789 4.63555 18.4736C4.89696 19.1702 5.20866 19.8314 5.50737 20.3499C5.65619 20.6082 5.80902 20.8438 5.95831 21.0348C6.07447 21.1834 6.24792 21.3848 6.46862 21.5131C6.48446 21.584 6.49219 21.7059 6.48013 21.899C6.47183 22.0319 6.45912 22.1471 6.44505 22.2746C6.4357 22.3592 6.42575 22.4494 6.4161 22.5537C6.39757 22.7542 6.37313 23.064 6.44308 23.3395C6.48966 23.5231 6.59313 23.7157 6.67742 23.8614C6.77421 24.0286 6.89883 24.222 7.04059 24.4296C7.32499 24.846 7.69894 25.3498 8.10738 25.871C8.91943 26.9074 9.90331 28.058 10.6339 28.7597C11.0385 29.1482 11.5974 29.3886 12.1356 29.5483C12.6884 29.7123 13.301 29.8143 13.8835 29.8792C14.9811 30.0016 16 30 16.6388 29.9105C17.0277 29.8639 17.3907 29.8074 17.7878 29.6895C18.326 29.5299 18.885 29.2894 19.2895 28.9009C20.0202 28.1992 21.004 27.0486 21.8161 26.0122C22.2245 25.491 22.5985 24.9872 22.8829 24.5708C23.0246 24.3632 23.1493 24.1699 23.246 24.0026C23.3303 23.8569 23.4338 23.6643 23.4804 23.4808C23.5503 23.2052 23.5259 22.8954 23.5074 22.6949C23.4977 22.5906 23.4878 22.5005 23.4784 22.4158C23.4643 22.2883 23.4516 22.1732 23.4433 22.0402C23.4313 21.8471 23.439 21.7252 23.4548 21.6543C23.6755 21.526 23.849 21.3246 23.9652 21.176C24.1144 20.985 24.2673 20.7494 24.4161 20.4911C24.7148 19.9726 25.0265 19.3114 25.2879 18.6148C25.5486 17.9202 25.7689 17.1647 25.8706 16.4603C25.9681 15.7846 25.9759 15.0307 25.6801 14.428C25.1804 13.4096 24.4742 12.8476 23.8502 12.5925C23.8902 12.007 23.9298 11.2989 23.9453 10.6159C23.9561 10.1394 23.9553 9.66569 23.9334 9.24945C23.9124 8.85038 23.8696 8.44351 23.7725 8.13368C23.4385 7.06855 22.6463 5.84572 21.8975 4.85883C21.1479 3.8711 20.3522 3.00394 19.9337 2.66684L19.9049 2.64361L18.777 1.29824L18.2619 1.6943C17.9872 1.90554 17.5424 2.2164 17.1145 2.45545C16.8994 2.5756 16.7089 2.66611 16.5586 2.71902C16.5242 2.73116 16.4959 2.73984 16.4734 2.74607C16.4581 2.73115 16.4398 2.71225 16.4184 2.68853C16.3095 2.56785 16.1815 2.38997 16.0449 2.16986C15.7736 1.73258 15.5209 1.21419 15.3736 0.873437ZM17.3578 28.2649C16.9924 28.3733 16.5701 28.4535 16.1278 28.5117C15.5874 28.5074 14.8236 28.4876 14.0512 28.4015C13.5168 28.3419 13.0009 28.2528 12.5657 28.1237C12.1159 27.9903 11.8275 27.8356 11.6776 27.6916C11.022 27.062 10.0884 25.9752 9.29196 24.9588C8.89614 24.4536 8.54307 23.9772 8.2827 23.5959C8.15209 23.4046 8.04988 23.2447 7.97855 23.1214C7.92997 23.0375 7.90754 22.9903 7.89901 22.9724L7.89734 22.9689C7.89605 22.9454 7.8935 22.8661 7.90984 22.6895C7.91476 22.6363 7.92208 22.5686 7.93022 22.4933C7.94701 22.3381 7.9673 22.1505 7.97727 21.9909C7.9929 21.7406 7.9965 21.4202 7.9141 21.1141C7.82898 20.798 7.63608 20.448 7.24266 20.2376C7.23151 20.2265 7.19847 20.1936 7.14399 20.1239C7.0517 20.0058 6.93746 19.8338 6.80991 19.6124C6.55587 19.1714 6.27762 18.5845 6.04142 17.9551C5.80448 17.3237 5.61955 16.6753 5.53777 16.1085C5.45187 15.5133 5.49814 15.129 5.59222 14.9373C5.84848 14.415 6.15146 14.1212 6.39623 13.9595C6.49402 13.8948 6.58413 13.8502 6.66076 13.8202L7.74379 14.7745C7.78067 14.9077 7.81882 15.0527 7.86019 15.2099L7.8787 15.2802C7.9481 15.5437 8.02524 15.8335 8.11285 16.1221C8.28239 16.6806 8.51468 17.3193 8.87155 17.8017C9.09173 18.0994 9.41757 18.2343 9.67328 18.3012C9.94312 18.3717 10.2478 18.3961 10.5585 18.3942C11.1832 18.3904 11.9584 18.279 12.8033 18.0867C13.86 17.8463 14.3134 16.9789 14.4825 16.245C14.5703 15.8638 14.597 15.4687 14.5887 15.1063H15.3347C15.3264 15.4687 15.3531 15.8638 15.4409 16.245C15.61 16.9789 16.0634 17.8463 17.1201 18.0867C17.965 18.279 18.7402 18.3904 19.3649 18.3942C19.6756 18.3961 19.9803 18.3717 20.2501 18.3012C20.5058 18.2343 20.8317 18.0994 21.0519 17.8017C21.4087 17.3193 21.641 16.6806 21.8105 16.1221C21.8982 15.8335 21.9753 15.5437 22.0447 15.2802L22.0632 15.2099C22.1046 15.0527 22.1427 14.9077 22.1796 14.7745L23.1456 13.9233C23.163 13.9277 23.1822 13.9332 23.2033 13.9401C23.2909 13.9686 23.4029 14.0185 23.5272 14.1007C23.772 14.2625 24.075 14.5563 24.3312 15.0785C24.4253 15.2702 24.4716 15.6545 24.3857 16.2498C24.3039 16.8165 24.119 17.4649 23.882 18.0963C23.6458 18.7257 23.3676 19.3127 23.1136 19.7536C22.986 19.9751 22.8718 20.1471 22.7795 20.2652C22.725 20.3348 22.692 20.3676 22.6809 20.3787C22.2875 20.5891 22.0945 20.9392 22.0094 21.2554C21.927 21.5614 21.9306 21.8818 21.9462 22.1321C21.9562 22.2917 21.9764 22.4792 21.9932 22.6343C22.0014 22.7096 22.0087 22.7775 22.0136 22.8307C22.03 23.0074 22.0274 23.0866 22.0261 23.1102L22.0245 23.1137C22.0159 23.1316 21.9935 23.1787 21.9449 23.2627C21.8736 23.386 21.7714 23.5459 21.6408 23.7371C21.3804 24.1184 21.0273 24.5949 20.6315 25.1C19.835 26.1164 18.9015 27.2032 18.2459 27.8328C18.0959 27.9768 17.8075 28.1315 17.3578 28.2649ZM22.4457 10.5826C22.4295 11.2951 22.3856 12.0429 22.3433 12.6407L21.3651 13.5027C20.7406 13.2808 19.7772 13.0243 18.8884 13.0626C17.8418 13.1077 16.9653 13.3445 16.0517 13.6193H13.8717C12.9581 13.3445 12.0816 13.1077 11.035 13.0626C10.1462 13.0243 9.18284 13.2808 8.55834 13.5027L7.59101 12.6503C7.54557 12.0306 7.49531 11.2152 7.4778 10.4413C7.46745 9.98407 7.46878 9.55077 7.48799 9.1857C7.50811 8.80346 7.54547 8.55476 7.58338 8.43384C7.83693 7.62515 8.49597 6.57188 9.2247 5.61156C9.67202 5.02207 10.1119 4.51121 10.4482 4.15358C10.4686 4.16995 10.4892 4.18602 10.5101 4.20172C10.6429 4.30187 10.8242 4.41817 11.0375 4.48431C11.2567 4.55233 11.5904 4.5884 11.9137 4.39326C12.0656 4.30164 12.3199 4.09846 12.5694 3.89434C12.8407 3.67245 13.1704 3.39532 13.5032 3.11461L13.7308 2.92246C13.9734 2.71766 14.2091 2.51868 14.4204 2.34188C14.5278 2.54454 14.645 2.75195 14.7673 2.94899C14.9264 3.20555 15.1076 3.46627 15.3002 3.67979C15.4655 3.86301 15.747 4.13685 16.1246 4.22107C16.4757 4.29937 16.829 4.2019 17.0608 4.12029C17.324 4.02758 17.5978 3.89234 17.8509 3.75098C18.0958 3.61413 18.3404 3.46075 18.5634 3.31139L19.4752 4.29481C19.8116 4.65245 20.2514 5.1633 20.6988 5.75279C21.4275 6.71312 22.0865 7.76639 22.3401 8.57507C22.378 8.696 22.4154 8.9447 22.4355 9.32693C22.4547 9.692 22.456 10.1253 22.4457 10.5826ZM9.30807 14.821C9.79484 14.6682 10.43 14.525 10.9698 14.5482C11.7037 14.5799 12.3439 14.7253 13.0794 14.9371C13.1019 15.248 13.0922 15.6013 13.0202 15.9138C12.9113 16.3862 12.7177 16.5805 12.4678 16.6373C11.6796 16.8167 11.0224 16.9043 10.5494 16.9072C10.3112 16.9086 10.1508 16.8881 10.0558 16.8633C10.0485 16.8614 10.0418 16.8595 10.036 16.8578C9.85925 16.5916 9.69978 16.1895 9.54922 15.6936C9.47043 15.434 9.39947 15.1681 9.33002 14.9044L9.30807 14.821ZM20.6153 14.821L20.5934 14.9044C20.5239 15.1681 20.453 15.434 20.3742 15.6936C20.2236 16.1895 20.0642 16.5916 19.8874 16.8578L19.8779 16.8605L19.8676 16.8633C19.7726 16.8881 19.6122 16.9086 19.374 16.9072C18.901 16.9043 18.2438 16.8167 17.4556 16.6373C17.2057 16.5805 17.0121 16.3862 16.9032 15.9138C16.8312 15.6013 16.8215 15.248 16.844 14.9371C17.5795 14.7253 18.2197 14.5799 18.9536 14.5482C19.4934 14.525 20.1286 14.6682 20.6153 14.821Z" fill="#343434"/>
</svg>
