<svg width="30" height="30" viewBox="0 0 30 30" fill="none" xmlns="http://www.w3.org/2000/svg">
  <path d="M15 30C23.2901 30 30 23.2912 30 15C30 6.7099 23.2912 0 15 0C6.7099 0 0 6.70876 0 15C0 23.2901 6.70876 30 15 30ZM21.6307 11.8978L13.7691 19.7596C13.3113 20.2172 12.5695 20.2172 12.1117 19.7596L8.36929 16.0169C7.91153 15.5594 7.91153 14.8174 8.36929 14.3598C8.82683 13.9021 9.56886 13.9021 10.0264 14.3598L12.9403 17.2737L19.9734 10.2404C20.4311 9.78289 21.1732 9.78289 21.6307 10.2404C22.0885 10.6982 22.0885 11.4402 21.6307 11.8978Z" fill="#00CCB1"/>
</svg>
