<svg width="30" height="30" viewBox="0 0 30 30" fill="none" xmlns="http://www.w3.org/2000/svg">
<path d="M15 -3.8147e-05C14.8274 -1.91302e-05 14.6548 0.0507231 14.5056 0.152144C12.7421 1.35205 9.63564 4.57731 8.14491 9.75998C8.0556 10.0705 7.97209 10.388 7.89501 10.7125C7.38246 12.8707 7.15448 15.3389 7.39818 18.1128C7.41539 18.3087 7.43495 18.5061 7.45693 18.705L3.67143 19.5701C3.2717 19.6614 2.98828 20.0169 2.98828 20.4269V29.1211C2.98828 29.4225 3.14273 29.7029 3.39756 29.864C3.65273 30.0253 3.9723 30.0441 4.24418 29.915L10.3582 27.0117H11.4844V29.1211C11.4844 29.6065 11.8779 30 12.3633 30H17.6367C18.1221 30 18.5156 29.6065 18.5156 29.1211V27.0117H19.6418L25.7558 29.915C26.0277 30.0441 26.3473 30.0253 26.6024 29.864C26.8573 29.7029 27.0117 29.4225 27.0117 29.1211V20.4269C27.0117 20.0169 26.7283 19.6614 26.3286 19.5701L22.5431 18.705C22.565 18.5061 22.5846 18.3087 22.6018 18.1128C22.8454 15.3401 22.6178 12.8729 22.1057 10.7155C22.0282 10.389 21.9442 10.0695 21.8543 9.75713C20.3632 4.57613 17.2576 1.35183 15.4944 0.152144C15.3452 0.0507231 15.1726 -1.91302e-05 15 -3.8147e-05ZM17.0156 27V28.5H12.9844V27H17.0156ZM19.8285 25.5H10.1715L9.06762 19.6242L8.94786 18.5403C8.83248 17.496 8.78809 16.4978 8.80362 15.5458C8.83044 13.9014 9.03604 12.3948 9.36331 11.0269C9.42873 10.7534 9.49902 10.4855 9.5737 10.2232C10.0505 8.54823 10.7069 7.09919 11.4243 5.87749C12.6323 3.82025 14.013 2.40764 15 1.64645C15.987 2.40763 17.3677 3.82019 18.5756 5.87737C19.2927 7.09849 19.9488 8.54675 20.4256 10.2207C20.5008 10.4847 20.5715 10.7543 20.6373 11.0295C20.9642 12.3968 21.1696 13.9025 21.1964 15.546C21.2119 16.498 21.1675 17.4961 21.0521 18.5403L20.9324 19.6242L19.8285 25.5ZM8.75778 26.1111L4.48828 28.1386V20.9221L7.64939 20.1997L8.75778 26.1111ZM21.2422 26.1111L22.3506 20.1997L25.5117 20.9221V28.1386L21.2422 26.1111Z" fill="#343434"/>
<path d="M15 10.5C13.7284 10.5 12.6914 11.5369 12.6914 12.8086C12.6914 14.0802 13.7284 15.1172 15 15.1172C16.2716 15.1172 17.3086 14.0802 17.3086 12.8086C17.3086 11.5369 16.2716 10.5 15 10.5ZM11.1914 12.8086C11.1914 10.7085 12.8999 8.99998 15 8.99998C17.1001 8.99998 18.8086 10.7085 18.8086 12.8086C18.8086 14.9086 17.1001 16.6172 15 16.6172C12.8999 16.6172 11.1914 14.9086 11.1914 12.8086Z" fill="#343434"/>
</svg>
