<svg width="30" height="30" viewBox="0 0 30 30" fill="none" xmlns="http://www.w3.org/2000/svg">
<path d="M18.8541 29.9753C18.4614 30.0758 18.0579 29.8562 17.9296 29.4728C17.506 28.2144 16.328 27.3673 15 27.3673C13.672 27.3673 12.494 28.2129 12.0704 29.4728C11.9623 29.7926 11.6635 29.9997 11.3392 30L11.3376 30C11.2747 29.9999 11.2103 29.9921 11.1459 29.9753C9.75766 29.6182 8.4235 29.0678 7.18209 28.3381C6.82188 28.1263 6.69512 27.6672 6.89454 27.3008C7.14035 26.8494 7.27021 26.3392 7.27021 25.8213C7.27021 24.1162 5.88349 22.7295 4.1783 22.7295C3.66195 22.7295 3.15023 22.8593 2.69881 23.1051C2.33242 23.3046 1.87327 23.1778 1.66148 22.8176C0.931785 21.5746 0.381424 20.2421 0.0243074 18.8538C-0.0761798 18.4611 0.143346 18.0576 0.526744 17.9293C1.78515 17.5057 2.63234 16.3277 2.63234 14.9998C2.63234 13.6718 1.7867 12.4938 0.526744 12.0702C0.143346 11.9404 -0.0761798 11.5384 0.0243074 11.1458C0.381424 9.75752 0.931785 8.42338 1.66148 7.18199C1.87327 6.82179 2.33242 6.69502 2.69881 6.89445C3.14869 7.14025 3.6604 7.27011 4.1783 7.27011C5.88349 7.27011 7.27021 5.8834 7.27021 4.17824C7.27021 3.66189 7.14035 3.15019 6.89454 2.69878C6.69512 2.33239 6.82188 1.87325 7.18209 1.66145C8.42504 0.931771 9.75766 0.381418 11.1459 0.0243071C11.5386 -0.0761787 11.9421 0.143344 12.0704 0.526736C12.494 1.78513 13.672 2.6323 15 2.6323C16.328 2.6323 17.506 1.78667 17.9296 0.526736C18.0594 0.143344 18.4629 -0.0761787 18.8541 0.0243071C20.2423 0.381418 21.5765 0.931771 22.8179 1.66145C23.1781 1.87325 23.3049 2.33239 23.1055 2.69878C22.8596 3.15019 22.7298 3.66035 22.7298 4.17824C22.7298 5.8834 24.1165 7.27011 25.8217 7.27011C26.3381 7.27011 26.8498 7.14025 27.3012 6.89445C27.6676 6.69502 28.1267 6.82179 28.3385 7.18199C29.0682 8.42492 29.6186 9.75752 29.9757 11.1458C30.0762 11.5384 29.8567 11.9419 29.4733 12.0702C28.2148 12.4938 27.3677 13.6718 27.3677 14.9998C27.3677 16.3277 28.2133 17.5057 29.4733 17.9293C29.8567 18.0592 30.0762 18.4611 29.9757 18.8538C29.6186 20.2421 29.0682 21.5762 28.3385 22.8176C28.1267 23.1778 27.6676 23.3046 27.3012 23.1051C26.8498 22.8593 26.3396 22.7295 25.8217 22.7295C24.1165 22.7295 22.7298 24.1162 22.7298 25.8213C22.7298 26.3377 22.8596 26.8494 23.1055 27.3008C23.3049 27.6672 23.1781 28.1263 22.8179 28.3381C21.575 29.0678 20.2423 29.6182 18.8541 29.9753ZM15 22.8571C19.3299 22.8571 22.8571 19.3299 22.8571 15C22.8571 10.6701 19.3299 7.14286 15 7.14286C10.6701 7.14286 7.14286 10.6701 7.14286 15C7.14286 19.3299 10.6701 22.8571 15 22.8571Z" fill="#6F74DD"/>
<path d="M12 13C12 12.4477 12.4477 12 13 12C13.5523 12 14 12.4477 14 13V17C14 17.5523 13.5523 18 13 18C12.4477 18 12 17.5523 12 17L12 13Z" fill="#FF6262"/>
<path d="M16 13C16 12.4477 16.4477 12 17 12C17.5523 12 18 12.4477 18 13V17C18 17.5523 17.5523 18 17 18C16.4477 18 16 17.5523 16 17V13Z" fill="#FF6262"/>
</svg>
